CooperHewittInterpol2-ThinItalic.ufo
<glyph name="exclam" format="1">
  <advance width="180"/>
  <unicode hex="0021"/>
  <outline>
    <contour>
      <point x="66" y="40" type="line" smooth="yes"/>
      <point x="26" y="40" type="line" smooth="yes"/>
      <point x="21" y="0" type="line" smooth="yes"/>
      <point x="61" y="0" type="line" smooth="yes"/>
    </contour>
    <contour>
      <point x="133" y="780" type="line" smooth="yes"/>
      <point x="57" y="175" type="line" smooth="yes"/>
      <point x="71" y="175" type="line" smooth="yes"/>
      <point x="153" y="780" type="line" smooth="yes"/>
    </contour>
  </outline>
</glyph>
<glyph name="dollar" format="1">
  <advance width="597"/>
  <unicode hex="0024"/>
  <outline>
    <contour>
      <point x="259" y="80" type="line" smooth="yes"/>
      <point x="236" y="81" type="line" smooth="yes"/>
      <point x="214" y="83" type="line" smooth="yes"/>
      <point x="195" y="86" type="line" smooth="yes"/>
      <point x="308" y="390" type="line" smooth="yes"/>
      <point x="408" y="369" type="line" smooth="yes"/>
      <point x="468" y="328" type="line" smooth="yes"/>
      <point x="488" y="257" type="line" smooth="yes"/>
      <point x="455" y="161" type="line" smooth="yes"/>
      <point x="373" y="101" type="line" smooth="yes"/>
      <point x="262" y="80" type="line" smooth="yes"/>
    </contour>
    <contour>
      <point x="475" y="840" type="line" smooth="yes"/>
      <point x="455" y="840" type="line" smooth="yes"/>
      <point x="408" y="714" type="line" smooth="yes"/>
      <point x="388" y="717" type="line" smooth="yes"/>
      <point x="367" y="719" type="line" smooth="yes"/>
      <point x="344" y="720" type="line" smooth="yes"/>
      <point x="230" y="699" type="line" smooth="yes"/>
      <point x="144" y="642" type="line" smooth="yes"/>
      <point x="103" y="553" type="line" smooth="yes"/>
      <point x="102" y="545" type="line" smooth="yes"/>
      <point x="113" y="472" type="line" smooth="yes"/>
      <point x="172" y="421" type="line" smooth="yes"/>
      <point x="289" y="392" type="line" smooth="yes"/>
      <point x="177" y="91" type="line" smooth="yes"/>
      <point x="114" y="129" type="line" smooth="yes"/>
      <point x="82" y="190" type="line" smooth="yes"/>
      <point x="81" y="271" type="line" smooth="yes"/>
      <point x="61" y="271" type="line" smooth="yes"/>
      <point x="59" y="255" type="line" smooth="yes"/>
      <point x="64" y="180" type="line" smooth="yes"/>
      <point x="99" y="115" type="line" smooth="yes"/>
      <point x="170" y="72" type="line" smooth="yes"/>
      <point x="121" y="-60" type="line" smooth="yes"/>
      <point x="141" y="-60" type="line" smooth="yes"/>
      <point x="188" y="67" type="line" smooth="yes"/>
      <point x="210" y="63" type="line" smooth="yes"/>
      <point x="233" y="61" type="line" smooth="yes"/>
      <point x="258" y="60" type="line" smooth="yes"/>
      <point x="376" y="80" type="line" smooth="yes"/>
      <point x="464" y="139" type="line" smooth="yes"/>
      <point x="506" y="233" type="line" smooth="yes"/>
      <point x="507" y="241" type="line" smooth="yes"/>
      <point x="495" y="324" type="line" smooth="yes"/>
      <point x="433" y="380" type="line" smooth="yes"/>
      <point x="315" y="409" type="line" smooth="yes"/>
      <point x="419" y="690" type="line" smooth="yes"/>
      <point x="483" y="656" type="line" smooth="yes"/>
      <point x="516" y="594" type="line" smooth="yes"/>
      <point x="516" y="498" type="line" smooth="yes"/>
      <point x="536" y="498" type="line" smooth="yes"/>
      <point x="539" y="522" type="line" smooth="yes"/>
      <point x="535" y="608" type="line" smooth="yes"/>
      <point x="498" y="671" type="line" smooth="yes"/>
      <point x="426" y="709" type="line" smooth="yes"/>
    </contour>
    <contour>
      <point x="296" y="411" type="line" smooth="yes"/>
      <point x="196" y="433" type="line" smooth="yes"/>
      <point x="140" y="470" type="line" smooth="yes"/>
      <point x="122" y="527" type="line" smooth="yes"/>
      <point x="156" y="624" type="line" smooth="yes"/>
      <point x="239" y="681" type="line" smooth="yes"/>
      <point x="341" y="700" type="line" smooth="yes"/>
      <point x="344" y="700" type="line" smooth="yes"/>
      <point x="364" y="699" type="line" smooth="yes"/>
      <point x="383" y="698" type="line" smooth="yes"/>
      <point x="401" y="695" type="line" smooth="yes"/>
    </contour>
  </outline>
</glyph>
<glyph name="ampersand" format="1">
  <advance width="640"/>
  <unicode hex="0026"/>
  <outline>
    <contour>
      <point x="140" y="639" type="line" smooth="yes"/>
      <point x="163" y="703" type="line" smooth="yes"/>
      <point x="213" y="749" type="line" smooth="yes"/>
      <point x="292" y="766" type="line" smooth="yes"/>
      <point x="298" y="766" type="line" smooth="yes"/>
      <point x="376" y="749" type="line" smooth="yes"/>
      <point x="420" y="703" type="line" smooth="yes"/>
      <point x="430" y="639" type="line" smooth="yes"/>
      <point x="429" y="631" type="line" smooth="yes"/>
      <point x="392" y="554" type="line" smooth="yes"/>
      <point x="318" y="491" type="line" smooth="yes"/>
      <point x="226" y="434" type="line" smooth="yes"/>
      <point x="173" y="502" type="line" smooth="yes"/>
      <point x="144" y="563" type="line" smooth="yes"/>
      <point x="139" y="631" type="line" smooth="yes"/>
    </contour>
    <contour>
      <point x="224" y="14" type="line" smooth="yes"/>
      <point x="122" y="38" type="line" smooth="yes"/>
      <point x="65" y="104" type="line" smooth="yes"/>
      <point x="56" y="206" type="line" smooth="yes"/>
      <point x="57" y="214" type="line" smooth="yes"/>
      <point x="88" y="295" type="line" smooth="yes"/>
      <point x="146" y="358" type="line" smooth="yes"/>
      <point x="221" y="410" type="line" smooth="yes"/>
      <point x="453" y="126" type="line" smooth="yes"/>
      <point x="383" y="59" type="line" smooth="yes"/>
      <point x="306" y="24" type="line" smooth="yes"/>
      <point x="230" y="14" type="line" smooth="yes"/>
    </contour>
    <contour>
      <point x="227" y="-6" type="line" smooth="yes"/>
      <point x="313" y="5" type="line" smooth="yes"/>
      <point x="392" y="42" type="line" smooth="yes"/>
      <point x="466" y="110" type="line" smooth="yes"/>
      <point x="556" y="0" type="line" smooth="yes"/>
      <point x="581" y="0" type="line" smooth="yes"/>
      <point x="477" y="127" type="line" smooth="yes"/>
      <point x="516" y="196" type="line" smooth="yes"/>
      <point x="547" y="284" type="line" smooth="yes"/>
      <point x="568" y="395" type="line" smooth="yes"/>
      <point x="548" y="395" type="line" smooth="yes"/>
      <point x="547" y="387" type="line" smooth="yes"/>
      <point x="528" y="288" type="line" smooth="yes"/>
      <point x="500" y="208" type="line" smooth="yes"/>
      <point x="464" y="143" type="line" smooth="yes"/>
      <point x="238" y="420" type="line" smooth="yes"/>
      <point x="333" y="480" type="line" smooth="yes"/>
      <point x="411" y="547" type="line" smooth="yes"/>
      <point x="449" y="631" type="line" smooth="yes"/>
      <point x="450" y="639" type="line" smooth="yes"/>
      <point x="439" y="715" type="line" smooth="yes"/>
      <point x="387" y="767" type="line" smooth="yes"/>
      <point x="295" y="786" type="line" smooth="yes"/>
      <point x="203" y="766" type="line" smooth="yes"/>
      <point x="145" y="713" type="line" smooth="yes"/>
      <point x="120" y="639" type="line" smooth="yes"/>
      <point x="119" y="631" type="line" smooth="yes"/>
      <point x="124" y="559" type="line" smooth="yes"/>
      <point x="156" y="494" type="line" smooth="yes"/>
      <point x="209" y="424" type="line" smooth="yes"/>
      <point x="131" y="369" type="line" smooth="yes"/>
      <point x="69" y="302" type="line" smooth="yes"/>
      <point x="37" y="214" type="line" smooth="yes"/>
      <point x="36" y="206" type="line" smooth="yes"/>
      <point x="48" y="91" type="line" smooth="yes"/>
      <point x="114" y="19" type="line" smooth="yes"/>
    </contour>
  </outline>
</glyph>
<glyph name="quotesingle" format="1">
  <advance width="180"/>
  <unicode hex="0027"/>
  <outline>
    <contour>
      <point x="133" y="780" type="line" smooth="yes"/>
      <point x="105" y="530" type="line" smooth="yes"/>
      <point x="115" y="530" type="line" smooth="yes"/>
      <point x="153" y="780" type="line" smooth="yes"/>
    </contour>
  </outline>
</glyph>
<glyph name="parenleft" format="1">
  <advance width="300"/>
  <unicode hex="0028"/>
  <outline>
    <contour>
      <point x="62" y="348" type="line" smooth="yes"/>
      <point x="59" y="148" type="line" smooth="yes"/>
      <point x="98" y="-1" type="line" smooth="yes"/>
      <point x="162" y="-120" type="line" smooth="yes"/>
      <point x="185" y="-120" type="line" smooth="yes"/>
      <point x="117" y="6" type="line" smooth="yes"/>
      <point x="79" y="156" type="line" smooth="yes"/>
      <point x="82" y="348" type="line" smooth="yes"/>
      <point x="85" y="372" type="line" smooth="yes"/>
      <point x="132" y="565" type="line" smooth="yes"/>
      <point x="211" y="717" type="line" smooth="yes"/>
      <point x="311" y="840" type="line" smooth="yes"/>
      <point x="288" y="840" type="line" smooth="yes"/>
      <point x="193" y="723" type="line" smooth="yes"/>
      <point x="114" y="573" type="line" smooth="yes"/>
      <point x="65" y="372" type="line" smooth="yes"/>
    </contour>
  </outline>
</glyph>
<glyph name="parenright" format="1">
  <advance width="295"/>
  <unicode hex="0029"/>
  <outline>
    <contour>
      <point x="234" y="372" type="line" smooth="yes"/>
      <point x="237" y="572" type="line" smooth="yes"/>
      <point x="198" y="721" type="line" smooth="yes"/>
      <point x="134" y="840" type="line" smooth="yes"/>
      <point x="111" y="840" type="line" smooth="yes"/>
      <point x="179" y="714" type="line" smooth="yes"/>
      <point x="217" y="564" type="line" smooth="yes"/>
      <point x="214" y="372" type="line" smooth="yes"/>
      <point x="211" y="348" type="line" smooth="yes"/>
      <point x="164" y="155" type="line" smooth="yes"/>
      <point x="85" y="3" type="line" smooth="yes"/>
      <point x="-15" y="-120" type="line" smooth="yes"/>
      <point x="8" y="-120" type="line" smooth="yes"/>
      <point x="103" y="-3" type="line" smooth="yes"/>
      <point x="182" y="147" type="line" smooth="yes"/>
      <point x="231" y="348" type="line" smooth="yes"/>
    </contour>
  </outline>
</glyph>
<glyph name="asterisk" format="1">
  <advance width="380"/>
  <unicode hex="002A"/>
  <outline>
    <contour>
      <point x="400" y="686" type="line" smooth="yes"/>
      <point x="251" y="640" type="line" smooth="yes"/>
      <point x="254" y="621" type="line" smooth="yes"/>
      <point x="403" y="667" type="line" smooth="yes"/>
    </contour>
    <contour>
      <point x="317" y="479" type="line" smooth="yes"/>
      <point x="246" y="601" type="line" smooth="yes"/>
      <point x="229" y="590" type="line" smooth="yes"/>
      <point x="300" y="468" type="line" smooth="yes"/>
    </contour>
    <contour>
      <point x="53" y="668" type="line" smooth="yes"/>
      <point x="190" y="622" type="line" smooth="yes"/>
      <point x="199" y="640" type="line" smooth="yes"/>
      <point x="62" y="686" type="line" smooth="yes"/>
    </contour>
    <contour>
      <point x="104" y="468" type="line" smooth="yes"/>
      <point x="208" y="589" type="line" smooth="yes"/>
      <point x="194" y="602" type="line" smooth="yes"/>
      <point x="90" y="481" type="line" smooth="yes"/>
    </contour>
    <contour>
      <point x="236" y="800" type="line" smooth="yes"/>
      <point x="216" y="650" type="line" smooth="yes"/>
      <point x="236" y="650" type="line" smooth="yes"/>
      <point x="256" y="800" type="line" smooth="yes"/>
    </contour>
  </outline>
</glyph>
<glyph name="zero" format="1">
  <advance width="596"/>
  <unicode hex="0030"/>
  <outline>
    <contour>
      <point x="257" y="-6" type="line" smooth="yes"/>
      <point x="387" y="20" type="line" smooth="yes"/>
      <point x="470" y="99" type="line" smooth="yes"/>
      <point x="512" y="237" type="line" smooth="yes"/>
      <point x="553" y="552" type="line" smooth="yes"/>
      <point x="543" y="679" type="line" smooth="yes"/>
      <point x="474" y="758" type="line" smooth="yes"/>
      <point x="347" y="786" type="line" smooth="yes"/>
      <point x="217" y="760" type="line" smooth="yes"/>
      <point x="134" y="681" type="line" smooth="yes"/>
      <point x="92" y="543" type="line" smooth="yes"/>
      <point x="51" y="228" type="line" smooth="yes"/>
      <point x="61" y="101" type="line" smooth="yes"/>
      <point x="130" y="22" type="line" smooth="yes"/>
    </contour>
    <contour>
      <point x="254" y="14" type="line" smooth="yes"/>
      <point x="143" y="37" type="line" smooth="yes"/>
      <point x="80" y="107" type="line" smooth="yes"/>
      <point x="71" y="229" type="line" smooth="yes"/>
      <point x="111" y="536" type="line" smooth="yes"/>
      <point x="154" y="673" type="line" smooth="yes"/>
      <point x="233" y="745" type="line" smooth="yes"/>
      <point x="344" y="766" type="line" smooth="yes"/>
      <point x="350" y="766" type="line" smooth="yes"/>
      <point x="461" y="743" type="line" smooth="yes"/>
      <point x="524" y="673" type="line" smooth="yes"/>
      <point x="533" y="551" type="line" smooth="yes"/>
      <point x="493" y="244" type="line" smooth="yes"/>
      <point x="450" y="107" type="line" smooth="yes"/>
      <point x="371" y="35" type="line" smooth="yes"/>
      <point x="260" y="14" type="line" smooth="yes"/>
    </contour>
  </outline>
</glyph>
<glyph name="two" format="1">
  <advance width="598"/>
  <unicode hex="0032"/>
  <outline>
    <contour>
      <point x="158" y="20" type="line" smooth="yes"/>
      <point x="48" y="19" type="line" smooth="yes"/>
      <point x="426" y="367" type="line" smooth="yes"/>
      <point x="502" y="442" type="line" smooth="yes"/>
      <point x="543" y="501" type="line" smooth="yes"/>
      <point x="561" y="566" type="line" smooth="yes"/>
      <point x="564" y="590" type="line" smooth="yes"/>
      <point x="544" y="693" type="line" smooth="yes"/>
      <point x="466" y="761" type="line" smooth="yes"/>
      <point x="349" y="786" type="line" smooth="yes"/>
      <point x="212" y="758" type="line" smooth="yes"/>
      <point x="126" y="676" type="line" smooth="yes"/>
      <point x="87" y="544" type="line" smooth="yes"/>
      <point x="84" y="520" type="line" smooth="yes"/>
      <point x="104" y="520" type="line" smooth="yes"/>
      <point x="138" y="655" type="line" smooth="yes"/>
      <point x="214" y="738" type="line" smooth="yes"/>
      <point x="345" y="766" type="line" smooth="yes"/>
      <point x="353" y="766" type="line" smooth="yes"/>
      <point x="455" y="744" type="line" smooth="yes"/>
      <point x="525" y="683" type="line" smooth="yes"/>
      <point x="543" y="590" type="line" smooth="yes"/>
      <point x="540" y="566" type="line" smooth="yes"/>
      <point x="523" y="505" type="line" smooth="yes"/>
      <point x="485" y="450" type="line" smooth="yes"/>
      <point x="415" y="381" type="line" smooth="yes"/>
      <point x="17" y="15" type="line" smooth="yes"/>
      <point x="15" y="0" type="line" smooth="yes"/>
      <point x="485" y="0" type="line" smooth="yes"/>
      <point x="488" y="20" type="line" smooth="yes"/>
    </contour>
  </outline>
</glyph>
<glyph name="three" format="1">
  <advance width="598"/>
  <unicode hex="0033"/>
  <outline>
    <contour>
      <point x="538" y="568" type="line" smooth="yes"/>
      <point x="503" y="481" type="line" smooth="yes"/>
      <point x="429" y="427" type="line" smooth="yes"/>
      <point x="325" y="408" type="line" smooth="yes"/>
      <point x="204" y="408" type="line" smooth="yes"/>
      <point x="201" y="388" type="line" smooth="yes"/>
      <point x="325" y="388" type="line" smooth="yes"/>
      <point x="429" y="368" type="line" smooth="yes"/>
      <point x="487" y="309" type="line" smooth="yes"/>
      <point x="497" y="212" type="line" smooth="yes"/>
      <point x="494" y="188" type="line" smooth="yes"/>
      <point x="454" y="91" type="line" smooth="yes"/>
      <point x="373" y="33" type="line" smooth="yes"/>
      <point x="261" y="14" type="line" smooth="yes"/>
      <point x="253" y="14" type="line" smooth="yes"/>
      <point x="134" y="39" type="line" smooth="yes"/>
      <point x="69" y="117" type="line" smooth="yes"/>
      <point x="63" y="250" type="line" smooth="yes"/>
      <point x="43" y="250" type="line" smooth="yes"/>
      <point x="40" y="226" type="line" smooth="yes"/>
      <point x="52" y="101" type="line" smooth="yes"/>
      <point x="123" y="22" type="line" smooth="yes"/>
      <point x="257" y="-6" type="line" smooth="yes"/>
      <point x="380" y="14" type="line" smooth="yes"/>
      <point x="471" y="78" type="line" smooth="yes"/>
      <point x="515" y="188" type="line" smooth="yes"/>
      <point x="518" y="212" type="line" smooth="yes"/>
      <point x="509" y="307" type="line" smooth="yes"/>
      <point x="460" y="370" type="line" smooth="yes"/>
      <point x="380" y="398" type="line" smooth="yes"/>
      <point x="465" y="425" type="line" smooth="yes"/>
      <point x="528" y="482" type="line" smooth="yes"/>
      <point x="559" y="568" type="line" smooth="yes"/>
      <point x="562" y="592" type="line" smooth="yes"/>
      <point x="542" y="697" type="line" smooth="yes"/>
      <point x="465" y="763" type="line" smooth="yes"/>
      <point x="349" y="786" type="line" smooth="yes"/>
      <point x="212" y="758" type="line" smooth="yes"/>
      <point x="126" y="676" type="line" smooth="yes"/>
      <point x="87" y="544" type="line" smooth="yes"/>
      <point x="84" y="520" type="line" smooth="yes"/>
      <point x="104" y="520" type="line" smooth="yes"/>
      <point x="138" y="655" type="line" smooth="yes"/>
      <point x="214" y="738" type="line" smooth="yes"/>
      <point x="345" y="766" type="line" smooth="yes"/>
      <point x="353" y="766" type="line" smooth="yes"/>
      <point x="455" y="744" type="line" smooth="yes"/>
      <point x="523" y="683" type="line" smooth="yes"/>
      <point x="541" y="592" type="line" smooth="yes"/>
    </contour>
  </outline>
</glyph>
<glyph name="five" format="1">
  <advance width="600"/>
  <unicode hex="0035"/>
  <outline>
    <contour>
      <point x="312" y="466" type="line" smooth="yes"/>
      <point x="420" y="440" type="line" smooth="yes"/>
      <point x="488" y="366" type="line" smooth="yes"/>
      <point x="503" y="252" type="line" smooth="yes"/>
      <point x="500" y="228" type="line" smooth="yes"/>
      <point x="458" y="114" type="line" smooth="yes"/>
      <point x="374" y="40" type="line" smooth="yes"/>
      <point x="261" y="14" type="line" smooth="yes"/>
      <point x="253" y="14" type="line" smooth="yes"/>
      <point x="134" y="39" type="line" smooth="yes"/>
      <point x="69" y="117" type="line" smooth="yes"/>
      <point x="63" y="250" type="line" smooth="yes"/>
      <point x="43" y="250" type="line" smooth="yes"/>
      <point x="40" y="226" type="line" smooth="yes"/>
      <point x="52" y="101" type="line" smooth="yes"/>
      <point x="123" y="22" type="line" smooth="yes"/>
      <point x="257" y="-6" type="line" smooth="yes"/>
      <point x="381" y="21" type="line" smooth="yes"/>
      <point x="474" y="101" type="line" smooth="yes"/>
      <point x="521" y="228" type="line" smooth="yes"/>
      <point x="524" y="252" type="line" smooth="yes"/>
      <point x="506" y="379" type="line" smooth="yes"/>
      <point x="428" y="459" type="line" smooth="yes"/>
      <point x="308" y="486" type="line" smooth="yes"/>
      <point x="211" y="473" type="line" smooth="yes"/>
      <point x="138" y="436" type="line" smooth="yes"/>
      <point x="89" y="380" type="line" smooth="yes"/>
      <point x="155" y="760" type="line" smooth="yes"/>
      <point x="580" y="760" type="line" smooth="yes"/>
      <point x="583" y="780" type="line" smooth="yes"/>
      <point x="138" y="780" type="line" smooth="yes"/>
      <point x="61" y="339" type="line" smooth="yes"/>
      <point x="80" y="333" type="line" smooth="yes"/>
      <point x="133" y="407" type="line" smooth="yes"/>
      <point x="206" y="451" type="line" smooth="yes"/>
      <point x="304" y="466" type="line" smooth="yes"/>
    </contour>
  </outline>
</glyph>
<glyph name="six" format="1">
  <advance width="600"/>
  <unicode hex="0036"/>
  <outline>
    <contour>
      <point x="79" y="314" type="line" smooth="yes"/>
      <point x="136" y="390" type="line" smooth="yes"/>
      <point x="216" y="445" type="line" smooth="yes"/>
      <point x="314" y="466" type="line" smooth="yes"/>
      <point x="322" y="466" type="line" smooth="yes"/>
      <point x="429" y="440" type="line" smooth="yes"/>
      <point x="495" y="367" type="line" smooth="yes"/>
      <point x="508" y="252" type="line" smooth="yes"/>
      <point x="505" y="228" type="line" smooth="yes"/>
      <point x="463" y="114" type="line" smooth="yes"/>
      <point x="379" y="40" type="line" smooth="yes"/>
      <point x="266" y="14" type="line" smooth="yes"/>
      <point x="258" y="14" type="line" smooth="yes"/>
      <point x="158" y="38" type="line" smooth="yes"/>
      <point x="91" y="105" type="line" smooth="yes"/>
      <point x="66" y="210" type="line" smooth="yes"/>
      <point x="68" y="251" type="line" smooth="yes"/>
      <point x="73" y="287" type="line" smooth="yes"/>
    </contour>
    <contour>
      <point x="564" y="786" type="line" smooth="yes"/>
      <point x="440" y="770" type="line" smooth="yes"/>
      <point x="318" y="716" type="line" smooth="yes"/>
      <point x="203" y="617" type="line" smooth="yes"/>
      <point x="123" y="502" type="line" smooth="yes"/>
      <point x="75" y="384" type="line" smooth="yes"/>
      <point x="50" y="265" type="line" smooth="yes"/>
      <point x="49" y="257" type="line" smooth="yes"/>
      <point x="64" y="113" type="line" smooth="yes"/>
      <point x="141" y="24" type="line" smooth="yes"/>
      <point x="262" y="-6" type="line" smooth="yes"/>
      <point x="386" y="21" type="line" smooth="yes"/>
      <point x="479" y="101" type="line" smooth="yes"/>
      <point x="526" y="228" type="line" smooth="yes"/>
      <point x="529" y="252" type="line" smooth="yes"/>
      <point x="513" y="379" type="line" smooth="yes"/>
      <point x="437" y="459" type="line" smooth="yes"/>
      <point x="318" y="486" type="line" smooth="yes"/>
      <point x="223" y="469" type="line" smooth="yes"/>
      <point x="147" y="425" type="line" smooth="yes"/>
      <point x="88" y="360" type="line" smooth="yes"/>
      <point x="117" y="442" type="line" smooth="yes"/>
      <point x="159" y="525" type="line" smooth="yes"/>
      <point x="217" y="605" type="line" smooth="yes"/>
      <point x="324" y="697" type="line" smooth="yes"/>
      <point x="442" y="750" type="line" smooth="yes"/>
      <point x="561" y="766" type="line" smooth="yes"/>
    </contour>
  </outline>
</glyph>
<glyph name="eight" format="1">
  <advance width="598"/>
  <unicode hex="0038"/>
  <outline>
    <contour>
      <point x="348" y="766" type="line" smooth="yes"/>
      <point x="451" y="745" type="line" smooth="yes"/>
      <point x="522" y="686" type="line" smooth="yes"/>
      <point x="541" y="592" type="line" smooth="yes"/>
      <point x="538" y="568" type="line" smooth="yes"/>
      <point x="503" y="481" type="line" smooth="yes"/>
      <point x="429" y="427" type="line" smooth="yes"/>
      <point x="325" y="408" type="line" smooth="yes"/>
      <point x="281" y="408" type="line" smooth="yes"/>
      <point x="181" y="427" type="line" smooth="yes"/>
      <point x="123" y="483" type="line" smooth="yes"/>
      <point x="112" y="574" type="line" smooth="yes"/>
      <point x="115" y="598" type="line" smooth="yes"/>
      <point x="152" y="688" type="line" smooth="yes"/>
      <point x="231" y="746" type="line" smooth="yes"/>
      <point x="340" y="766" type="line" smooth="yes"/>
    </contour>
    <contour>
      <point x="279" y="388" type="line" smooth="yes"/>
      <point x="325" y="388" type="line" smooth="yes"/>
      <point x="429" y="368" type="line" smooth="yes"/>
      <point x="487" y="309" type="line" smooth="yes"/>
      <point x="497" y="212" type="line" smooth="yes"/>
      <point x="494" y="188" type="line" smooth="yes"/>
      <point x="454" y="91" type="line" smooth="yes"/>
      <point x="373" y="33" type="line" smooth="yes"/>
      <point x="261" y="14" type="line" smooth="yes"/>
      <point x="253" y="14" type="line" smooth="yes"/>
      <point x="144" y="34" type="line" smooth="yes"/>
      <point x="74" y="95" type="line" smooth="yes"/>
      <point x="57" y="195" type="line" smooth="yes"/>
      <point x="60" y="219" type="line" smooth="yes"/>
      <point x="96" y="314" type="line" smooth="yes"/>
      <point x="170" y="370" type="line" smooth="yes"/>
    </contour>
    <contour>
      <point x="562" y="592" type="line" smooth="yes"/>
      <point x="541" y="697" type="line" smooth="yes"/>
      <point x="462" y="763" type="line" smooth="yes"/>
      <point x="344" y="786" type="line" smooth="yes"/>
      <point x="223" y="764" type="line" smooth="yes"/>
      <point x="135" y="701" type="line" smooth="yes"/>
      <point x="94" y="598" type="line" smooth="yes"/>
      <point x="91" y="574" type="line" smooth="yes"/>
      <point x="99" y="490" type="line" smooth="yes"/>
      <point x="141" y="430" type="line" smooth="yes"/>
      <point x="211" y="398" type="line" smooth="yes"/>
      <point x="128" y="369" type="line" smooth="yes"/>
      <point x="69" y="311" type="line" smooth="yes"/>
      <point x="39" y="219" type="line" smooth="yes"/>
      <point x="36" y="195" type="line" smooth="yes"/>
      <point x="56" y="83" type="line" smooth="yes"/>
      <point x="136" y="16" type="line" smooth="yes"/>
      <point x="257" y="-6" type="line" smooth="yes"/>
      <point x="380" y="14" type="line" smooth="yes"/>
      <point x="471" y="78" type="line" smooth="yes"/>
      <point x="515" y="188" type="line" smooth="yes"/>
      <point x="518" y="212" type="line" smooth="yes"/>
      <point x="509" y="307" type="line" smooth="yes"/>
      <point x="460" y="370" type="line" smooth="yes"/>
      <point x="380" y="398" type="line" smooth="yes"/>
      <point x="465" y="425" type="line" smooth="yes"/>
      <point x="528" y="482" type="line" smooth="yes"/>
      <point x="559" y="568" type="line" smooth="yes"/>
    </contour>
  </outline>
</glyph>
<glyph name="nine" format="1">
  <advance width="597"/>
  <unicode hex="0039"/>
  <outline>
    <contour>
      <point x="525" y="466" type="line" smooth="yes"/>
      <point x="468" y="390" type="line" smooth="yes"/>
      <point x="388" y="335" type="line" smooth="yes"/>
      <point x="290" y="314" type="line" smooth="yes"/>
      <point x="282" y="314" type="line" smooth="yes"/>
      <point x="175" y="340" type="line" smooth="yes"/>
      <point x="109" y="413" type="line" smooth="yes"/>
      <point x="96" y="528" type="line" smooth="yes"/>
      <point x="99" y="552" type="line" smooth="yes"/>
      <point x="141" y="666" type="line" smooth="yes"/>
      <point x="225" y="740" type="line" smooth="yes"/>
      <point x="338" y="766" type="line" smooth="yes"/>
      <point x="346" y="766" type="line" smooth="yes"/>
      <point x="446" y="742" type="line" smooth="yes"/>
      <point x="513" y="675" type="line" smooth="yes"/>
      <point x="538" y="570" type="line" smooth="yes"/>
      <point x="536" y="529" type="line" smooth="yes"/>
      <point x="531" y="493" type="line" smooth="yes"/>
    </contour>
    <contour>
      <point x="40" y="-6" type="line" smooth="yes"/>
      <point x="164" y="10" type="line" smooth="yes"/>
      <point x="286" y="64" type="line" smooth="yes"/>
      <point x="401" y="163" type="line" smooth="yes"/>
      <point x="481" y="278" type="line" smooth="yes"/>
      <point x="529" y="396" type="line" smooth="yes"/>
      <point x="554" y="515" type="line" smooth="yes"/>
      <point x="555" y="523" type="line" smooth="yes"/>
      <point x="540" y="667" type="line" smooth="yes"/>
      <point x="463" y="756" type="line" smooth="yes"/>
      <point x="342" y="786" type="line" smooth="yes"/>
      <point x="218" y="759" type="line" smooth="yes"/>
      <point x="125" y="679" type="line" smooth="yes"/>
      <point x="78" y="552" type="line" smooth="yes"/>
      <point x="75" y="528" type="line" smooth="yes"/>
      <point x="91" y="401" type="line" smooth="yes"/>
      <point x="167" y="321" type="line" smooth="yes"/>
      <point x="286" y="294" type="line" smooth="yes"/>
      <point x="381" y="311" type="line" smooth="yes"/>
      <point x="457" y="355" type="line" smooth="yes"/>
      <point x="516" y="420" type="line" smooth="yes"/>
      <point x="487" y="338" type="line" smooth="yes"/>
      <point x="445" y="255" type="line" smooth="yes"/>
      <point x="387" y="175" type="line" smooth="yes"/>
      <point x="280" y="83" type="line" smooth="yes"/>
      <point x="162" y="30" type="line" smooth="yes"/>
      <point x="43" y="14" type="line" smooth="yes"/>
    </contour>
  </outline>
</glyph>
<glyph name="semicolon" format="1">
  <advance width="180"/>
  <unicode hex="003B"/>
  <outline>
    <contour>
      <point x="66" y="40" type="line" smooth="yes"/>
      <point x="26" y="40" type="line" smooth="yes"/>
      <point x="21" y="0" type="line" smooth="yes"/>
      <point x="41" y="0" type="line" smooth="yes"/>
      <point x="25" y="-51" type="line" smooth="yes"/>
      <point x="-2" y="-78" type="line" smooth="yes"/>
      <point x="-36" y="-85" type="line" smooth="yes"/>
      <point x="-38" y="-105" type="line" smooth="yes"/>
      <point x="8" y="-93" type="line" smooth="yes"/>
      <point x="43" y="-55" type="line" smooth="yes"/>
      <point x="62" y="8" type="line" smooth="yes"/>
    </contour>
    <contour>
      <point x="114" y="410" type="line" smooth="yes"/>
      <point x="74" y="410" type="line" smooth="yes"/>
      <point x="69" y="370" type="line" smooth="yes"/>
      <point x="109" y="370" type="line" smooth="yes"/>
    </contour>
  </outline>
</glyph>
<glyph name="equal" format="1">
  <advance width="600"/>
  <unicode hex="003D"/>
  <outline>
    <contour>
      <point x="37" y="280" type="line" smooth="yes"/>
      <point x="536" y="280" type="line" smooth="yes"/>
      <point x="539" y="300" type="line" smooth="yes"/>
      <point x="40" y="300" type="line" smooth="yes"/>
    </contour>
    <contour>
      <point x="63" y="480" type="line" smooth="yes"/>
      <point x="562" y="480" type="line" smooth="yes"/>
      <point x="565" y="500" type="line" smooth="yes"/>
      <point x="66" y="500" type="line" smooth="yes"/>
    </contour>
  </outline>
</glyph>
<glyph name="question" format="1">
  <advance width="440"/>
  <unicode hex="003F"/>
  <outline>
    <contour>
      <point x="196" y="40" type="line" smooth="yes"/>
      <point x="156" y="40" type="line" smooth="yes"/>
      <point x="151" y="0" type="line" smooth="yes"/>
      <point x="191" y="0" type="line" smooth="yes"/>
    </contour>
    <contour>
      <point x="270" y="786" type="line" smooth="yes"/>
      <point x="161" y="752" type="line" smooth="yes"/>
      <point x="89" y="660" type="line" smooth="yes"/>
      <point x="52" y="524" type="line" smooth="yes"/>
      <point x="49" y="500" type="line" smooth="yes"/>
      <point x="69" y="500" type="line" smooth="yes"/>
      <point x="104" y="643" type="line" smooth="yes"/>
      <point x="170" y="734" type="line" smooth="yes"/>
      <point x="270" y="766" type="line" smooth="yes"/>
      <point x="353" y="744" type="line" smooth="yes"/>
      <point x="398" y="689" type="line" smooth="yes"/>
      <point x="411" y="615" type="line" smooth="yes"/>
      <point x="358" y="464" type="line" smooth="yes"/>
      <point x="255" y="341" type="line" smooth="yes"/>
      <point x="187" y="175" type="line" smooth="yes"/>
      <point x="201" y="175" type="line" smooth="yes"/>
      <point x="273" y="335" type="line" smooth="yes"/>
      <point x="378" y="459" type="line" smooth="yes"/>
      <point x="432" y="614" type="line" smooth="yes"/>
      <point x="416" y="700" type="line" smooth="yes"/>
      <point x="364" y="762" type="line" smooth="yes"/>
    </contour>
  </outline>
</glyph>
<glyph name="at" format="1">
  <advance width="926"/>
  <unicode hex="0040"/>
  <outline>
    <contour>
      <point x="619" y="423" type="line" smooth="yes"/>
      <point x="585" y="171" type="line" smooth="yes"/>
      <point x="542" y="123" type="line" smooth="yes"/>
      <point x="486" y="88" type="line" smooth="yes"/>
      <point x="414" y="74" type="line" smooth="yes"/>
      <point x="325" y="95" type="line" smooth="yes"/>
      <point x="266" y="163" type="line" smooth="yes"/>
      <point x="255" y="283" type="line" smooth="yes"/>
      <point x="258" y="307" type="line" smooth="yes"/>
      <point x="299" y="427" type="line" smooth="yes"/>
      <point x="374" y="495" type="line" smooth="yes"/>
      <point x="464" y="516" type="line" smooth="yes"/>
      <point x="538" y="501" type="line" smooth="yes"/>
      <point x="589" y="465" type="line" smooth="yes"/>
    </contour>
    <contour>
      <point x="418" y="-186" type="line" smooth="yes"/>
      <point x="203" y="-129" type="line" smooth="yes"/>
      <point x="69" y="31" type="line" smooth="yes"/>
      <point x="42" y="278" type="line" smooth="yes"/>
      <point x="45" y="302" type="line" smooth="yes"/>
      <point x="128" y="549" type="line" smooth="yes"/>
      <point x="293" y="709" type="line" smooth="yes"/>
      <point x="517" y="766" type="line" smooth="yes"/>
      <point x="523" y="766" type="line" smooth="yes"/>
      <point x="714" y="723" type="line" smooth="yes"/>
      <point x="845" y="595" type="line" smooth="yes"/>
      <point x="876" y="382" type="line" smooth="yes"/>
      <point x="873" y="358" type="line" smooth="yes"/>
      <point x="819" y="185" type="line" smooth="yes"/>
      <point x="723" y="102" type="line" smooth="yes"/>
      <point x="598" y="80" type="line" smooth="yes"/>
      <point x="607" y="180" type="line" smooth="yes"/>
      <point x="637" y="408" type="line" smooth="yes"/>
      <point x="658" y="530" type="line" smooth="yes"/>
      <point x="643" y="530" type="line" smooth="yes"/>
      <point x="625" y="447" type="line" smooth="yes"/>
      <point x="593" y="489" type="line" smooth="yes"/>
      <point x="540" y="522" type="line" smooth="yes"/>
      <point x="464" y="536" type="line" smooth="yes"/>
      <point x="364" y="513" type="line" smooth="yes"/>
      <point x="282" y="438" type="line" smooth="yes"/>
      <point x="238" y="307" type="line" smooth="yes"/>
      <point x="235" y="283" type="line" smooth="yes"/>
      <point x="248" y="152" type="line" smooth="yes"/>
      <point x="313" y="77" type="line" smooth="yes"/>
      <point x="414" y="54" type="line" smooth="yes"/>
      <point x="490" y="69" type="line" smooth="yes"/>
      <point x="549" y="103" type="line" smooth="yes"/>
      <point x="585" y="144" type="line" smooth="yes"/>
      <point x="581" y="60" type="line" smooth="yes"/>
      <point x="586" y="60" type="line" smooth="yes"/>
      <point x="728" y="84" type="line" smooth="yes"/>
      <point x="835" y="174" type="line" smooth="yes"/>
      <point x="893" y="358" type="line" smooth="yes"/>
      <point x="896" y="382" type="line" smooth="yes"/>
      <point x="864" y="602" type="line" smooth="yes"/>
      <point x="727" y="739" type="line" smooth="yes"/>
      <point x="520" y="786" type="line" smooth="yes"/>
      <point x="287" y="728" type="line" smooth="yes"/>
      <point x="114" y="563" type="line" smooth="yes"/>
      <point x="25" y="302" type="line" smooth="yes"/>
      <point x="22" y="278" type="line" smooth="yes"/>
      <point x="51" y="24" type="line" smooth="yes"/>
      <point x="192" y="-145" type="line" smooth="yes"/>
      <point x="421" y="-206" type="line" smooth="yes"/>
      <point x="537" y="-198" type="line" smooth="yes"/>
      <point x="652" y="-167" type="line" smooth="yes"/>
      <point x="771" y="-103" type="line" smooth="yes"/>
      <point x="761" y="-87" type="line" smooth="yes"/>
      <point x="649" y="-147" type="line" smooth="yes"/>
      <point x="539" y="-177" type="line" smooth="yes"/>
      <point x="424" y="-186" type="line" smooth="yes"/>
    </contour>
  </outline>
</glyph>
<glyph name="A" format="1">
  <advance width="590"/>
  <unicode hex="0041"/>
  <outline>
    <contour>
      <point x="347" y="760" type="line" smooth="yes"/>
      <point x="440" y="250" type="line" smooth="yes"/>
      <point x="119" y="250" type="line" smooth="yes"/>
    </contour>
    <contour>
      <point x="340" y="790" type="line" smooth="yes"/>
      <point x="-14" y="0" type="line" smooth="yes"/>
      <point x="8" y="0" type="line" smooth="yes"/>
      <point x="110" y="230" type="line" smooth="yes"/>
      <point x="444" y="230" type="line" smooth="yes"/>
      <point x="486" y="0" type="line" smooth="yes"/>
      <point x="506" y="0" type="line" smooth="yes"/>
      <point x="360" y="790" type="line" smooth="yes"/>
    </contour>
  </outline>
</glyph>
<glyph name="J" format="1">
  <advance width="470"/>
  <unicode hex="004A"/>
  <outline>
    <contour>
      <point x="426" y="780" type="line" smooth="yes"/>
      <point x="356" y="245" type="line" smooth="yes"/>
      <point x="325" y="116" type="line" smooth="yes"/>
      <point x="266" y="39" type="line" smooth="yes"/>
      <point x="167" y="14" type="line" smooth="yes"/>
      <point x="74" y="41" type="line" smooth="yes"/>
      <point x="32" y="119" type="line" smooth="yes"/>
      <point x="36" y="247" type="line" smooth="yes"/>
      <point x="16" y="247" type="line" smooth="yes"/>
      <point x="13" y="223" type="line" smooth="yes"/>
      <point x="15" y="104" type="line" smooth="yes"/>
      <point x="63" y="23" type="line" smooth="yes"/>
      <point x="167" y="-6" type="line" smooth="yes"/>
      <point x="276" y="22" type="line" smooth="yes"/>
      <point x="342" y="102" type="line" smooth="yes"/>
      <point x="373" y="223" type="line" smooth="yes"/>
      <point x="446" y="780" type="line" smooth="yes"/>
    </contour>
  </outline>
</glyph>
<glyph name="N" format="1">
  <advance width="640"/>
  <unicode hex="004E"/>
  <outline>
    <contour>
      <point x="496" y="32" type="line" smooth="yes"/>
      <point x="155" y="780" type="line" smooth="yes"/>
      <point x="133" y="780" type="line" smooth="yes"/>
      <point x="31" y="0" type="line" smooth="yes"/>
      <point x="51" y="0" type="line" smooth="yes"/>
      <point x="130" y="605" type="line" smooth="yes"/>
      <point x="148" y="748" type="line" smooth="yes"/>
      <point x="489" y="0" type="line" smooth="yes"/>
      <point x="511" y="0" type="line" smooth="yes"/>
      <point x="613" y="780" type="line" smooth="yes"/>
      <point x="593" y="780" type="line" smooth="yes"/>
      <point x="514" y="175" type="line" smooth="yes"/>
    </contour>
  </outline>
</glyph>
<glyph name="P" format="1">
  <advance width="541"/>
  <unicode hex="0050"/>
  <outline>
    <contour>
      <point x="98" y="360" type="line" smooth="yes"/>
      <point x="150" y="760" type="line" smooth="yes"/>
      <point x="320" y="760" type="line" smooth="yes"/>
      <point x="407" y="746" type="line" smooth="yes"/>
      <point x="480" y="690" type="line" smooth="yes"/>
      <point x="499" y="569" type="line" smooth="yes"/>
      <point x="496" y="545" type="line" smooth="yes"/>
      <point x="447" y="425" type="line" smooth="yes"/>
      <point x="361" y="372" type="line" smooth="yes"/>
      <point x="270" y="360" type="line" smooth="yes"/>
    </contour>
    <contour>
      <point x="96" y="340" type="line" smooth="yes"/>
      <point x="270" y="340" type="line" smooth="yes"/>
      <point x="376" y="356" type="line" smooth="yes"/>
      <point x="467" y="418" type="line" smooth="yes"/>
      <point x="517" y="545" type="line" smooth="yes"/>
      <point x="520" y="569" type="line" smooth="yes"/>
      <point x="502" y="696" type="line" smooth="yes"/>
      <point x="426" y="761" type="line" smooth="yes"/>
      <point x="320" y="780" type="line" smooth="yes"/>
      <point x="133" y="780" type="line" smooth="yes"/>
      <point x="31" y="0" type="line" smooth="yes"/>
      <point x="51" y="0" type="line" smooth="yes"/>
    </contour>
  </outline>
</glyph>
<glyph name="Q" format="1">
  <advance width="617"/>
  <unicode hex="0051"/>
  <outline>
    <contour>
      <point x="269" y="14" type="line" smooth="yes"/>
      <point x="147" y="51" type="line" smooth="yes"/>
      <point x="85" y="168" type="line" smooth="yes"/>
      <point x="86" y="378" type="line" smooth="yes"/>
      <point x="89" y="402" type="line" smooth="yes"/>
      <point x="140" y="614" type="line" smooth="yes"/>
      <point x="228" y="730" type="line" smooth="yes"/>
      <point x="358" y="766" type="line" smooth="yes"/>
      <point x="364" y="766" type="line" smooth="yes"/>
      <point x="486" y="729" type="line" smooth="yes"/>
      <point x="548" y="612" type="line" smooth="yes"/>
      <point x="547" y="402" type="line" smooth="yes"/>
      <point x="544" y="378" type="line" smooth="yes"/>
      <point x="505" y="197" type="line" smooth="yes"/>
      <point x="441" y="82" type="line" smooth="yes"/>
      <point x="351" y="24" type="line" smooth="yes"/>
      <point x="307" y="205" type="line" smooth="yes"/>
      <point x="287" y="205" type="line" smooth="yes"/>
      <point x="332" y="20" type="line" smooth="yes"/>
      <point x="314" y="17" type="line" smooth="yes"/>
      <point x="295" y="15" type="line" smooth="yes"/>
      <point x="275" y="14" type="line" smooth="yes"/>
    </contour>
    <contour>
      <point x="361" y="786" type="line" smooth="yes"/>
      <point x="219" y="748" type="line" smooth="yes"/>
      <point x="123" y="625" type="line" smooth="yes"/>
      <point x="68" y="402" type="line" smooth="yes"/>
      <point x="65" y="378" type="line" smooth="yes"/>
      <point x="66" y="158" type="line" smooth="yes"/>
      <point x="137" y="34" type="line" smooth="yes"/>
      <point x="272" y="-6" type="line" smooth="yes"/>
      <point x="295" y="-5" type="line" smooth="yes"/>
      <point x="316" y="-3" type="line" smooth="yes"/>
      <point x="337" y="0" type="line" smooth="yes"/>
      <point x="362" y="-100" type="line" smooth="yes"/>
      <point x="382" y="-100" type="line" smooth="yes"/>
      <point x="356" y="5" type="line" smooth="yes"/>
      <point x="454" y="66" type="line" smooth="yes"/>
      <point x="523" y="188" type="line" smooth="yes"/>
      <point x="565" y="378" type="line" smooth="yes"/>
      <point x="568" y="402" type="line" smooth="yes"/>
      <point x="567" y="622" type="line" smooth="yes"/>
      <point x="496" y="746" type="line" smooth="yes"/>
    </contour>
  </outline>
</glyph>
<glyph name="S" format="1">
  <advance width="576"/>
  <unicode hex="0053"/>
  <outline>
    <contour>
      <point x="289" y="395" type="line" smooth="yes"/>
      <point x="412" y="360" type="line" smooth="yes"/>
      <point x="476" y="296" type="line" smooth="yes"/>
      <point x="486" y="198" type="line" smooth="yes"/>
      <point x="483" y="174" type="line" smooth="yes"/>
      <point x="444" y="81" type="line" smooth="yes"/>
      <point x="362" y="30" type="line" smooth="yes"/>
      <point x="249" y="14" type="line" smooth="yes"/>
      <point x="243" y="14" type="line" smooth="yes"/>
      <point x="122" y="39" type="line" smooth="yes"/>
      <point x="58" y="117" type="line" smooth="yes"/>
      <point x="53" y="250" type="line" smooth="yes"/>
      <point x="33" y="250" type="line" smooth="yes"/>
      <point x="30" y="226" type="line" smooth="yes"/>
      <point x="41" y="101" type="line" smooth="yes"/>
      <point x="112" y="22" type="line" smooth="yes"/>
      <point x="246" y="-6" type="line" smooth="yes"/>
      <point x="369" y="11" type="line" smooth="yes"/>
      <point x="460" y="67" type="line" smooth="yes"/>
      <point x="504" y="174" type="line" smooth="yes"/>
      <point x="507" y="198" type="line" smooth="yes"/>
      <point x="497" y="300" type="line" smooth="yes"/>
      <point x="432" y="374" type="line" smooth="yes"/>
      <point x="301" y="414" type="line" smooth="yes"/>
      <point x="176" y="447" type="line" smooth="yes"/>
      <point x="114" y="503" type="line" smooth="yes"/>
      <point x="103" y="586" type="line" smooth="yes"/>
      <point x="106" y="610" type="line" smooth="yes"/>
      <point x="145" y="696" type="line" smooth="yes"/>
      <point x="225" y="748" type="line" smooth="yes"/>
      <point x="331" y="766" type="line" smooth="yes"/>
      <point x="337" y="766" type="line" smooth="yes"/>
      <point x="454" y="742" type="line" smooth="yes"/>
      <point x="518" y="663" type="line" smooth="yes"/>
      <point x="524" y="520" type="line" smooth="yes"/>
      <point x="544" y="520" type="line" smooth="yes"/>
      <point x="547" y="544" type="line" smooth="yes"/>
      <point x="536" y="675" type="line" smooth="yes"/>
      <point x="466" y="757" type="line" smooth="yes"/>
      <point x="334" y="786" type="line" smooth="yes"/>
      <point x="215" y="767" type="line" smooth="yes"/>
      <point x="127" y="710" type="line" smooth="yes"/>
      <point x="85" y="610" type="line" smooth="yes"/>
      <point x="82" y="586" type="line" smooth="yes"/>
      <point x="93" y="498" type="line" smooth="yes"/>
      <point x="158" y="433" type="line" smooth="yes"/>
    </contour>
  </outline>
</glyph>
<glyph name="bracketright" format="1">
  <advance width="300"/>
  <unicode hex="005D"/>
  <outline>
    <contour>
      <point x="155" y="-120" type="line" smooth="yes"/>
      <point x="281" y="840" type="line" smooth="yes"/>
      <point x="111" y="840" type="line" smooth="yes"/>
      <point x="108" y="820" type="line" smooth="yes"/>
      <point x="258" y="820" type="line" smooth="yes"/>
      <point x="138" y="-100" type="line" smooth="yes"/>
      <point x="-12" y="-100" type="line" smooth="yes"/>
      <point x="-15" y="-120" type="line" smooth="yes"/>
    </contour>
  </outline>
</glyph>
<glyph name="asciicircum" format="1">
  <advance width="600"/>
  <unicode hex="005E"/>
  <outline>
    <contour>
      <point x="363" y="780" type="line" smooth="yes"/>
      <point x="343" y="780" type="line" smooth="yes"/>
      <point x="31" y="280" type="line" smooth="yes"/>
      <point x="54" y="280" type="line" smooth="yes"/>
      <point x="352" y="759" type="line" smooth="yes"/>
      <point x="522" y="280" type="line" smooth="yes"/>
      <point x="543" y="280" type="line" smooth="yes"/>
    </contour>
  </outline>
</glyph>
<glyph name="b" format="1">
  <advance width="506"/>
  <unicode hex="0062"/>
  <outline>
    <contour>
      <point x="96" y="419" type="line" smooth="yes"/>
      <point x="139" y="467" type="line" smooth="yes"/>
      <point x="196" y="502" type="line" smooth="yes"/>
      <point x="269" y="516" type="line" smooth="yes"/>
      <point x="367" y="487" type="line" smooth="yes"/>
      <point x="418" y="405" type="line" smooth="yes"/>
      <point x="422" y="277" type="line" smooth="yes"/>
      <point x="419" y="253" type="line" smooth="yes"/>
      <point x="383" y="125" type="line" smooth="yes"/>
      <point x="313" y="43" type="line" smooth="yes"/>
      <point x="208" y="14" type="line" smooth="yes"/>
      <point x="135" y="29" type="line" smooth="yes"/>
      <point x="85" y="65" type="line" smooth="yes"/>
      <point x="55" y="107" type="line" smooth="yes"/>
    </contour>
    <contour>
      <point x="146" y="800" type="line" smooth="yes"/>
      <point x="126" y="800" type="line" smooth="yes"/>
      <point x="37" y="122" type="line" smooth="yes"/>
      <point x="16" y="0" type="line" smooth="yes"/>
      <point x="31" y="0" type="line" smooth="yes"/>
      <point x="49" y="83" type="line" smooth="yes"/>
      <point x="81" y="41" type="line" smooth="yes"/>
      <point x="133" y="8" type="line" smooth="yes"/>
      <point x="208" y="-6" type="line" smooth="yes"/>
      <point x="323" y="25" type="line" smooth="yes"/>
      <point x="400" y="114" type="line" smooth="yes"/>
      <point x="439" y="253" type="line" smooth="yes"/>
      <point x="442" y="277" type="line" smooth="yes"/>
      <point x="436" y="416" type="line" smooth="yes"/>
      <point x="378" y="505" type="line" smooth="yes"/>
      <point x="269" y="536" type="line" smooth="yes"/>
      <point x="194" y="523" type="line" smooth="yes"/>
      <point x="138" y="490" type="line" smooth="yes"/>
      <point x="100" y="450" type="line" smooth="yes"/>
    </contour>
  </outline>
</glyph>
<glyph name="n" format="1">
  <advance width="488"/>
  <unicode hex="006E"/>
  <outline>
    <contour>
      <point x="381" y="0" type="line" smooth="yes"/>
      <point x="431" y="381" type="line" smooth="yes"/>
      <point x="421" y="470" type="line" smooth="yes"/>
      <point x="369" y="520" type="line" smooth="yes"/>
      <point x="283" y="536" type="line" smooth="yes"/>
      <point x="198" y="521" type="line" smooth="yes"/>
      <point x="137" y="487" type="line" smooth="yes"/>
      <point x="96" y="444" type="line" smooth="yes"/>
      <point x="101" y="530" type="line" smooth="yes"/>
      <point x="85" y="530" type="line" smooth="yes"/>
      <point x="75" y="412" type="line" smooth="yes"/>
      <point x="21" y="0" type="line" smooth="yes"/>
      <point x="41" y="0" type="line" smooth="yes"/>
      <point x="96" y="419" type="line" smooth="yes"/>
      <point x="138" y="463" type="line" smooth="yes"/>
      <point x="199" y="500" type="line" smooth="yes"/>
      <point x="283" y="516" type="line" smooth="yes"/>
      <point x="357" y="503" type="line" smooth="yes"/>
      <point x="402" y="457" type="line" smooth="yes"/>
      <point x="410" y="374" type="line" smooth="yes"/>
      <point x="361" y="0" type="line" smooth="yes"/>
    </contour>
  </outline>
</glyph>
<glyph name="q" format="1">
  <advance width="510"/>
  <unicode hex="0071"/>
  <outline>
    <contour>
      <point x="385" y="111" type="line" smooth="yes"/>
      <point x="342" y="63" type="line" smooth="yes"/>
      <point x="285" y="28" type="line" smooth="yes"/>
      <point x="212" y="14" type="line" smooth="yes"/>
      <point x="114" y="43" type="line" smooth="yes"/>
      <point x="63" y="125" type="line" smooth="yes"/>
      <point x="59" y="253" type="line" smooth="yes"/>
      <point x="62" y="277" type="line" smooth="yes"/>
      <point x="98" y="405" type="line" smooth="yes"/>
      <point x="168" y="487" type="line" smooth="yes"/>
      <point x="273" y="516" type="line" smooth="yes"/>
      <point x="346" y="501" type="line" smooth="yes"/>
      <point x="396" y="465" type="line" smooth="yes"/>
      <point x="426" y="423" type="line" smooth="yes"/>
    </contour>
    <contour>
      <point x="344" y="-200" type="line" smooth="yes"/>
      <point x="364" y="-200" type="line" smooth="yes"/>
      <point x="444" y="408" type="line" smooth="yes"/>
      <point x="465" y="530" type="line" smooth="yes"/>
      <point x="450" y="530" type="line" smooth="yes"/>
      <point x="432" y="447" type="line" smooth="yes"/>
      <point x="400" y="489" type="line" smooth="yes"/>
      <point x="348" y="522" type="line" smooth="yes"/>
      <point x="273" y="536" type="line" smooth="yes"/>
      <point x="158" y="505" type="line" smooth="yes"/>
      <point x="81" y="416" type="line" smooth="yes"/>
      <point x="42" y="277" type="line" smooth="yes"/>
      <point x="39" y="253" type="line" smooth="yes"/>
      <point x="45" y="114" type="line" smooth="yes"/>
      <point x="103" y="25" type="line" smooth="yes"/>
      <point x="212" y="-6" type="line" smooth="yes"/>
      <point x="287" y="7" type="line" smooth="yes"/>
      <point x="343" y="40" type="line" smooth="yes"/>
      <point x="381" y="80" type="line" smooth="yes"/>
    </contour>
  </outline>
</glyph>
<glyph name="r" format="1">
  <advance width="297"/>
  <unicode hex="0072"/>
  <outline>
    <contour>
      <point x="261" y="536" type="line" smooth="yes"/>
      <point x="189" y="522" type="line" smooth="yes"/>
      <point x="133" y="487" type="line" smooth="yes"/>
      <point x="96" y="444" type="line" smooth="yes"/>
      <point x="101" y="530" type="line" smooth="yes"/>
      <point x="85" y="530" type="line" smooth="yes"/>
      <point x="75" y="412" type="line" smooth="yes"/>
      <point x="21" y="0" type="line" smooth="yes"/>
      <point x="41" y="0" type="line" smooth="yes"/>
      <point x="96" y="419" type="line" smooth="yes"/>
      <point x="131" y="461" type="line" smooth="yes"/>
      <point x="187" y="500" type="line" smooth="yes"/>
      <point x="264" y="516" type="line" smooth="yes"/>
      <point x="273" y="516" type="line" smooth="yes"/>
      <point x="276" y="535" type="line" smooth="yes"/>
      <point x="274" y="535" type="line" smooth="yes"/>
      <point x="269" y="536" type="line" smooth="yes"/>
    </contour>
  </outline>
</glyph>
<glyph name="braceleft" format="1">
  <advance width="300"/>
  <unicode hex="007B"/>
  <outline>
    <contour>
      <point x="311" y="840" type="line" smooth="yes"/>
      <point x="307" y="840" type="line" smooth="yes"/>
      <point x="246" y="832" type="line" smooth="yes"/>
      <point x="197" y="795" type="line" smooth="yes"/>
      <point x="170" y="715" type="line" smooth="yes"/>
      <point x="137" y="464" type="line" smooth="yes"/>
      <point x="118" y="404" type="line" smooth="yes"/>
      <point x="82" y="377" type="line" smooth="yes"/>
      <point x="34" y="370" type="line" smooth="yes"/>
      <point x="31" y="350" type="line" smooth="yes"/>
      <point x="77" y="344" type="line" smooth="yes"/>
      <point x="106" y="317" type="line" smooth="yes"/>
      <point x="110" y="258" type="line" smooth="yes"/>
      <point x="77" y="7" type="line" smooth="yes"/>
      <point x="83" y="-73" type="line" smooth="yes"/>
      <point x="122" y="-110" type="line" smooth="yes"/>
      <point x="181" y="-120" type="line" smooth="yes"/>
      <point x="185" y="-120" type="line" smooth="yes"/>
      <point x="188" y="-100" type="line" smooth="yes"/>
      <point x="134" y="-92" type="line" smooth="yes"/>
      <point x="101" y="-60" type="line" smooth="yes"/>
      <point x="97" y="10" type="line" smooth="yes"/>
      <point x="129" y="257" type="line" smooth="yes"/>
      <point x="128" y="310" type="line" smooth="yes"/>
      <point x="112" y="343" type="line" smooth="yes"/>
      <point x="83" y="360" type="line" smooth="yes"/>
      <point x="116" y="376" type="line" smooth="yes"/>
      <point x="141" y="409" type="line" smooth="yes"/>
      <point x="156" y="463" type="line" smooth="yes"/>
      <point x="189" y="710" type="line" smooth="yes"/>
      <point x="212" y="782" type="line" smooth="yes"/>
      <point x="252" y="813" type="line" smooth="yes"/>
      <point x="308" y="820" type="line" smooth="yes"/>
    </contour>
  </outline>
</glyph>
<glyph name="braceright" format="1">
  <advance width="300"/>
  <unicode hex="007D"/>
  <outline>
    <contour>
      <point x="-15" y="-120" type="line" smooth="yes"/>
      <point x="-11" y="-120" type="line" smooth="yes"/>
      <point x="50" y="-112" type="line" smooth="yes"/>
      <point x="99" y="-75" type="line" smooth="yes"/>
      <point x="126" y="5" type="line" smooth="yes"/>
      <point x="159" y="256" type="line" smooth="yes"/>
      <point x="178" y="316" type="line" smooth="yes"/>
      <point x="214" y="343" type="line" smooth="yes"/>
      <point x="262" y="350" type="line" smooth="yes"/>
      <point x="265" y="370" type="line" smooth="yes"/>
      <point x="219" y="376" type="line" smooth="yes"/>
      <point x="190" y="403" type="line" smooth="yes"/>
      <point x="186" y="462" type="line" smooth="yes"/>
      <point x="219" y="713" type="line" smooth="yes"/>
      <point x="213" y="793" type="line" smooth="yes"/>
      <point x="174" y="830" type="line" smooth="yes"/>
      <point x="115" y="840" type="line" smooth="yes"/>
      <point x="111" y="840" type="line" smooth="yes"/>
      <point x="108" y="820" type="line" smooth="yes"/>
      <point x="162" y="812" type="line" smooth="yes"/>
      <point x="195" y="780" type="line" smooth="yes"/>
      <point x="199" y="710" type="line" smooth="yes"/>
      <point x="167" y="463" type="line" smooth="yes"/>
      <point x="168" y="410" type="line" smooth="yes"/>
      <point x="184" y="377" type="line" smooth="yes"/>
      <point x="213" y="360" type="line" smooth="yes"/>
      <point x="180" y="344" type="line" smooth="yes"/>
      <point x="155" y="311" type="line" smooth="yes"/>
      <point x="140" y="257" type="line" smooth="yes"/>
      <point x="107" y="10" type="line" smooth="yes"/>
      <point x="84" y="-62" type="line" smooth="yes"/>
      <point x="44" y="-93" type="line" smooth="yes"/>
      <point x="-12" y="-100" type="line" smooth="yes"/>
    </contour>
  </outline>
</glyph>
<glyph name="asciitilde" format="1">
  <advance width="600"/>
  <unicode hex="007E"/>
  <outline>
    <contour>
      <point x="424" y="354" type="line" smooth="yes"/>
      <point x="338" y="375" type="line" smooth="yes"/>
      <point x="267" y="415" type="line" smooth="yes"/>
      <point x="177" y="436" type="line" smooth="yes"/>
      <point x="114" y="422" type="line" smooth="yes"/>
      <point x="68" y="394" type="line" smooth="yes"/>
      <point x="43" y="370" type="line" smooth="yes"/>
      <point x="57" y="356" type="line" smooth="yes"/>
      <point x="82" y="380" type="line" smooth="yes"/>
      <point x="123" y="404" type="line" smooth="yes"/>
      <point x="177" y="416" type="line" smooth="yes"/>
      <point x="263" y="395" type="line" smooth="yes"/>
      <point x="334" y="355" type="line" smooth="yes"/>
      <point x="424" y="334" type="line" smooth="yes"/>
      <point x="487" y="348" type="line" smooth="yes"/>
      <point x="533" y="376" type="line" smooth="yes"/>
      <point x="558" y="400" type="line" smooth="yes"/>
      <point x="544" y="414" type="line" smooth="yes"/>
      <point x="519" y="390" type="line" smooth="yes"/>
      <point x="478" y="366" type="line" smooth="yes"/>
    </contour>
  </outline>
</glyph>
<glyph name="cent" format="1">
  <advance width="597"/>
  <unicode hex="00A2"/>
  <outline>
    <contour>
      <point x="97" y="402" type="line" smooth="yes"/>
      <point x="144" y="569" type="line" smooth="yes"/>
      <point x="232" y="668" type="line" smooth="yes"/>
      <point x="355" y="700" type="line" smooth="yes"/>
      <point x="361" y="700" type="line" smooth="yes"/>
      <point x="375" y="700" type="line" smooth="yes"/>
      <point x="389" y="699" type="line" smooth="yes"/>
      <point x="401" y="697" type="line" smooth="yes"/>
      <point x="180" y="100" type="line" smooth="yes"/>
      <point x="121" y="156" type="line" smooth="yes"/>
      <point x="92" y="249" type="line" smooth="yes"/>
      <point x="94" y="378" type="line" smooth="yes"/>
    </contour>
    <contour>
      <point x="475" y="840" type="line" smooth="yes"/>
      <point x="455" y="840" type="line" smooth="yes"/>
      <point x="409" y="716" type="line" smooth="yes"/>
      <point x="393" y="718" type="line" smooth="yes"/>
      <point x="375" y="720" type="line" smooth="yes"/>
      <point x="358" y="720" type="line" smooth="yes"/>
      <point x="221" y="684" type="line" smooth="yes"/>
      <point x="127" y="578" type="line" smooth="yes"/>
      <point x="77" y="402" type="line" smooth="yes"/>
      <point x="74" y="378" type="line" smooth="yes"/>
      <point x="72" y="239" type="line" smooth="yes"/>
      <point x="104" y="140" type="line" smooth="yes"/>
      <point x="172" y="80" type="line" smooth="yes"/>
      <point x="121" y="-60" type="line" smooth="yes"/>
      <point x="141" y="-60" type="line" smooth="yes"/>
      <point x="190" y="73" type="line" smooth="yes"/>
      <point x="216" y="66" type="line" smooth="yes"/>
      <point x="245" y="61" type="line" smooth="yes"/>
      <point x="275" y="60" type="line" smooth="yes"/>
      <point x="398" y="85" type="line" smooth="yes"/>
      <point x="475" y="152" type="line" smooth="yes"/>
      <point x="510" y="254" type="line" smooth="yes"/>
      <point x="513" y="278" type="line" smooth="yes"/>
      <point x="493" y="278" type="line" smooth="yes"/>
      <point x="457" y="164" type="line" smooth="yes"/>
      <point x="384" y="100" type="line" smooth="yes"/>
      <point x="278" y="80" type="line" smooth="yes"/>
      <point x="272" y="80" type="line" smooth="yes"/>
      <point x="244" y="81" type="line" smooth="yes"/>
      <point x="219" y="85" type="line" smooth="yes"/>
      <point x="197" y="92" type="line" smooth="yes"/>
      <point x="420" y="693" type="line" smooth="yes"/>
      <point x="489" y="656" type="line" smooth="yes"/>
      <point x="523" y="586" type="line" smooth="yes"/>
      <point x="520" y="481" type="line" smooth="yes"/>
      <point x="540" y="481" type="line" smooth="yes"/>
      <point x="543" y="505" type="line" smooth="yes"/>
      <point x="540" y="604" type="line" smooth="yes"/>
      <point x="502" y="673" type="line" smooth="yes"/>
      <point x="427" y="712" type="line" smooth="yes"/>
    </contour>
  </outline>
</glyph>
<glyph name="sterling" format="1">
  <advance width="596"/>
  <unicode hex="00A3"/>
  <outline>
    <contour>
      <point x="378" y="766" type="line" smooth="yes"/>
      <point x="478" y="737" type="line" smooth="yes"/>
      <point x="533" y="650" type="line" smooth="yes"/>
      <point x="536" y="500" type="line" smooth="yes"/>
      <point x="556" y="500" type="line" smooth="yes"/>
      <point x="559" y="524" type="line" smooth="yes"/>
      <point x="551" y="666" type="line" smooth="yes"/>
      <point x="489" y="755" type="line" smooth="yes"/>
      <point x="378" y="786" type="line" smooth="yes"/>
      <point x="247" y="749" type="line" smooth="yes"/>
      <point x="174" y="655" type="line" smooth="yes"/>
      <point x="151" y="530" type="line" smooth="yes"/>
      <point x="152" y="483" type="line" smooth="yes"/>
      <point x="156" y="440" type="line" smooth="yes"/>
      <point x="161" y="400" type="line" smooth="yes"/>
      <point x="63" y="400" type="line" smooth="yes"/>
      <point x="60" y="380" type="line" smooth="yes"/>
      <point x="164" y="380" type="line" smooth="yes"/>
      <point x="180" y="264" type="line" smooth="yes"/>
      <point x="192" y="144" type="line" smooth="yes"/>
      <point x="190" y="20" type="line" smooth="yes"/>
      <point x="14" y="20" type="line" smooth="yes"/>
      <point x="11" y="0" type="line" smooth="yes"/>
      <point x="491" y="0" type="line" smooth="yes"/>
      <point x="494" y="20" type="line" smooth="yes"/>
      <point x="210" y="20" type="line" smooth="yes"/>
      <point x="214" y="142" type="line" smooth="yes"/>
      <point x="203" y="263" type="line" smooth="yes"/>
      <point x="186" y="380" type="line" smooth="yes"/>
      <point x="400" y="380" type="line" smooth="yes"/>
      <point x="403" y="400" type="line" smooth="yes"/>
      <point x="183" y="400" type="line" smooth="yes"/>
      <point x="177" y="442" type="line" smooth="yes"/>
      <point x="173" y="485" type="line" smooth="yes"/>
      <point x="171" y="530" type="line" smooth="yes"/>
      <point x="191" y="640" type="line" smooth="yes"/>
      <point x="256" y="729" type="line" smooth="yes"/>
    </contour>
  </outline>
</glyph>
<glyph name="section" format="1">
  <advance width="498"/>
  <unicode hex="00A7"/>
  <outline>
    <contour>
      <point x="51" y="388" type="line" smooth="yes"/>
      <point x="57" y="319" type="line" smooth="yes"/>
      <point x="108" y="270" type="line" smooth="yes"/>
      <point x="214" y="247" type="line" smooth="yes"/>
      <point x="310" y="232" type="line" smooth="yes"/>
      <point x="360" y="202" type="line" smooth="yes"/>
      <point x="375" y="151" type="line" smooth="yes"/>
      <point x="354" y="75" type="line" smooth="yes"/>
      <point x="295" y="27" type="line" smooth="yes"/>
      <point x="201" y="10" type="line" smooth="yes"/>
      <point x="100" y="28" type="line" smooth="yes"/>
      <point x="52" y="81" type="line" smooth="yes"/>
      <point x="48" y="166" type="line" smooth="yes"/>
      <point x="28" y="166" type="line" smooth="yes"/>
      <point x="26" y="150" type="line" smooth="yes"/>
      <point x="34" y="68" type="line" smooth="yes"/>
      <point x="89" y="11" type="line" smooth="yes"/>
      <point x="201" y="-10" type="line" smooth="yes"/>
      <point x="297" y="7" type="line" smooth="yes"/>
      <point x="363" y="54" type="line" smooth="yes"/>
      <point x="393" y="126" type="line" smooth="yes"/>
      <point x="394" y="134" type="line" smooth="yes"/>
      <point x="392" y="185" type="line" smooth="yes"/>
      <point x="365" y="225" type="line" smooth="yes"/>
      <point x="302" y="252" type="line" smooth="yes"/>
      <point x="377" y="277" type="line" smooth="yes"/>
      <point x="428" y="322" type="line" smooth="yes"/>
      <point x="452" y="382" type="line" smooth="yes"/>
      <point x="453" y="388" type="line" smooth="yes"/>
      <point x="447" y="457" type="line" smooth="yes"/>
      <point x="396" y="506" type="line" smooth="yes"/>
      <point x="290" y="529" type="line" smooth="yes"/>
      <point x="194" y="544" type="line" smooth="yes"/>
      <point x="144" y="574" type="line" smooth="yes"/>
      <point x="129" y="625" type="line" smooth="yes"/>
      <point x="150" y="701" type="line" smooth="yes"/>
      <point x="209" y="749" type="line" smooth="yes"/>
      <point x="303" y="766" type="line" smooth="yes"/>
      <point x="404" y="748" type="line" smooth="yes"/>
      <point x="452" y="695" type="line" smooth="yes"/>
      <point x="456" y="610" type="line" smooth="yes"/>
      <point x="476" y="610" type="line" smooth="yes"/>
      <point x="478" y="626" type="line" smooth="yes"/>
      <point x="470" y="708" type="line" smooth="yes"/>
      <point x="415" y="765" type="line" smooth="yes"/>
      <point x="303" y="786" type="line" smooth="yes"/>
      <point x="207" y="769" type="line" smooth="yes"/>
      <point x="141" y="722" type="line" smooth="yes"/>
      <point x="111" y="650" type="line" smooth="yes"/>
      <point x="110" y="642" type="line" smooth="yes"/>
      <point x="112" y="591" type="line" smooth="yes"/>
      <point x="139" y="551" type="line" smooth="yes"/>
      <point x="202" y="524" type="line" smooth="yes"/>
      <point x="127" y="499" type="line" smooth="yes"/>
      <point x="76" y="454" type="line" smooth="yes"/>
      <point x="52" y="394" type="line" smooth="yes"/>
    </contour>
    <contour>
      <point x="70" y="366" type="line" smooth="yes"/>
      <point x="93" y="443" type="line" smooth="yes"/>
      <point x="157" y="493" type="line" smooth="yes"/>
      <point x="258" y="512" type="line" smooth="yes"/>
      <point x="268" y="512" type="line" smooth="yes"/>
      <point x="361" y="500" type="line" smooth="yes"/>
      <point x="416" y="465" type="line" smooth="yes"/>
      <point x="435" y="410" type="line" smooth="yes"/>
      <point x="412" y="333" type="line" smooth="yes"/>
      <point x="348" y="283" type="line" smooth="yes"/>
      <point x="247" y="264" type="line" smooth="yes"/>
      <point x="237" y="264" type="line" smooth="yes"/>
      <point x="144" y="276" type="line" smooth="yes"/>
      <point x="89" y="311" type="line" smooth="yes"/>
    </contour>
  </outline>
</glyph>
<glyph name="copyright" format="1">
  <advance width="900"/>
  <unicode hex="00A9"/>
  <outline>
    <contour>
      <point x="450" y="149" type="line" smooth="yes"/>
      <point x="554" y="172" type="line" smooth="yes"/>
      <point x="612" y="227" type="line" smooth="yes"/>
      <point x="630" y="290" type="line" smooth="yes"/>
      <point x="630" y="300" type="line" smooth="yes"/>
      <point x="610" y="300" type="line" smooth="yes"/>
      <point x="593" y="235" type="line" smooth="yes"/>
      <point x="540" y="187" type="line" smooth="yes"/>
      <point x="450" y="169" type="line" smooth="yes"/>
      <point x="350" y="196" type="line" smooth="yes"/>
      <point x="288" y="270" type="line" smooth="yes"/>
      <point x="267" y="380" type="line" smooth="yes"/>
      <point x="267" y="400" type="line" smooth="yes"/>
      <point x="288" y="510" type="line" smooth="yes"/>
      <point x="350" y="584" type="line" smooth="yes"/>
      <point x="450" y="611" type="line" smooth="yes"/>
      <point x="540" y="594" type="line" smooth="yes"/>
      <point x="593" y="547" type="line" smooth="yes"/>
      <point x="610" y="470" type="line" smooth="yes"/>
      <point x="630" y="470" type="line" smooth="yes"/>
      <point x="630" y="480" type="line" smooth="yes"/>
      <point x="612" y="555" type="line" smooth="yes"/>
      <point x="554" y="610" type="line" smooth="yes"/>
      <point x="450" y="631" type="line" smooth="yes"/>
      <point x="338" y="601" type="line" smooth="yes"/>
      <point x="270" y="520" type="line" smooth="yes"/>
      <point x="247" y="400" type="line" smooth="yes"/>
      <point x="247" y="380" type="line" smooth="yes"/>
      <point x="270" y="260" type="line" smooth="yes"/>
      <point x="338" y="179" type="line" smooth="yes"/>
    </contour>
    <contour>
      <point x="74" y="390" type="line" smooth="yes"/>
      <point x="125" y="580" type="line" smooth="yes"/>
      <point x="260" y="715" type="line" smooth="yes"/>
      <point x="450" y="766" type="line" smooth="yes"/>
      <point x="640" y="715" type="line" smooth="yes"/>
      <point x="775" y="580" type="line" smooth="yes"/>
      <point x="826" y="390" type="line" smooth="yes"/>
      <point x="775" y="200" type="line" smooth="yes"/>
      <point x="640" y="65" type="line" smooth="yes"/>
      <point x="450" y="14" type="line" smooth="yes"/>
      <point x="260" y="65" type="line" smooth="yes"/>
      <point x="125" y="200" type="line" smooth="yes"/>
    </contour>
    <contour>
      <point x="54" y="390" type="line" smooth="yes"/>
      <point x="108" y="190" type="line" smooth="yes"/>
      <point x="250" y="48" type="line" smooth="yes"/>
      <point x="450" y="-6" type="line" smooth="yes"/>
      <point x="650" y="48" type="line" smooth="yes"/>
      <point x="792" y="190" type="line" smooth="yes"/>
      <point x="846" y="390" type="line" smooth="yes"/>
      <point x="792" y="590" type="line" smooth="yes"/>
      <point x="650" y="732" type="line" smooth="yes"/>
      <point x="450" y="786" type="line" smooth="yes"/>
      <point x="250" y="732" type="line" smooth="yes"/>
      <point x="108" y="590" type="line" smooth="yes"/>
    </contour>
  </outline>
</glyph>
<glyph name="ordfeminine" format="1">
  <advance width="374"/>
  <unicode hex="00AA"/>
  <outline>
    <contour>
      <point x="30" y="230" type="line" smooth="yes"/>
      <point x="302" y="230" type="line" smooth="yes"/>
      <point x="305" y="250" type="line" smooth="yes"/>
      <point x="33" y="250" type="line" smooth="yes"/>
    </contour>
    <contour>
      <point x="157" y="400" type="line" smooth="yes"/>
      <point x="107" y="412" type="line" smooth="yes"/>
      <point x="81" y="442" type="line" smooth="yes"/>
      <point x="76" y="482" type="line" smooth="yes"/>
      <point x="77" y="490" type="line" smooth="yes"/>
      <point x="97" y="542" type="line" smooth="yes"/>
      <point x="137" y="571" type="line" smooth="yes"/>
      <point x="189" y="585" type="line" smooth="yes"/>
      <point x="329" y="606" type="line" smooth="yes"/>
      <point x="313" y="479" type="line" smooth="yes"/>
      <point x="285" y="447" type="line" smooth="yes"/>
      <point x="235" y="415" type="line" smooth="yes"/>
    </contour>
    <contour>
      <point x="56" y="482" type="line" smooth="yes"/>
      <point x="64" y="427" type="line" smooth="yes"/>
      <point x="99" y="392" type="line" smooth="yes"/>
      <point x="157" y="380" type="line" smooth="yes"/>
      <point x="227" y="391" type="line" smooth="yes"/>
      <point x="278" y="418" type="line" smooth="yes"/>
      <point x="312" y="450" type="line" smooth="yes"/>
      <point x="308" y="388" type="line" smooth="yes"/>
      <point x="325" y="388" type="line" smooth="yes"/>
      <point x="333" y="485" type="line" smooth="yes"/>
      <point x="355" y="649" type="line" smooth="yes"/>
      <point x="352" y="718" type="line" smooth="yes"/>
      <point x="317" y="767" type="line" smooth="yes"/>
      <point x="238" y="786" type="line" smooth="yes"/>
      <point x="157" y="766" type="line" smooth="yes"/>
      <point x="113" y="717" type="line" smooth="yes"/>
      <point x="96" y="654" type="line" smooth="yes"/>
      <point x="95" y="646" type="line" smooth="yes"/>
      <point x="115" y="646" type="line" smooth="yes"/>
      <point x="130" y="706" type="line" smooth="yes"/>
      <point x="166" y="749" type="line" smooth="yes"/>
      <point x="238" y="766" type="line" smooth="yes"/>
      <point x="305" y="751" type="line" smooth="yes"/>
      <point x="333" y="708" type="line" smooth="yes"/>
      <point x="334" y="644" type="line" smooth="yes"/>
      <point x="332" y="626" type="line" smooth="yes"/>
      <point x="195" y="605" type="line" smooth="yes"/>
      <point x="135" y="591" type="line" smooth="yes"/>
      <point x="85" y="557" type="line" smooth="yes"/>
      <point x="57" y="490" type="line" smooth="yes"/>
    </contour>
  </outline>
</glyph>
<glyph name="logicalnot" format="1">
  <advance width="600"/>
  <unicode hex="00AC"/>
  <outline>
    <contour>
      <point x="71" y="540" type="line" smooth="yes"/>
      <point x="550" y="540" type="line" smooth="yes"/>
      <point x="508" y="220" type="line" smooth="yes"/>
      <point x="528" y="220" type="line" smooth="yes"/>
      <point x="573" y="560" type="line" smooth="yes"/>
      <point x="74" y="560" type="line" smooth="yes"/>
    </contour>
  </outline>
</glyph>
<glyph name="uni00AD" format="1">
  <advance width="320"/>
  <unicode hex="00AD"/>
  <outline>
    <contour>
      <point x="44" y="330" type="line" smooth="yes"/>
      <point x="264" y="330" type="line" smooth="yes"/>
      <point x="267" y="350" type="line" smooth="yes"/>
      <point x="47" y="350" type="line" smooth="yes"/>
    </contour>
  </outline>
</glyph>
<glyph name="macron" format="1">
  <advance width="500"/>
  <unicode hex="00AF"/>
  <outline>
    <contour>
      <point x="191" y="690" type="line" smooth="yes"/>
      <point x="391" y="690" type="line" smooth="yes"/>
      <point x="394" y="710" type="line" smooth="yes"/>
      <point x="194" y="710" type="line" smooth="yes"/>
    </contour>
  </outline>
</glyph>
<glyph name="degree" format="1">
  <advance width="398"/>
  <unicode hex="00B0"/>
  <outline>
    <contour>
      <point x="247" y="786" type="line" smooth="yes"/>
      <point x="173" y="769" type="line" smooth="yes"/>
      <point x="117" y="721" type="line" smooth="yes"/>
      <point x="89" y="644" type="line" smooth="yes"/>
      <point x="88" y="636" type="line" smooth="yes"/>
      <point x="99" y="560" type="line" smooth="yes"/>
      <point x="147" y="511" type="line" smooth="yes"/>
      <point x="222" y="494" type="line" smooth="yes"/>
      <point x="296" y="511" type="line" smooth="yes"/>
      <point x="352" y="559" type="line" smooth="yes"/>
      <point x="380" y="636" type="line" smooth="yes"/>
      <point x="381" y="644" type="line" smooth="yes"/>
      <point x="370" y="720" type="line" smooth="yes"/>
      <point x="322" y="769" type="line" smooth="yes"/>
    </contour>
    <contour>
      <point x="219" y="514" type="line" smooth="yes"/>
      <point x="156" y="528" type="line" smooth="yes"/>
      <point x="117" y="570" type="line" smooth="yes"/>
      <point x="108" y="636" type="line" smooth="yes"/>
      <point x="109" y="644" type="line" smooth="yes"/>
      <point x="133" y="709" type="line" smooth="yes"/>
      <point x="182" y="751" type="line" smooth="yes"/>
      <point x="244" y="766" type="line" smooth="yes"/>
      <point x="250" y="766" type="line" smooth="yes"/>
      <point x="313" y="752" type="line" smooth="yes"/>
      <point x="352" y="710" type="line" smooth="yes"/>
      <point x="361" y="644" type="line" smooth="yes"/>
      <point x="360" y="636" type="line" smooth="yes"/>
      <point x="336" y="571" type="line" smooth="yes"/>
      <point x="287" y="529" type="line" smooth="yes"/>
      <point x="225" y="514" type="line" smooth="yes"/>
    </contour>
  </outline>
</glyph>
<glyph name="twosuperior" format="1">
  <advance width="300"/>
  <unicode hex="00B2"/>
  <outline>
    <contour>
      <point x="106" y="410" type="line" smooth="yes"/>
      <point x="65" y="409" type="line" smooth="yes"/>
      <point x="250" y="577" type="line" smooth="yes"/>
      <point x="280" y="608" type="line" smooth="yes"/>
      <point x="300" y="638" type="line" smooth="yes"/>
      <point x="309" y="671" type="line" smooth="yes"/>
      <point x="310" y="681" type="line" smooth="yes"/>
      <point x="301" y="737" type="line" smooth="yes"/>
      <point x="264" y="772" type="line" smooth="yes"/>
      <point x="201" y="785" type="line" smooth="yes"/>
      <point x="132" y="771" type="line" smooth="yes"/>
      <point x="88" y="729" type="line" smooth="yes"/>
      <point x="68" y="665" type="line" smooth="yes"/>
      <point x="66" y="650" type="line" smooth="yes"/>
      <point x="86" y="650" type="line" smooth="yes"/>
      <point x="105" y="718" type="line" smooth="yes"/>
      <point x="141" y="755" type="line" smooth="yes"/>
      <point x="198" y="766" type="line" smooth="yes"/>
      <point x="204" y="766" type="line" smooth="yes"/>
      <point x="255" y="755" type="line" smooth="yes"/>
      <point x="283" y="725" type="line" smooth="yes"/>
      <point x="289" y="680" type="line" smooth="yes"/>
      <point x="288" y="670" type="line" smooth="yes"/>
      <point x="281" y="644" type="line" smooth="yes"/>
      <point x="263" y="617" type="line" smooth="yes"/>
      <point x="233" y="586" type="line" smooth="yes"/>
      <point x="34" y="405" type="line" smooth="yes"/>
      <point x="32" y="390" type="line" smooth="yes"/>
      <point x="267" y="390" type="line" smooth="yes"/>
      <point x="270" y="410" type="line" smooth="yes"/>
    </contour>
  </outline>
</glyph>
<glyph name="threesuperior" format="1">
  <advance width="300"/>
  <unicode hex="00B3"/>
  <outline>
    <contour>
      <point x="154" y="404" type="line" smooth="yes"/>
      <point x="100" y="415" type="line" smooth="yes"/>
      <point x="68" y="450" type="line" smooth="yes"/>
      <point x="65" y="515" type="line" smooth="yes"/>
      <point x="45" y="515" type="line" smooth="yes"/>
      <point x="44" y="505" type="line" smooth="yes"/>
      <point x="51" y="441" type="line" smooth="yes"/>
      <point x="88" y="400" type="line" smooth="yes"/>
      <point x="157" y="385" type="line" smooth="yes"/>
      <point x="218" y="397" type="line" smooth="yes"/>
      <point x="265" y="430" type="line" smooth="yes"/>
      <point x="287" y="486" type="line" smooth="yes"/>
      <point x="288" y="496" type="line" smooth="yes"/>
      <point x="283" y="540" type="line" smooth="yes"/>
      <point x="262" y="572" type="line" smooth="yes"/>
      <point x="228" y="588" type="line" smooth="yes"/>
      <point x="268" y="605" type="line" smooth="yes"/>
      <point x="296" y="635" type="line" smooth="yes"/>
      <point x="309" y="676" type="line" smooth="yes"/>
      <point x="310" y="686" type="line" smooth="yes"/>
      <point x="300" y="740" type="line" smooth="yes"/>
      <point x="262" y="773" type="line" smooth="yes"/>
      <point x="200" y="785" type="line" smooth="yes"/>
      <point x="130" y="770" type="line" smooth="yes"/>
      <point x="86" y="727" type="line" smooth="yes"/>
      <point x="67" y="660" type="line" smooth="yes"/>
      <point x="66" y="650" type="line" smooth="yes"/>
      <point x="86" y="650" type="line" smooth="yes"/>
      <point x="104" y="717" type="line" smooth="yes"/>
      <point x="141" y="754" type="line" smooth="yes"/>
      <point x="197" y="766" type="line" smooth="yes"/>
      <point x="203" y="766" type="line" smooth="yes"/>
      <point x="253" y="756" type="line" smooth="yes"/>
      <point x="282" y="728" type="line" smooth="yes"/>
      <point x="289" y="685" type="line" smooth="yes"/>
      <point x="288" y="675" type="line" smooth="yes"/>
      <point x="270" y="632" type="line" smooth="yes"/>
      <point x="233" y="606" type="line" smooth="yes"/>
      <point x="185" y="598" type="line" smooth="yes"/>
      <point x="129" y="598" type="line" smooth="yes"/>
      <point x="126" y="578" type="line" smooth="yes"/>
      <point x="185" y="578" type="line" smooth="yes"/>
      <point x="231" y="569" type="line" smooth="yes"/>
      <point x="260" y="543" type="line" smooth="yes"/>
      <point x="267" y="496" type="line" smooth="yes"/>
      <point x="266" y="486" type="line" smooth="yes"/>
      <point x="247" y="439" type="line" smooth="yes"/>
      <point x="209" y="413" type="line" smooth="yes"/>
      <point x="160" y="404" type="line" smooth="yes"/>
    </contour>
  </outline>
</glyph>
<glyph name="paragraph" format="1">
  <advance width="500"/>
  <unicode hex="00B6"/>
  <outline>
    <contour>
      <point x="97" y="575" type="line" smooth="yes"/>
      <point x="146" y="695" type="line" smooth="yes"/>
      <point x="232" y="748" type="line" smooth="yes"/>
      <point x="323" y="760" type="line" smooth="yes"/>
      <point x="340" y="760" type="line" smooth="yes"/>
      <point x="288" y="360" type="line" smooth="yes"/>
      <point x="273" y="360" type="line" smooth="yes"/>
      <point x="186" y="374" type="line" smooth="yes"/>
      <point x="113" y="430" type="line" smooth="yes"/>
      <point x="94" y="551" type="line" smooth="yes"/>
    </contour>
    <contour>
      <point x="351" y="0" type="line" smooth="yes"/>
      <point x="371" y="0" type="line" smooth="yes"/>
      <point x="473" y="780" type="line" smooth="yes"/>
      <point x="323" y="780" type="line" smooth="yes"/>
      <point x="217" y="764" type="line" smooth="yes"/>
      <point x="126" y="702" type="line" smooth="yes"/>
      <point x="76" y="575" type="line" smooth="yes"/>
      <point x="73" y="551" type="line" smooth="yes"/>
      <point x="91" y="424" type="line" smooth="yes"/>
      <point x="167" y="359" type="line" smooth="yes"/>
      <point x="273" y="340" type="line" smooth="yes"/>
      <point x="286" y="340" type="line" smooth="yes"/>
      <point x="241" y="0" type="line" smooth="yes"/>
      <point x="261" y="0" type="line" smooth="yes"/>
      <point x="360" y="760" type="line" smooth="yes"/>
      <point x="450" y="760" type="line" smooth="yes"/>
    </contour>
  </outline>
</glyph>
<glyph name="cedilla" format="1">
  <advance width="602"/>
  <unicode hex="00B8"/>
  <outline>
    <contour>
      <point x="98" y="-186" type="line" smooth="yes"/>
      <point x="122" y="-197" type="line" smooth="yes"/>
      <point x="150" y="-203" type="line" smooth="yes"/>
      <point x="179" y="-206" type="line" smooth="yes"/>
      <point x="225" y="-199" type="line" smooth="yes"/>
      <point x="261" y="-173" type="line" smooth="yes"/>
      <point x="275" y="-126" type="line" smooth="yes"/>
      <point x="263" y="-89" type="line" smooth="yes"/>
      <point x="234" y="-69" type="line" smooth="yes"/>
      <point x="197" y="-64" type="line" smooth="yes"/>
      <point x="190" y="-64" type="line" smooth="yes"/>
      <point x="184" y="-64" type="line" smooth="yes"/>
      <point x="178" y="-65" type="line" smooth="yes"/>
      <point x="210" y="0" type="line" smooth="yes"/>
      <point x="191" y="0" type="line" smooth="yes"/>
      <point x="155" y="-73" type="line" smooth="yes"/>
      <point x="164" y="-84" type="line" smooth="yes"/>
      <point x="168" y="-83" type="line" smooth="yes"/>
      <point x="177" y="-83" type="line" smooth="yes"/>
      <point x="190" y="-82" type="line" smooth="yes"/>
      <point x="223" y="-85" type="line" smooth="yes"/>
      <point x="247" y="-97" type="line" smooth="yes"/>
      <point x="257" y="-126" type="line" smooth="yes"/>
      <point x="245" y="-165" type="line" smooth="yes"/>
      <point x="216" y="-183" type="line" smooth="yes"/>
      <point x="179" y="-188" type="line" smooth="yes"/>
      <point x="153" y="-186" type="line" smooth="yes"/>
      <point x="126" y="-179" type="line" smooth="yes"/>
      <point x="106" y="-170" type="line" smooth="yes"/>
    </contour>
  </outline>
</glyph>
<glyph name="ordmasculine" format="1">
  <advance width="407"/>
  <unicode hex="00BA"/>
  <outline>
    <contour>
      <point x="393" y="595" type="line" smooth="yes"/>
      <point x="381" y="712" type="line" smooth="yes"/>
      <point x="326" y="770" type="line" smooth="yes"/>
      <point x="259" y="786" type="line" smooth="yes"/>
      <point x="187" y="772" type="line" smooth="yes"/>
      <point x="117" y="715" type="line" smooth="yes"/>
      <point x="74" y="595" type="line" smooth="yes"/>
      <point x="71" y="571" type="line" smooth="yes"/>
      <point x="83" y="454" type="line" smooth="yes"/>
      <point x="138" y="396" type="line" smooth="yes"/>
      <point x="205" y="380" type="line" smooth="yes"/>
      <point x="277" y="394" type="line" smooth="yes"/>
      <point x="347" y="451" type="line" smooth="yes"/>
      <point x="390" y="571" type="line" smooth="yes"/>
    </contour>
    <contour>
      <point x="370" y="571" type="line" smooth="yes"/>
      <point x="339" y="474" type="line" smooth="yes"/>
      <point x="281" y="418" type="line" smooth="yes"/>
      <point x="205" y="400" type="line" smooth="yes"/>
      <point x="140" y="417" type="line" smooth="yes"/>
      <point x="98" y="472" type="line" smooth="yes"/>
      <point x="91" y="571" type="line" smooth="yes"/>
      <point x="94" y="595" type="line" smooth="yes"/>
      <point x="125" y="692" type="line" smooth="yes"/>
      <point x="183" y="748" type="line" smooth="yes"/>
      <point x="259" y="766" type="line" smooth="yes"/>
      <point x="324" y="749" type="line" smooth="yes"/>
      <point x="366" y="694" type="line" smooth="yes"/>
      <point x="373" y="595" type="line" smooth="yes"/>
    </contour>
    <contour>
      <point x="37" y="230" type="line" smooth="yes"/>
      <point x="335" y="230" type="line" smooth="yes"/>
      <point x="338" y="250" type="line" smooth="yes"/>
      <point x="40" y="250" type="line" smooth="yes"/>
    </contour>
  </outline>
</glyph>
<glyph name="onehalf" format="1">
  <advance width="799"/>
  <unicode hex="00BD"/>
  <outline>
    <contour>
      <point x="555" y="20" type="line" smooth="yes"/>
      <point x="514" y="19" type="line" smooth="yes"/>
      <point x="699" y="187" type="line" smooth="yes"/>
      <point x="729" y="218" type="line" smooth="yes"/>
      <point x="749" y="248" type="line" smooth="yes"/>
      <point x="758" y="281" type="line" smooth="yes"/>
      <point x="759" y="291" type="line" smooth="yes"/>
      <point x="750" y="347" type="line" smooth="yes"/>
      <point x="713" y="382" type="line" smooth="yes"/>
      <point x="650" y="395" type="line" smooth="yes"/>
      <point x="581" y="381" type="line" smooth="yes"/>
      <point x="537" y="339" type="line" smooth="yes"/>
      <point x="517" y="275" type="line" smooth="yes"/>
      <point x="515" y="260" type="line" smooth="yes"/>
      <point x="535" y="260" type="line" smooth="yes"/>
      <point x="554" y="328" type="line" smooth="yes"/>
      <point x="590" y="365" type="line" smooth="yes"/>
      <point x="647" y="376" type="line" smooth="yes"/>
      <point x="653" y="376" type="line" smooth="yes"/>
      <point x="704" y="365" type="line" smooth="yes"/>
      <point x="732" y="335" type="line" smooth="yes"/>
      <point x="738" y="290" type="line" smooth="yes"/>
      <point x="737" y="280" type="line" smooth="yes"/>
      <point x="730" y="254" type="line" smooth="yes"/>
      <point x="712" y="227" type="line" smooth="yes"/>
      <point x="682" y="196" type="line" smooth="yes"/>
      <point x="483" y="15" type="line" smooth="yes"/>
      <point x="481" y="0" type="line" smooth="yes"/>
      <point x="716" y="0" type="line" smooth="yes"/>
      <point x="719" y="20" type="line" smooth="yes"/>
    </contour>
    <contour>
      <point x="273" y="390" type="line" smooth="yes"/>
      <point x="276" y="410" type="line" smooth="yes"/>
      <point x="169" y="410" type="line" smooth="yes"/>
      <point x="218" y="782" type="line" smooth="yes"/>
      <point x="203" y="782" type="line" smooth="yes"/>
      <point x="68" y="699" type="line" smooth="yes"/>
      <point x="78" y="681" type="line" smooth="yes"/>
      <point x="194" y="752" type="line" smooth="yes"/>
      <point x="149" y="410" type="line" smooth="yes"/>
      <point x="41" y="410" type="line" smooth="yes"/>
      <point x="38" y="390" type="line" smooth="yes"/>
    </contour>
    <contour>
      <point x="77" y="0" type="line" smooth="yes"/>
      <point x="753" y="780" type="line" smooth="yes"/>
      <point x="727" y="780" type="line" smooth="yes"/>
      <point x="51" y="0" type="line" smooth="yes"/>
    </contour>
  </outline>
</glyph>
<glyph name="threequarters" format="1">
  <advance width="800"/>
  <unicode hex="00BE"/>
  <outline>
    <contour>
      <point x="687" y="352" type="line" smooth="yes"/>
      <point x="658" y="130" type="line" smooth="yes"/>
      <point x="563" y="130" type="line" smooth="yes"/>
      <point x="511" y="129" type="line" smooth="yes"/>
    </contour>
    <contour>
      <point x="661" y="0" type="line" smooth="yes"/>
      <point x="675" y="110" type="line" smooth="yes"/>
      <point x="747" y="110" type="line" smooth="yes"/>
      <point x="750" y="130" type="line" smooth="yes"/>
      <point x="678" y="130" type="line" smooth="yes"/>
      <point x="712" y="390" type="line" smooth="yes"/>
      <point x="693" y="390" type="line" smooth="yes"/>
      <point x="484" y="125" type="line" smooth="yes"/>
      <point x="482" y="110" type="line" smooth="yes"/>
      <point x="655" y="110" type="line" smooth="yes"/>
      <point x="641" y="0" type="line" smooth="yes"/>
    </contour>
    <contour>
      <point x="77" y="0" type="line" smooth="yes"/>
      <point x="753" y="780" type="line" smooth="yes"/>
      <point x="727" y="780" type="line" smooth="yes"/>
      <point x="51" y="0" type="line" smooth="yes"/>
    </contour>
    <contour>
      <point x="154" y="404" type="line" smooth="yes"/>
      <point x="100" y="415" type="line" smooth="yes"/>
      <point x="68" y="450" type="line" smooth="yes"/>
      <point x="65" y="515" type="line" smooth="yes"/>
      <point x="45" y="515" type="line" smooth="yes"/>
      <point x="44" y="505" type="line" smooth="yes"/>
      <point x="51" y="441" type="line" smooth="yes"/>
      <point x="88" y="400" type="line" smooth="yes"/>
      <point x="157" y="385" type="line" smooth="yes"/>
      <point x="218" y="397" type="line" smooth="yes"/>
      <point x="265" y="430" type="line" smooth="yes"/>
      <point x="287" y="486" type="line" smooth="yes"/>
      <point x="288" y="496" type="line" smooth="yes"/>
      <point x="283" y="540" type="line" smooth="yes"/>
      <point x="262" y="572" type="line" smooth="yes"/>
      <point x="228" y="588" type="line" smooth="yes"/>
      <point x="268" y="605" type="line" smooth="yes"/>
      <point x="296" y="635" type="line" smooth="yes"/>
      <point x="309" y="676" type="line" smooth="yes"/>
      <point x="310" y="686" type="line" smooth="yes"/>
      <point x="300" y="740" type="line" smooth="yes"/>
      <point x="262" y="773" type="line" smooth="yes"/>
      <point x="200" y="785" type="line" smooth="yes"/>
      <point x="130" y="770" type="line" smooth="yes"/>
      <point x="86" y="727" type="line" smooth="yes"/>
      <point x="67" y="660" type="line" smooth="yes"/>
      <point x="66" y="650" type="line" smooth="yes"/>
      <point x="86" y="650" type="line" smooth="yes"/>
      <point x="104" y="717" type="line" smooth="yes"/>
      <point x="141" y="754" type="line" smooth="yes"/>
      <point x="197" y="766" type="line" smooth="yes"/>
      <point x="203" y="766" type="line" smooth="yes"/>
      <point x="253" y="756" type="line" smooth="yes"/>
      <point x="282" y="728" type="line" smooth="yes"/>
      <point x="289" y="685" type="line" smooth="yes"/>
      <point x="288" y="675" type="line" smooth="yes"/>
      <point x="270" y="632" type="line" smooth="yes"/>
      <point x="233" y="606" type="line" smooth="yes"/>
      <point x="185" y="598" type="line" smooth="yes"/>
      <point x="129" y="598" type="line" smooth="yes"/>
      <point x="126" y="578" type="line" smooth="yes"/>
      <point x="185" y="578" type="line" smooth="yes"/>
      <point x="231" y="569" type="line" smooth="yes"/>
      <point x="260" y="543" type="line" smooth="yes"/>
      <point x="267" y="496" type="line" smooth="yes"/>
      <point x="266" y="486" type="line" smooth="yes"/>
      <point x="247" y="439" type="line" smooth="yes"/>
      <point x="209" y="413" type="line" smooth="yes"/>
      <point x="160" y="404" type="line" smooth="yes"/>
    </contour>
  </outline>
</glyph>
<glyph name="questiondown" format="1">
  <advance width="440"/>
  <unicode hex="00BF"/>
  <outline>
    <contour>
      <point x="215" y="490" type="line" smooth="yes"/>
      <point x="255" y="490" type="line" smooth="yes"/>
      <point x="260" y="530" type="line" smooth="yes"/>
      <point x="220" y="530" type="line" smooth="yes"/>
    </contour>
    <contour>
      <point x="141" y="-206" type="line" smooth="yes"/>
      <point x="251" y="-176" type="line" smooth="yes"/>
      <point x="325" y="-92" type="line" smooth="yes"/>
      <point x="362" y="36" type="line" smooth="yes"/>
      <point x="365" y="60" type="line" smooth="yes"/>
      <point x="345" y="60" type="line" smooth="yes"/>
      <point x="311" y="-72" type="line" smooth="yes"/>
      <point x="243" y="-156" type="line" smooth="yes"/>
      <point x="141" y="-186" type="line" smooth="yes"/>
      <point x="58" y="-166" type="line" smooth="yes"/>
      <point x="13" y="-114" type="line" smooth="yes"/>
      <point x="0" y="-45" type="line" smooth="yes"/>
      <point x="53" y="92" type="line" smooth="yes"/>
      <point x="156" y="197" type="line" smooth="yes"/>
      <point x="224" y="355" type="line" smooth="yes"/>
      <point x="210" y="355" type="line" smooth="yes"/>
      <point x="138" y="204" type="line" smooth="yes"/>
      <point x="33" y="99" type="line" smooth="yes"/>
      <point x="-21" y="-44" type="line" smooth="yes"/>
      <point x="-5" y="-125" type="line" smooth="yes"/>
      <point x="47" y="-184" type="line" smooth="yes"/>
    </contour>
  </outline>
</glyph>
<glyph name="Aacute" format="1">
  <advance width="590"/>
  <unicode hex="00C1"/>
  <outline>
    <contour>
      <point x="422" y="950" type="line" smooth="yes"/>
      <point x="345" y="840" type="line" smooth="yes"/>
      <point x="367" y="840" type="line" smooth="yes"/>
      <point x="444" y="950" type="line" smooth="yes"/>
    </contour>
    <contour>
      <point x="347" y="760" type="line" smooth="yes"/>
      <point x="440" y="250" type="line" smooth="yes"/>
      <point x="119" y="250" type="line" smooth="yes"/>
    </contour>
    <contour>
      <point x="340" y="790" type="line" smooth="yes"/>
      <point x="-14" y="0" type="line" smooth="yes"/>
      <point x="8" y="0" type="line" smooth="yes"/>
      <point x="110" y="230" type="line" smooth="yes"/>
      <point x="444" y="230" type="line" smooth="yes"/>
      <point x="486" y="0" type="line" smooth="yes"/>
      <point x="506" y="0" type="line" smooth="yes"/>
      <point x="360" y="790" type="line" smooth="yes"/>
    </contour>
  </outline>
</glyph>
<glyph name="Atilde" format="1">
  <advance width="590"/>
  <unicode hex="00C3"/>
  <outline>
    <contour>
      <point x="485" y="927" type="line" smooth="yes"/>
      <point x="473" y="894" type="line" smooth="yes"/>
      <point x="454" y="878" type="line" smooth="yes"/>
      <point x="431" y="875" type="line" smooth="yes"/>
      <point x="387" y="890" type="line" smooth="yes"/>
      <point x="344" y="918" type="line" smooth="yes"/>
      <point x="296" y="933" type="line" smooth="yes"/>
      <point x="266" y="927" type="line" smooth="yes"/>
      <point x="239" y="906" type="line" smooth="yes"/>
      <point x="224" y="863" type="line" smooth="yes"/>
      <point x="242" y="863" type="line" smooth="yes"/>
      <point x="254" y="896" type="line" smooth="yes"/>
      <point x="273" y="912" type="line" smooth="yes"/>
      <point x="296" y="915" type="line" smooth="yes"/>
      <point x="340" y="900" type="line" smooth="yes"/>
      <point x="383" y="872" type="line" smooth="yes"/>
      <point x="431" y="857" type="line" smooth="yes"/>
      <point x="461" y="863" type="line" smooth="yes"/>
      <point x="488" y="884" type="line" smooth="yes"/>
      <point x="503" y="927" type="line" smooth="yes"/>
    </contour>
    <contour>
      <point x="347" y="760" type="line" smooth="yes"/>
      <point x="440" y="250" type="line" smooth="yes"/>
      <point x="119" y="250" type="line" smooth="yes"/>
    </contour>
    <contour>
      <point x="340" y="790" type="line" smooth="yes"/>
      <point x="-14" y="0" type="line" smooth="yes"/>
      <point x="8" y="0" type="line" smooth="yes"/>
      <point x="110" y="230" type="line" smooth="yes"/>
      <point x="444" y="230" type="line" smooth="yes"/>
      <point x="486" y="0" type="line" smooth="yes"/>
      <point x="506" y="0" type="line" smooth="yes"/>
      <point x="360" y="790" type="line" smooth="yes"/>
    </contour>
  </outline>
</glyph>
<glyph name="Aring" format="1">
  <advance width="590"/>
  <unicode hex="00C5"/>
  <outline>
    <contour>
      <point x="367" y="956" type="line" smooth="yes"/>
      <point x="320" y="943" type="line" smooth="yes"/>
      <point x="286" y="909" type="line" smooth="yes"/>
      <point x="272" y="862" type="line" smooth="yes"/>
      <point x="280" y="824" type="line" smooth="yes"/>
      <point x="303" y="798" type="line" smooth="yes"/>
      <point x="338" y="785" type="line" smooth="yes"/>
      <point x="-14" y="0" type="line" smooth="yes"/>
      <point x="8" y="0" type="line" smooth="yes"/>
      <point x="110" y="230" type="line" smooth="yes"/>
      <point x="444" y="230" type="line" smooth="yes"/>
      <point x="486" y="0" type="line" smooth="yes"/>
      <point x="506" y="0" type="line" smooth="yes"/>
      <point x="361" y="784" type="line" smooth="yes"/>
      <point x="404" y="800" type="line" smooth="yes"/>
      <point x="435" y="833" type="line" smooth="yes"/>
      <point x="447" y="878" type="line" smooth="yes"/>
      <point x="437" y="920" type="line" smooth="yes"/>
      <point x="410" y="946" type="line" smooth="yes"/>
    </contour>
    <contour>
      <point x="367" y="938" type="line" smooth="yes"/>
      <point x="399" y="931" type="line" smooth="yes"/>
      <point x="420" y="911" type="line" smooth="yes"/>
      <point x="428" y="878" type="line" smooth="yes"/>
      <point x="418" y="838" type="line" smooth="yes"/>
      <point x="391" y="812" type="line" smooth="yes"/>
      <point x="352" y="802" type="line" smooth="yes"/>
      <point x="320" y="809" type="line" smooth="yes"/>
      <point x="299" y="829" type="line" smooth="yes"/>
      <point x="291" y="862" type="line" smooth="yes"/>
      <point x="301" y="902" type="line" smooth="yes"/>
      <point x="328" y="928" type="line" smooth="yes"/>
    </contour>
    <contour>
      <point x="347" y="760" type="line" smooth="yes"/>
      <point x="440" y="250" type="line" smooth="yes"/>
      <point x="119" y="250" type="line" smooth="yes"/>
    </contour>
  </outline>
</glyph>
<glyph name="Ccedilla" format="1">
  <advance width="587"/>
  <unicode hex="00C7"/>
  <outline>
    <contour>
      <point x="164" y="-186" type="line" smooth="yes"/>
      <point x="188" y="-197" type="line" smooth="yes"/>
      <point x="216" y="-203" type="line" smooth="yes"/>
      <point x="245" y="-206" type="line" smooth="yes"/>
      <point x="291" y="-199" type="line" smooth="yes"/>
      <point x="327" y="-173" type="line" smooth="yes"/>
      <point x="341" y="-126" type="line" smooth="yes"/>
      <point x="329" y="-89" type="line" smooth="yes"/>
      <point x="300" y="-69" type="line" smooth="yes"/>
      <point x="263" y="-64" type="line" smooth="yes"/>
      <point x="256" y="-64" type="line" smooth="yes"/>
      <point x="250" y="-64" type="line" smooth="yes"/>
      <point x="244" y="-65" type="line" smooth="yes"/>
      <point x="273" y="-6" type="line" smooth="yes"/>
      <point x="399" y="23" type="line" smooth="yes"/>
      <point x="478" y="103" type="line" smooth="yes"/>
      <point x="516" y="226" type="line" smooth="yes"/>
      <point x="519" y="250" type="line" smooth="yes"/>
      <point x="499" y="250" type="line" smooth="yes"/>
      <point x="457" y="110" type="line" smooth="yes"/>
      <point x="379" y="36" type="line" smooth="yes"/>
      <point x="270" y="14" type="line" smooth="yes"/>
      <point x="264" y="14" type="line" smooth="yes"/>
      <point x="143" y="51" type="line" smooth="yes"/>
      <point x="84" y="168" type="line" smooth="yes"/>
      <point x="86" y="378" type="line" smooth="yes"/>
      <point x="89" y="402" type="line" smooth="yes"/>
      <point x="141" y="614" type="line" smooth="yes"/>
      <point x="232" y="730" type="line" smooth="yes"/>
      <point x="363" y="766" type="line" smooth="yes"/>
      <point x="369" y="766" type="line" smooth="yes"/>
      <point x="478" y="743" type="line" smooth="yes"/>
      <point x="532" y="660" type="line" smooth="yes"/>
      <point x="531" y="500" type="line" smooth="yes"/>
      <point x="551" y="500" type="line" smooth="yes"/>
      <point x="554" y="524" type="line" smooth="yes"/>
      <point x="549" y="676" type="line" smooth="yes"/>
      <point x="487" y="760" type="line" smooth="yes"/>
      <point x="366" y="786" type="line" smooth="yes"/>
      <point x="223" y="748" type="line" smooth="yes"/>
      <point x="124" y="625" type="line" smooth="yes"/>
      <point x="68" y="402" type="line" smooth="yes"/>
      <point x="65" y="378" type="line" smooth="yes"/>
      <point x="64" y="163" type="line" smooth="yes"/>
      <point x="127" y="38" type="line" smooth="yes"/>
      <point x="254" y="-6" type="line" smooth="yes"/>
      <point x="221" y="-73" type="line" smooth="yes"/>
      <point x="230" y="-84" type="line" smooth="yes"/>
      <point x="234" y="-83" type="line" smooth="yes"/>
      <point x="243" y="-83" type="line" smooth="yes"/>
      <point x="256" y="-82" type="line" smooth="yes"/>
      <point x="289" y="-85" type="line" smooth="yes"/>
      <point x="313" y="-97" type="line" smooth="yes"/>
      <point x="323" y="-126" type="line" smooth="yes"/>
      <point x="311" y="-165" type="line" smooth="yes"/>
      <point x="282" y="-183" type="line" smooth="yes"/>
      <point x="245" y="-188" type="line" smooth="yes"/>
      <point x="219" y="-186" type="line" smooth="yes"/>
      <point x="192" y="-179" type="line" smooth="yes"/>
      <point x="172" y="-170" type="line" smooth="yes"/>
    </contour>
  </outline>
</glyph>
<glyph name="Egrave" format="1">
  <advance width="540"/>
  <unicode hex="00C8"/>
  <outline>
    <contour>
      <point x="293" y="950" type="line" smooth="yes"/>
      <point x="340" y="840" type="line" smooth="yes"/>
      <point x="362" y="840" type="line" smooth="yes"/>
      <point x="315" y="950" type="line" smooth="yes"/>
    </contour>
    <contour>
      <point x="133" y="780" type="line" smooth="yes"/>
      <point x="31" y="0" type="line" smooth="yes"/>
      <point x="441" y="0" type="line" smooth="yes"/>
      <point x="444" y="20" type="line" smooth="yes"/>
      <point x="54" y="20" type="line" smooth="yes"/>
      <point x="102" y="388" type="line" smooth="yes"/>
      <point x="441" y="388" type="line" smooth="yes"/>
      <point x="444" y="408" type="line" smooth="yes"/>
      <point x="105" y="408" type="line" smooth="yes"/>
      <point x="151" y="760" type="line" smooth="yes"/>
      <point x="540" y="760" type="line" smooth="yes"/>
      <point x="543" y="780" type="line" smooth="yes"/>
    </contour>
  </outline>
</glyph>
<glyph name="Edieresis" format="1">
  <advance width="540"/>
  <unicode hex="00CB"/>
  <outline>
    <contour>
      <point x="451" y="915" type="line" smooth="yes"/>
      <point x="411" y="915" type="line" smooth="yes"/>
      <point x="406" y="875" type="line" smooth="yes"/>
      <point x="446" y="875" type="line" smooth="yes"/>
    </contour>
    <contour>
      <point x="311" y="915" type="line" smooth="yes"/>
      <point x="271" y="915" type="line" smooth="yes"/>
      <point x="266" y="875" type="line" smooth="yes"/>
      <point x="306" y="875" type="line" smooth="yes"/>
    </contour>
    <contour>
      <point x="133" y="780" type="line" smooth="yes"/>
      <point x="31" y="0" type="line" smooth="yes"/>
      <point x="441" y="0" type="line" smooth="yes"/>
      <point x="444" y="20" type="line" smooth="yes"/>
      <point x="54" y="20" type="line" smooth="yes"/>
      <point x="102" y="388" type="line" smooth="yes"/>
      <point x="441" y="388" type="line" smooth="yes"/>
      <point x="444" y="408" type="line" smooth="yes"/>
      <point x="105" y="408" type="line" smooth="yes"/>
      <point x="151" y="760" type="line" smooth="yes"/>
      <point x="540" y="760" type="line" smooth="yes"/>
      <point x="543" y="780" type="line" smooth="yes"/>
    </contour>
  </outline>
</glyph>
<glyph name="Icircumflex" format="1">
  <advance width="190"/>
  <unicode hex="00CE"/>
  <outline>
    <contour>
      <point x="71" y="840" type="line" smooth="yes"/>
      <point x="170" y="935" type="line" smooth="yes"/>
      <point x="243" y="840" type="line" smooth="yes"/>
      <point x="266" y="840" type="line" smooth="yes"/>
      <point x="181" y="950" type="line" smooth="yes"/>
      <point x="161" y="950" type="line" smooth="yes"/>
      <point x="46" y="840" type="line" smooth="yes"/>
    </contour>
    <contour>
      <point x="158" y="780" type="line" smooth="yes"/>
      <point x="138" y="780" type="line" smooth="yes"/>
      <point x="36" y="0" type="line" smooth="yes"/>
      <point x="56" y="0" type="line" smooth="yes"/>
    </contour>
  </outline>
</glyph>
<glyph name="Idieresis" format="1">
  <advance width="190"/>
  <unicode hex="00CF"/>
  <outline>
    <contour>
      <point x="116" y="915" type="line" smooth="yes"/>
      <point x="76" y="915" type="line" smooth="yes"/>
      <point x="71" y="875" type="line" smooth="yes"/>
      <point x="111" y="875" type="line" smooth="yes"/>
    </contour>
    <contour>
      <point x="256" y="915" type="line" smooth="yes"/>
      <point x="216" y="915" type="line" smooth="yes"/>
      <point x="211" y="875" type="line" smooth="yes"/>
      <point x="251" y="875" type="line" smooth="yes"/>
    </contour>
    <contour>
      <point x="158" y="780" type="line" smooth="yes"/>
      <point x="138" y="780" type="line" smooth="yes"/>
      <point x="36" y="0" type="line" smooth="yes"/>
      <point x="56" y="0" type="line" smooth="yes"/>
    </contour>
  </outline>
</glyph>
<glyph name="Eth" format="1">
  <advance width="663"/>
  <unicode hex="00D0"/>
  <outline>
    <contour>
      <point x="109" y="20" type="line" smooth="yes"/>
      <point x="157" y="388" type="line" smooth="yes"/>
      <point x="387" y="388" type="line" smooth="yes"/>
      <point x="390" y="408" type="line" smooth="yes"/>
      <point x="160" y="408" type="line" smooth="yes"/>
      <point x="206" y="760" type="line" smooth="yes"/>
      <point x="376" y="760" type="line" smooth="yes"/>
      <point x="510" y="725" type="line" smooth="yes"/>
      <point x="586" y="611" type="line" smooth="yes"/>
      <point x="592" y="402" type="line" smooth="yes"/>
      <point x="589" y="378" type="line" smooth="yes"/>
      <point x="527" y="168" type="line" smooth="yes"/>
      <point x="416" y="54" type="line" smooth="yes"/>
      <point x="270" y="20" type="line" smooth="yes"/>
    </contour>
    <contour>
      <point x="27" y="388" type="line" smooth="yes"/>
      <point x="137" y="388" type="line" smooth="yes"/>
      <point x="86" y="0" type="line" smooth="yes"/>
      <point x="270" y="0" type="line" smooth="yes"/>
      <point x="424" y="36" type="line" smooth="yes"/>
      <point x="543" y="156" type="line" smooth="yes"/>
      <point x="610" y="378" type="line" smooth="yes"/>
      <point x="613" y="402" type="line" smooth="yes"/>
      <point x="604" y="625" type="line" smooth="yes"/>
      <point x="519" y="744" type="line" smooth="yes"/>
      <point x="376" y="780" type="line" smooth="yes"/>
      <point x="188" y="780" type="line" smooth="yes"/>
      <point x="139" y="408" type="line" smooth="yes"/>
      <point x="30" y="408" type="line" smooth="yes"/>
    </contour>
  </outline>
</glyph>
<glyph name="Ntilde" format="1">
  <advance width="640"/>
  <unicode hex="00D1"/>
  <outline>
    <contour>
      <point x="510" y="927" type="line" smooth="yes"/>
      <point x="498" y="894" type="line" smooth="yes"/>
      <point x="479" y="878" type="line" smooth="yes"/>
      <point x="456" y="875" type="line" smooth="yes"/>
      <point x="412" y="890" type="line" smooth="yes"/>
      <point x="369" y="918" type="line" smooth="yes"/>
      <point x="321" y="933" type="line" smooth="yes"/>
      <point x="291" y="927" type="line" smooth="yes"/>
      <point x="264" y="906" type="line" smooth="yes"/>
      <point x="249" y="863" type="line" smooth="yes"/>
      <point x="267" y="863" type="line" smooth="yes"/>
      <point x="279" y="896" type="line" smooth="yes"/>
      <point x="298" y="912" type="line" smooth="yes"/>
      <point x="321" y="915" type="line" smooth="yes"/>
      <point x="365" y="900" type="line" smooth="yes"/>
      <point x="408" y="872" type="line" smooth="yes"/>
      <point x="456" y="857" type="line" smooth="yes"/>
      <point x="486" y="863" type="line" smooth="yes"/>
      <point x="513" y="884" type="line" smooth="yes"/>
      <point x="528" y="927" type="line" smooth="yes"/>
    </contour>
    <contour>
      <point x="496" y="32" type="line" smooth="yes"/>
      <point x="155" y="780" type="line" smooth="yes"/>
      <point x="133" y="780" type="line" smooth="yes"/>
      <point x="31" y="0" type="line" smooth="yes"/>
      <point x="51" y="0" type="line" smooth="yes"/>
      <point x="130" y="605" type="line" smooth="yes"/>
      <point x="148" y="748" type="line" smooth="yes"/>
      <point x="489" y="0" type="line" smooth="yes"/>
      <point x="511" y="0" type="line" smooth="yes"/>
      <point x="613" y="780" type="line" smooth="yes"/>
      <point x="593" y="780" type="line" smooth="yes"/>
      <point x="514" y="175" type="line" smooth="yes"/>
    </contour>
  </outline>
</glyph>
<glyph name="Ocircumflex" format="1">
  <advance width="621"/>
  <unicode hex="00D4"/>
  <outline>
    <contour>
      <point x="291" y="840" type="line" smooth="yes"/>
      <point x="390" y="935" type="line" smooth="yes"/>
      <point x="463" y="840" type="line" smooth="yes"/>
      <point x="486" y="840" type="line" smooth="yes"/>
      <point x="401" y="950" type="line" smooth="yes"/>
      <point x="381" y="950" type="line" smooth="yes"/>
      <point x="266" y="840" type="line" smooth="yes"/>
    </contour>
    <contour>
      <point x="361" y="786" type="line" smooth="yes"/>
      <point x="219" y="748" type="line" smooth="yes"/>
      <point x="123" y="625" type="line" smooth="yes"/>
      <point x="68" y="402" type="line" smooth="yes"/>
      <point x="65" y="378" type="line" smooth="yes"/>
      <point x="66" y="158" type="line" smooth="yes"/>
      <point x="137" y="34" type="line" smooth="yes"/>
      <point x="272" y="-6" type="line" smooth="yes"/>
      <point x="414" y="32" type="line" smooth="yes"/>
      <point x="510" y="155" type="line" smooth="yes"/>
      <point x="565" y="378" type="line" smooth="yes"/>
      <point x="568" y="402" type="line" smooth="yes"/>
      <point x="567" y="622" type="line" smooth="yes"/>
      <point x="496" y="746" type="line" smooth="yes"/>
    </contour>
    <contour>
      <point x="269" y="14" type="line" smooth="yes"/>
      <point x="147" y="51" type="line" smooth="yes"/>
      <point x="85" y="168" type="line" smooth="yes"/>
      <point x="86" y="378" type="line" smooth="yes"/>
      <point x="89" y="402" type="line" smooth="yes"/>
      <point x="140" y="614" type="line" smooth="yes"/>
      <point x="228" y="730" type="line" smooth="yes"/>
      <point x="358" y="766" type="line" smooth="yes"/>
      <point x="364" y="766" type="line" smooth="yes"/>
      <point x="486" y="729" type="line" smooth="yes"/>
      <point x="548" y="612" type="line" smooth="yes"/>
      <point x="547" y="402" type="line" smooth="yes"/>
      <point x="544" y="378" type="line" smooth="yes"/>
      <point x="493" y="166" type="line" smooth="yes"/>
      <point x="405" y="50" type="line" smooth="yes"/>
      <point x="275" y="14" type="line" smooth="yes"/>
    </contour>
  </outline>
</glyph>
<glyph name="multiply" format="1">
  <advance width="600"/>
  <unicode hex="00D7"/>
  <outline>
    <contour>
      <point x="77" y="630" type="line" smooth="yes"/>
      <point x="286" y="390" type="line" smooth="yes"/>
      <point x="14" y="150" type="line" smooth="yes"/>
      <point x="29" y="135" type="line" smooth="yes"/>
      <point x="301" y="375" type="line" smooth="yes"/>
      <point x="509" y="135" type="line" smooth="yes"/>
      <point x="524" y="150" type="line" smooth="yes"/>
      <point x="316" y="390" type="line" smooth="yes"/>
      <point x="587" y="630" type="line" smooth="yes"/>
      <point x="572" y="645" type="line" smooth="yes"/>
      <point x="301" y="405" type="line" smooth="yes"/>
      <point x="92" y="645" type="line" smooth="yes"/>
    </contour>
  </outline>
</glyph>
<glyph name="Oslash" format="1">
  <advance width="626"/>
  <unicode hex="00D8"/>
  <outline>
    <contour>
      <point x="544" y="378" type="line" smooth="yes"/>
      <point x="493" y="166" type="line" smooth="yes"/>
      <point x="405" y="50" type="line" smooth="yes"/>
      <point x="275" y="14" type="line" smooth="yes"/>
      <point x="269" y="14" type="line" smooth="yes"/>
      <point x="202" y="23" type="line" smooth="yes"/>
      <point x="149" y="50" type="line" smooth="yes"/>
      <point x="110" y="96" type="line" smooth="yes"/>
      <point x="532" y="665" type="line" smooth="yes"/>
      <point x="550" y="597" type="line" smooth="yes"/>
      <point x="555" y="510" type="line" smooth="yes"/>
      <point x="547" y="402" type="line" smooth="yes"/>
    </contour>
    <contour>
      <point x="39" y="0" type="line" smooth="yes"/>
      <point x="97" y="78" type="line" smooth="yes"/>
      <point x="141" y="31" type="line" smooth="yes"/>
      <point x="199" y="3" type="line" smooth="yes"/>
      <point x="272" y="-6" type="line" smooth="yes"/>
      <point x="414" y="32" type="line" smooth="yes"/>
      <point x="510" y="155" type="line" smooth="yes"/>
      <point x="565" y="378" type="line" smooth="yes"/>
      <point x="568" y="402" type="line" smooth="yes"/>
      <point x="576" y="518" type="line" smooth="yes"/>
      <point x="569" y="612" type="line" smooth="yes"/>
      <point x="546" y="684" type="line" smooth="yes"/>
      <point x="617" y="780" type="line" smooth="yes"/>
      <point x="594" y="780" type="line" smooth="yes"/>
      <point x="536" y="702" type="line" smooth="yes"/>
      <point x="492" y="749" type="line" smooth="yes"/>
      <point x="434" y="777" type="line" smooth="yes"/>
      <point x="361" y="786" type="line" smooth="yes"/>
      <point x="219" y="748" type="line" smooth="yes"/>
      <point x="123" y="625" type="line" smooth="yes"/>
      <point x="68" y="402" type="line" smooth="yes"/>
      <point x="65" y="378" type="line" smooth="yes"/>
      <point x="57" y="262" type="line" smooth="yes"/>
      <point x="64" y="168" type="line" smooth="yes"/>
      <point x="87" y="96" type="line" smooth="yes"/>
      <point x="16" y="0" type="line" smooth="yes"/>
    </contour>
    <contour>
      <point x="86" y="378" type="line" smooth="yes"/>
      <point x="89" y="402" type="line" smooth="yes"/>
      <point x="140" y="614" type="line" smooth="yes"/>
      <point x="228" y="730" type="line" smooth="yes"/>
      <point x="358" y="766" type="line" smooth="yes"/>
      <point x="364" y="766" type="line" smooth="yes"/>
      <point x="431" y="757" type="line" smooth="yes"/>
      <point x="484" y="730" type="line" smooth="yes"/>
      <point x="523" y="684" type="line" smooth="yes"/>
      <point x="101" y="115" type="line" smooth="yes"/>
      <point x="83" y="183" type="line" smooth="yes"/>
      <point x="78" y="270" type="line" smooth="yes"/>
    </contour>
  </outline>
</glyph>
<glyph name="Ugrave" format="1">
  <advance width="620"/>
  <unicode hex="00D9"/>
  <outline>
    <contour>
      <point x="313" y="950" type="line" smooth="yes"/>
      <point x="360" y="840" type="line" smooth="yes"/>
      <point x="382" y="840" type="line" smooth="yes"/>
      <point x="335" y="950" type="line" smooth="yes"/>
    </contour>
    <contour>
      <point x="267" y="-6" type="line" smooth="yes"/>
      <point x="391" y="15" type="line" smooth="yes"/>
      <point x="478" y="90" type="line" smooth="yes"/>
      <point x="525" y="239" type="line" smooth="yes"/>
      <point x="596" y="780" type="line" smooth="yes"/>
      <point x="576" y="780" type="line" smooth="yes"/>
      <point x="506" y="245" type="line" smooth="yes"/>
      <point x="463" y="105" type="line" smooth="yes"/>
      <point x="384" y="34" type="line" smooth="yes"/>
      <point x="267" y="14" type="line" smooth="yes"/>
      <point x="153" y="33" type="line" smooth="yes"/>
      <point x="88" y="104" type="line" smooth="yes"/>
      <point x="80" y="244" type="line" smooth="yes"/>
      <point x="150" y="780" type="line" smooth="yes"/>
      <point x="130" y="780" type="line" smooth="yes"/>
      <point x="59" y="239" type="line" smooth="yes"/>
      <point x="71" y="90" type="line" smooth="yes"/>
      <point x="145" y="15" type="line" smooth="yes"/>
    </contour>
  </outline>
</glyph>
<glyph name="Ucircumflex" format="1">
  <advance width="620"/>
  <unicode hex="00DB"/>
  <outline>
    <contour>
      <point x="286" y="840" type="line" smooth="yes"/>
      <point x="385" y="935" type="line" smooth="yes"/>
      <point x="458" y="840" type="line" smooth="yes"/>
      <point x="481" y="840" type="line" smooth="yes"/>
      <point x="396" y="950" type="line" smooth="yes"/>
      <point x="376" y="950" type="line" smooth="yes"/>
      <point x="261" y="840" type="line" smooth="yes"/>
    </contour>
    <contour>
      <point x="267" y="-6" type="line" smooth="yes"/>
      <point x="391" y="15" type="line" smooth="yes"/>
      <point x="478" y="90" type="line" smooth="yes"/>
      <point x="525" y="239" type="line" smooth="yes"/>
      <point x="596" y="780" type="line" smooth="yes"/>
      <point x="576" y="780" type="line" smooth="yes"/>
      <point x="506" y="245" type="line" smooth="yes"/>
      <point x="463" y="105" type="line" smooth="yes"/>
      <point x="384" y="34" type="line" smooth="yes"/>
      <point x="267" y="14" type="line" smooth="yes"/>
      <point x="153" y="33" type="line" smooth="yes"/>
      <point x="88" y="104" type="line" smooth="yes"/>
      <point x="80" y="244" type="line" smooth="yes"/>
      <point x="150" y="780" type="line" smooth="yes"/>
      <point x="130" y="780" type="line" smooth="yes"/>
      <point x="59" y="239" type="line" smooth="yes"/>
      <point x="71" y="90" type="line" smooth="yes"/>
      <point x="145" y="15" type="line" smooth="yes"/>
    </contour>
  </outline>
</glyph>
<glyph name="Udieresis" format="1">
  <advance width="620"/>
  <unicode hex="00DC"/>
  <outline>
    <contour>
      <point x="471" y="915" type="line" smooth="yes"/>
      <point x="431" y="915" type="line" smooth="yes"/>
      <point x="426" y="875" type="line" smooth="yes"/>
      <point x="466" y="875" type="line" smooth="yes"/>
    </contour>
    <contour>
      <point x="331" y="915" type="line" smooth="yes"/>
      <point x="291" y="915" type="line" smooth="yes"/>
      <point x="286" y="875" type="line" smooth="yes"/>
      <point x="326" y="875" type="line" smooth="yes"/>
    </contour>
    <contour>
      <point x="267" y="-6" type="line" smooth="yes"/>
      <point x="391" y="15" type="line" smooth="yes"/>
      <point x="478" y="90" type="line" smooth="yes"/>
      <point x="525" y="239" type="line" smooth="yes"/>
      <point x="596" y="780" type="line" smooth="yes"/>
      <point x="576" y="780" type="line" smooth="yes"/>
      <point x="506" y="245" type="line" smooth="yes"/>
      <point x="463" y="105" type="line" smooth="yes"/>
      <point x="384" y="34" type="line" smooth="yes"/>
      <point x="267" y="14" type="line" smooth="yes"/>
      <point x="153" y="33" type="line" smooth="yes"/>
      <point x="88" y="104" type="line" smooth="yes"/>
      <point x="80" y="244" type="line" smooth="yes"/>
      <point x="150" y="780" type="line" smooth="yes"/>
      <point x="130" y="780" type="line" smooth="yes"/>
      <point x="59" y="239" type="line" smooth="yes"/>
      <point x="71" y="90" type="line" smooth="yes"/>
      <point x="145" y="15" type="line" smooth="yes"/>
    </contour>
  </outline>
</glyph>
<glyph name="Thorn" format="1">
  <advance width="541"/>
  <unicode hex="00DE"/>
  <outline>
    <contour>
      <point x="153" y="780" type="line" smooth="yes"/>
      <point x="133" y="780" type="line" smooth="yes"/>
      <point x="31" y="0" type="line" smooth="yes"/>
      <point x="51" y="0" type="line" smooth="yes"/>
      <point x="73" y="170" type="line" smooth="yes"/>
      <point x="248" y="170" type="line" smooth="yes"/>
      <point x="354" y="186" type="line" smooth="yes"/>
      <point x="445" y="248" type="line" smooth="yes"/>
      <point x="495" y="375" type="line" smooth="yes"/>
      <point x="498" y="399" type="line" smooth="yes"/>
      <point x="480" y="526" type="line" smooth="yes"/>
      <point x="404" y="591" type="line" smooth="yes"/>
      <point x="298" y="610" type="line" smooth="yes"/>
      <point x="131" y="610" type="line" smooth="yes"/>
    </contour>
    <contour>
      <point x="76" y="190" type="line" smooth="yes"/>
      <point x="128" y="590" type="line" smooth="yes"/>
      <point x="298" y="590" type="line" smooth="yes"/>
      <point x="385" y="576" type="line" smooth="yes"/>
      <point x="458" y="520" type="line" smooth="yes"/>
      <point x="477" y="399" type="line" smooth="yes"/>
      <point x="474" y="375" type="line" smooth="yes"/>
      <point x="425" y="255" type="line" smooth="yes"/>
      <point x="339" y="202" type="line" smooth="yes"/>
      <point x="248" y="190" type="line" smooth="yes"/>
    </contour>
  </outline>
</glyph>
<glyph name="germandbls" format="1">
  <advance width="548"/>
  <unicode hex="00DF"/>
  <outline>
    <contour>
      <point x="261" y="393" type="line" smooth="yes"/>
      <point x="312" y="356" type="line" smooth="yes"/>
      <point x="390" y="299" type="line" smooth="yes"/>
      <point x="443" y="243" type="line" smooth="yes"/>
      <point x="463" y="176" type="line" smooth="yes"/>
      <point x="443" y="90" type="line" smooth="yes"/>
      <point x="388" y="34" type="line" smooth="yes"/>
      <point x="305" y="14" type="line" smooth="yes"/>
      <point x="223" y="34" type="line" smooth="yes"/>
      <point x="184" y="87" type="line" smooth="yes"/>
      <point x="182" y="160" type="line" smooth="yes"/>
      <point x="162" y="160" type="line" smooth="yes"/>
      <point x="160" y="144" type="line" smooth="yes"/>
      <point x="167" y="73" type="line" smooth="yes"/>
      <point x="212" y="17" type="line" smooth="yes"/>
      <point x="305" y="-6" type="line" smooth="yes"/>
      <point x="399" y="18" type="line" smooth="yes"/>
      <point x="456" y="75" type="line" smooth="yes"/>
      <point x="480" y="149" type="line" smooth="yes"/>
      <point x="481" y="157" type="line" smooth="yes"/>
      <point x="471" y="234" type="line" smooth="yes"/>
      <point x="420" y="298" type="line" smooth="yes"/>
      <point x="333" y="365" type="line" smooth="yes"/>
      <point x="285" y="399" type="line" smooth="yes"/>
      <point x="378" y="459" type="line" smooth="yes"/>
      <point x="441" y="526" type="line" smooth="yes"/>
      <point x="470" y="606" type="line" smooth="yes"/>
      <point x="471" y="614" type="line" smooth="yes"/>
      <point x="466" y="712" type="line" smooth="yes"/>
      <point x="415" y="780" type="line" smooth="yes"/>
      <point x="310" y="806" type="line" smooth="yes"/>
      <point x="207" y="782" type="line" smooth="yes"/>
      <point x="142" y="716" type="line" smooth="yes"/>
      <point x="111" y="614" type="line" smooth="yes"/>
      <point x="31" y="0" type="line" smooth="yes"/>
      <point x="51" y="0" type="line" smooth="yes"/>
      <point x="131" y="610" type="line" smooth="yes"/>
      <point x="159" y="705" type="line" smooth="yes"/>
      <point x="216" y="765" type="line" smooth="yes"/>
      <point x="310" y="786" type="line" smooth="yes"/>
      <point x="392" y="770" type="line" smooth="yes"/>
      <point x="439" y="723" type="line" smooth="yes"/>
      <point x="454" y="648" type="line" smooth="yes"/>
      <point x="432" y="548" type="line" smooth="yes"/>
      <point x="367" y="472" type="line" smooth="yes"/>
      <point x="263" y="408" type="line" smooth="yes"/>
    </contour>
  </outline>
</glyph>
<glyph name="agrave" format="1">
  <advance width="482"/>
  <unicode hex="00E0"/>
  <outline>
    <contour>
      <point x="197" y="780" type="line" smooth="yes"/>
      <point x="266" y="620" type="line" smooth="yes"/>
      <point x="288" y="620" type="line" smooth="yes"/>
      <point x="219" y="780" type="line" smooth="yes"/>
    </contour>
    <contour>
      <point x="158" y="14" type="line" smooth="yes"/>
      <point x="86" y="29" type="line" smooth="yes"/>
      <point x="46" y="70" type="line" smooth="yes"/>
      <point x="38" y="128" type="line" smooth="yes"/>
      <point x="40" y="144" type="line" smooth="yes"/>
      <point x="68" y="215" type="line" smooth="yes"/>
      <point x="122" y="251" type="line" smooth="yes"/>
      <point x="193" y="267" type="line" smooth="yes"/>
      <point x="384" y="296" type="line" smooth="yes"/>
      <point x="360" y="111" type="line" smooth="yes"/>
      <point x="325" y="72" type="line" smooth="yes"/>
      <point x="261" y="32" type="line" smooth="yes"/>
    </contour>
    <contour>
      <point x="18" y="128" type="line" smooth="yes"/>
      <point x="31" y="53" type="line" smooth="yes"/>
      <point x="81" y="9" type="line" smooth="yes"/>
      <point x="158" y="-6" type="line" smooth="yes"/>
      <point x="254" y="9" type="line" smooth="yes"/>
      <point x="319" y="44" type="line" smooth="yes"/>
      <point x="360" y="86" type="line" smooth="yes"/>
      <point x="355" y="0" type="line" smooth="yes"/>
      <point x="371" y="0" type="line" smooth="yes"/>
      <point x="381" y="118" type="line" smooth="yes"/>
      <point x="413" y="364" type="line" smooth="yes"/>
      <point x="410" y="450" type="line" smooth="yes"/>
      <point x="366" y="512" type="line" smooth="yes"/>
      <point x="263" y="536" type="line" smooth="yes"/>
      <point x="153" y="511" type="line" smooth="yes"/>
      <point x="96" y="449" type="line" smooth="yes"/>
      <point x="74" y="366" type="line" smooth="yes"/>
      <point x="72" y="350" type="line" smooth="yes"/>
      <point x="92" y="350" type="line" smooth="yes"/>
      <point x="113" y="435" type="line" smooth="yes"/>
      <point x="164" y="494" type="line" smooth="yes"/>
      <point x="263" y="516" type="line" smooth="yes"/>
      <point x="356" y="494" type="line" smooth="yes"/>
      <point x="392" y="436" type="line" smooth="yes"/>
      <point x="392" y="354" type="line" smooth="yes"/>
      <point x="387" y="316" type="line" smooth="yes"/>
      <point x="203" y="288" type="line" smooth="yes"/>
      <point x="119" y="269" type="line" smooth="yes"/>
      <point x="54" y="227" type="line" smooth="yes"/>
      <point x="20" y="144" type="line" smooth="yes"/>
    </contour>
  </outline>
</glyph>
<glyph name="atilde" format="1">
  <advance width="485"/>
  <unicode hex="00E3"/>
  <outline>
    <contour>
      <point x="409" y="732" type="line" smooth="yes"/>
      <point x="397" y="699" type="line" smooth="yes"/>
      <point x="378" y="683" type="line" smooth="yes"/>
      <point x="355" y="680" type="line" smooth="yes"/>
      <point x="311" y="695" type="line" smooth="yes"/>
      <point x="268" y="723" type="line" smooth="yes"/>
      <point x="220" y="738" type="line" smooth="yes"/>
      <point x="190" y="732" type="line" smooth="yes"/>
      <point x="163" y="711" type="line" smooth="yes"/>
      <point x="148" y="668" type="line" smooth="yes"/>
      <point x="166" y="668" type="line" smooth="yes"/>
      <point x="178" y="701" type="line" smooth="yes"/>
      <point x="197" y="717" type="line" smooth="yes"/>
      <point x="220" y="720" type="line" smooth="yes"/>
      <point x="264" y="705" type="line" smooth="yes"/>
      <point x="307" y="677" type="line" smooth="yes"/>
      <point x="355" y="662" type="line" smooth="yes"/>
      <point x="385" y="668" type="line" smooth="yes"/>
      <point x="412" y="689" type="line" smooth="yes"/>
      <point x="427" y="732" type="line" smooth="yes"/>
    </contour>
    <contour>
      <point x="158" y="14" type="line" smooth="yes"/>
      <point x="86" y="29" type="line" smooth="yes"/>
      <point x="46" y="70" type="line" smooth="yes"/>
      <point x="38" y="128" type="line" smooth="yes"/>
      <point x="40" y="144" type="line" smooth="yes"/>
      <point x="68" y="215" type="line" smooth="yes"/>
      <point x="122" y="251" type="line" smooth="yes"/>
      <point x="193" y="267" type="line" smooth="yes"/>
      <point x="384" y="296" type="line" smooth="yes"/>
      <point x="360" y="111" type="line" smooth="yes"/>
      <point x="325" y="72" type="line" smooth="yes"/>
      <point x="261" y="32" type="line" smooth="yes"/>
    </contour>
    <contour>
      <point x="18" y="128" type="line" smooth="yes"/>
      <point x="31" y="53" type="line" smooth="yes"/>
      <point x="81" y="9" type="line" smooth="yes"/>
      <point x="158" y="-6" type="line" smooth="yes"/>
      <point x="254" y="9" type="line" smooth="yes"/>
      <point x="319" y="44" type="line" smooth="yes"/>
      <point x="360" y="86" type="line" smooth="yes"/>
      <point x="355" y="0" type="line" smooth="yes"/>
      <point x="371" y="0" type="line" smooth="yes"/>
      <point x="381" y="118" type="line" smooth="yes"/>
      <point x="413" y="364" type="line" smooth="yes"/>
      <point x="410" y="450" type="line" smooth="yes"/>
      <point x="366" y="512" type="line" smooth="yes"/>
      <point x="263" y="536" type="line" smooth="yes"/>
      <point x="153" y="511" type="line" smooth="yes"/>
      <point x="96" y="449" type="line" smooth="yes"/>
      <point x="74" y="366" type="line" smooth="yes"/>
      <point x="72" y="350" type="line" smooth="yes"/>
      <point x="92" y="350" type="line" smooth="yes"/>
      <point x="113" y="435" type="line" smooth="yes"/>
      <point x="164" y="494" type="line" smooth="yes"/>
      <point x="263" y="516" type="line" smooth="yes"/>
      <point x="356" y="494" type="line" smooth="yes"/>
      <point x="392" y="436" type="line" smooth="yes"/>
      <point x="392" y="354" type="line" smooth="yes"/>
      <point x="387" y="316" type="line" smooth="yes"/>
      <point x="203" y="288" type="line" smooth="yes"/>
      <point x="119" y="269" type="line" smooth="yes"/>
      <point x="54" y="227" type="line" smooth="yes"/>
      <point x="20" y="144" type="line" smooth="yes"/>
    </contour>
  </outline>
</glyph>
<glyph name="aring" format="1">
  <advance width="482"/>
  <unicode hex="00E5"/>
  <outline>
    <contour>
      <point x="295" y="786" type="line" smooth="yes"/>
      <point x="248" y="773" type="line" smooth="yes"/>
      <point x="214" y="739" type="line" smooth="yes"/>
      <point x="200" y="692" type="line" smooth="yes"/>
      <point x="210" y="650" type="line" smooth="yes"/>
      <point x="237" y="624" type="line" smooth="yes"/>
      <point x="280" y="614" type="line" smooth="yes"/>
      <point x="327" y="627" type="line" smooth="yes"/>
      <point x="361" y="661" type="line" smooth="yes"/>
      <point x="375" y="708" type="line" smooth="yes"/>
      <point x="365" y="750" type="line" smooth="yes"/>
      <point x="338" y="776" type="line" smooth="yes"/>
    </contour>
    <contour>
      <point x="295" y="768" type="line" smooth="yes"/>
      <point x="327" y="761" type="line" smooth="yes"/>
      <point x="348" y="741" type="line" smooth="yes"/>
      <point x="356" y="708" type="line" smooth="yes"/>
      <point x="346" y="668" type="line" smooth="yes"/>
      <point x="319" y="642" type="line" smooth="yes"/>
      <point x="280" y="632" type="line" smooth="yes"/>
      <point x="248" y="639" type="line" smooth="yes"/>
      <point x="227" y="659" type="line" smooth="yes"/>
      <point x="219" y="692" type="line" smooth="yes"/>
      <point x="229" y="732" type="line" smooth="yes"/>
      <point x="256" y="758" type="line" smooth="yes"/>
    </contour>
    <contour>
      <point x="158" y="14" type="line" smooth="yes"/>
      <point x="86" y="29" type="line" smooth="yes"/>
      <point x="46" y="70" type="line" smooth="yes"/>
      <point x="38" y="128" type="line" smooth="yes"/>
      <point x="40" y="144" type="line" smooth="yes"/>
      <point x="68" y="215" type="line" smooth="yes"/>
      <point x="122" y="251" type="line" smooth="yes"/>
      <point x="193" y="267" type="line" smooth="yes"/>
      <point x="384" y="296" type="line" smooth="yes"/>
      <point x="360" y="111" type="line" smooth="yes"/>
      <point x="325" y="72" type="line" smooth="yes"/>
      <point x="261" y="32" type="line" smooth="yes"/>
    </contour>
    <contour>
      <point x="18" y="128" type="line" smooth="yes"/>
      <point x="31" y="53" type="line" smooth="yes"/>
      <point x="81" y="9" type="line" smooth="yes"/>
      <point x="158" y="-6" type="line" smooth="yes"/>
      <point x="254" y="9" type="line" smooth="yes"/>
      <point x="319" y="44" type="line" smooth="yes"/>
      <point x="360" y="86" type="line" smooth="yes"/>
      <point x="355" y="0" type="line" smooth="yes"/>
      <point x="371" y="0" type="line" smooth="yes"/>
      <point x="381" y="118" type="line" smooth="yes"/>
      <point x="413" y="364" type="line" smooth="yes"/>
      <point x="410" y="450" type="line" smooth="yes"/>
      <point x="366" y="512" type="line" smooth="yes"/>
      <point x="263" y="536" type="line" smooth="yes"/>
      <point x="153" y="511" type="line" smooth="yes"/>
      <point x="96" y="449" type="line" smooth="yes"/>
      <point x="74" y="366" type="line" smooth="yes"/>
      <point x="72" y="350" type="line" smooth="yes"/>
      <point x="92" y="350" type="line" smooth="yes"/>
      <point x="113" y="435" type="line" smooth="yes"/>
      <point x="164" y="494" type="line" smooth="yes"/>
      <point x="263" y="516" type="line" smooth="yes"/>
      <point x="356" y="494" type="line" smooth="yes"/>
      <point x="392" y="436" type="line" smooth="yes"/>
      <point x="392" y="354" type="line" smooth="yes"/>
      <point x="387" y="316" type="line" smooth="yes"/>
      <point x="203" y="288" type="line" smooth="yes"/>
      <point x="119" y="269" type="line" smooth="yes"/>
      <point x="54" y="227" type="line" smooth="yes"/>
      <point x="20" y="144" type="line" smooth="yes"/>
    </contour>
  </outline>
</glyph>
<glyph name="ae" format="1">
  <advance width="860"/>
  <unicode hex="00E6"/>
  <outline>
    <contour>
      <point x="622" y="516" type="line" smooth="yes"/>
      <point x="727" y="485" type="line" smooth="yes"/>
      <point x="778" y="400" type="line" smooth="yes"/>
      <point x="782" y="275" type="line" smooth="yes"/>
      <point x="402" y="275" type="line" smooth="yes"/>
      <point x="440" y="404" type="line" smooth="yes"/>
      <point x="515" y="487" type="line" smooth="yes"/>
    </contour>
    <contour>
      <point x="573" y="-6" type="line" smooth="yes"/>
      <point x="693" y="19" type="line" smooth="yes"/>
      <point x="760" y="79" type="line" smooth="yes"/>
      <point x="786" y="154" type="line" smooth="yes"/>
      <point x="788" y="170" type="line" smooth="yes"/>
      <point x="768" y="170" type="line" smooth="yes"/>
      <point x="745" y="93" type="line" smooth="yes"/>
      <point x="683" y="36" type="line" smooth="yes"/>
      <point x="573" y="14" type="line" smooth="yes"/>
      <point x="469" y="43" type="line" smooth="yes"/>
      <point x="409" y="126" type="line" smooth="yes"/>
      <point x="399" y="255" type="line" smooth="yes"/>
      <point x="799" y="255" type="line" smooth="yes"/>
      <point x="801" y="271" type="line" smooth="yes"/>
      <point x="798" y="408" type="line" smooth="yes"/>
      <point x="742" y="501" type="line" smooth="yes"/>
      <point x="622" y="536" type="line" smooth="yes"/>
      <point x="539" y="521" type="line" smooth="yes"/>
      <point x="466" y="474" type="line" smooth="yes"/>
      <point x="414" y="392" type="line" smooth="yes"/>
      <point x="405" y="464" type="line" smooth="yes"/>
      <point x="360" y="516" type="line" smooth="yes"/>
      <point x="263" y="536" type="line" smooth="yes"/>
      <point x="153" y="511" type="line" smooth="yes"/>
      <point x="96" y="449" type="line" smooth="yes"/>
      <point x="74" y="366" type="line" smooth="yes"/>
      <point x="72" y="350" type="line" smooth="yes"/>
      <point x="92" y="350" type="line" smooth="yes"/>
      <point x="113" y="435" type="line" smooth="yes"/>
      <point x="164" y="494" type="line" smooth="yes"/>
      <point x="263" y="516" type="line" smooth="yes"/>
      <point x="356" y="494" type="line" smooth="yes"/>
      <point x="392" y="436" type="line" smooth="yes"/>
      <point x="392" y="354" type="line" smooth="yes"/>
      <point x="387" y="316" type="line" smooth="yes"/>
      <point x="203" y="288" type="line" smooth="yes"/>
      <point x="119" y="271" type="line" smooth="yes"/>
      <point x="54" y="232" type="line" smooth="yes"/>
      <point x="20" y="144" type="line" smooth="yes"/>
      <point x="18" y="128" type="line" smooth="yes"/>
      <point x="31" y="53" type="line" smooth="yes"/>
      <point x="81" y="9" type="line" smooth="yes"/>
      <point x="158" y="-6" type="line" smooth="yes"/>
      <point x="268" y="14" type="line" smooth="yes"/>
      <point x="341" y="63" type="line" smooth="yes"/>
      <point x="388" y="122" type="line" smooth="yes"/>
      <point x="424" y="56" type="line" smooth="yes"/>
      <point x="486" y="11" type="line" smooth="yes"/>
    </contour>
    <contour>
      <point x="158" y="14" type="line" smooth="yes"/>
      <point x="86" y="29" type="line" smooth="yes"/>
      <point x="46" y="70" type="line" smooth="yes"/>
      <point x="38" y="128" type="line" smooth="yes"/>
      <point x="40" y="144" type="line" smooth="yes"/>
      <point x="68" y="216" type="line" smooth="yes"/>
      <point x="122" y="251" type="line" smooth="yes"/>
      <point x="193" y="267" type="line" smooth="yes"/>
      <point x="384" y="296" type="line" smooth="yes"/>
      <point x="379" y="253" type="line" smooth="yes"/>
      <point x="376" y="215" type="line" smooth="yes"/>
      <point x="377" y="179" type="line" smooth="yes"/>
      <point x="382" y="143" type="line" smooth="yes"/>
      <point x="337" y="84" type="line" smooth="yes"/>
      <point x="265" y="35" type="line" smooth="yes"/>
    </contour>
  </outline>
</glyph>
<glyph name="ccedilla" format="1">
  <advance width="503"/>
  <unicode hex="00E7"/>
  <outline>
    <contour>
      <point x="116" y="-186" type="line" smooth="yes"/>
      <point x="140" y="-197" type="line" smooth="yes"/>
      <point x="168" y="-203" type="line" smooth="yes"/>
      <point x="197" y="-206" type="line" smooth="yes"/>
      <point x="243" y="-199" type="line" smooth="yes"/>
      <point x="279" y="-173" type="line" smooth="yes"/>
      <point x="293" y="-126" type="line" smooth="yes"/>
      <point x="281" y="-89" type="line" smooth="yes"/>
      <point x="252" y="-69" type="line" smooth="yes"/>
      <point x="215" y="-64" type="line" smooth="yes"/>
      <point x="208" y="-64" type="line" smooth="yes"/>
      <point x="202" y="-64" type="line" smooth="yes"/>
      <point x="196" y="-65" type="line" smooth="yes"/>
      <point x="225" y="-6" type="line" smooth="yes"/>
      <point x="333" y="21" type="line" smooth="yes"/>
      <point x="396" y="83" type="line" smooth="yes"/>
      <point x="422" y="159" type="line" smooth="yes"/>
      <point x="424" y="175" type="line" smooth="yes"/>
      <point x="404" y="175" type="line" smooth="yes"/>
      <point x="377" y="91" type="line" smooth="yes"/>
      <point x="317" y="35" type="line" smooth="yes"/>
      <point x="220" y="14" type="line" smooth="yes"/>
      <point x="120" y="43" type="line" smooth="yes"/>
      <point x="65" y="125" type="line" smooth="yes"/>
      <point x="59" y="253" type="line" smooth="yes"/>
      <point x="62" y="277" type="line" smooth="yes"/>
      <point x="99" y="405" type="line" smooth="yes"/>
      <point x="172" y="487" type="line" smooth="yes"/>
      <point x="278" y="516" type="line" smooth="yes"/>
      <point x="376" y="494" type="line" smooth="yes"/>
      <point x="423" y="433" type="line" smooth="yes"/>
      <point x="426" y="345" type="line" smooth="yes"/>
      <point x="446" y="345" type="line" smooth="yes"/>
      <point x="448" y="361" type="line" smooth="yes"/>
      <point x="442" y="444" type="line" smooth="yes"/>
      <point x="391" y="510" type="line" smooth="yes"/>
      <point x="278" y="536" type="line" smooth="yes"/>
      <point x="162" y="505" type="line" smooth="yes"/>
      <point x="82" y="416" type="line" smooth="yes"/>
      <point x="42" y="277" type="line" smooth="yes"/>
      <point x="39" y="253" type="line" smooth="yes"/>
      <point x="46" y="118" type="line" smooth="yes"/>
      <point x="103" y="29" type="line" smooth="yes"/>
      <point x="206" y="-6" type="line" smooth="yes"/>
      <point x="173" y="-73" type="line" smooth="yes"/>
      <point x="182" y="-84" type="line" smooth="yes"/>
      <point x="186" y="-83" type="line" smooth="yes"/>
      <point x="195" y="-83" type="line" smooth="yes"/>
      <point x="208" y="-82" type="line" smooth="yes"/>
      <point x="241" y="-85" type="line" smooth="yes"/>
      <point x="265" y="-97" type="line" smooth="yes"/>
      <point x="275" y="-126" type="line" smooth="yes"/>
      <point x="263" y="-165" type="line" smooth="yes"/>
      <point x="234" y="-183" type="line" smooth="yes"/>
      <point x="197" y="-188" type="line" smooth="yes"/>
      <point x="171" y="-186" type="line" smooth="yes"/>
      <point x="144" y="-179" type="line" smooth="yes"/>
      <point x="124" y="-170" type="line" smooth="yes"/>
    </contour>
  </outline>
</glyph>
<glyph name="edieresis" format="1">
  <advance width="525"/>
  <unicode hex="00EB"/>
  <outline>
    <contour>
      <point x="400" y="720" type="line" smooth="yes"/>
      <point x="360" y="720" type="line" smooth="yes"/>
      <point x="355" y="680" type="line" smooth="yes"/>
      <point x="395" y="680" type="line" smooth="yes"/>
    </contour>
    <contour>
      <point x="260" y="720" type="line" smooth="yes"/>
      <point x="220" y="720" type="line" smooth="yes"/>
      <point x="215" y="680" type="line" smooth="yes"/>
      <point x="255" y="680" type="line" smooth="yes"/>
    </contour>
    <contour>
      <point x="282" y="516" type="line" smooth="yes"/>
      <point x="387" y="485" type="line" smooth="yes"/>
      <point x="438" y="400" type="line" smooth="yes"/>
      <point x="442" y="275" type="line" smooth="yes"/>
      <point x="62" y="275" type="line" smooth="yes"/>
      <point x="100" y="404" type="line" smooth="yes"/>
      <point x="175" y="487" type="line" smooth="yes"/>
    </contour>
    <contour>
      <point x="459" y="255" type="line" smooth="yes"/>
      <point x="461" y="271" type="line" smooth="yes"/>
      <point x="458" y="408" type="line" smooth="yes"/>
      <point x="402" y="501" type="line" smooth="yes"/>
      <point x="282" y="536" type="line" smooth="yes"/>
      <point x="165" y="505" type="line" smooth="yes"/>
      <point x="83" y="416" type="line" smooth="yes"/>
      <point x="42" y="277" type="line" smooth="yes"/>
      <point x="39" y="253" type="line" smooth="yes"/>
      <point x="51" y="114" type="line" smooth="yes"/>
      <point x="119" y="25" type="line" smooth="yes"/>
      <point x="233" y="-6" type="line" smooth="yes"/>
      <point x="353" y="19" type="line" smooth="yes"/>
      <point x="420" y="79" type="line" smooth="yes"/>
      <point x="446" y="154" type="line" smooth="yes"/>
      <point x="448" y="170" type="line" smooth="yes"/>
      <point x="428" y="170" type="line" smooth="yes"/>
      <point x="405" y="93" type="line" smooth="yes"/>
      <point x="343" y="36" type="line" smooth="yes"/>
      <point x="233" y="14" type="line" smooth="yes"/>
      <point x="129" y="43" type="line" smooth="yes"/>
      <point x="69" y="126" type="line" smooth="yes"/>
      <point x="59" y="255" type="line" smooth="yes"/>
    </contour>
  </outline>
</glyph>
<glyph name="iacute" format="1">
  <advance width="180"/>
  <unicode hex="00ED"/>
  <outline>
    <contour>
      <point x="222" y="780" type="line" smooth="yes"/>
      <point x="111" y="620" type="line" smooth="yes"/>
      <point x="133" y="620" type="line" smooth="yes"/>
      <point x="244" y="780" type="line" smooth="yes"/>
    </contour>
    <contour>
      <point x="31" y="0" type="line" smooth="yes"/>
      <point x="51" y="0" type="line" smooth="yes"/>
      <point x="120" y="530" type="line" smooth="yes"/>
      <point x="100" y="530" type="line" smooth="yes"/>
    </contour>
  </outline>
</glyph>
<glyph name="icircumflex" format="1">
  <advance width="180"/>
  <unicode hex="00EE"/>
  <outline>
    <contour>
      <point x="257" y="620" type="line" smooth="yes"/>
      <point x="153" y="780" type="line" smooth="yes"/>
      <point x="133" y="780" type="line" smooth="yes"/>
      <point x="-13" y="620" type="line" smooth="yes"/>
      <point x="13" y="620" type="line" smooth="yes"/>
      <point x="142" y="762" type="line" smooth="yes"/>
      <point x="233" y="620" type="line" smooth="yes"/>
    </contour>
    <contour>
      <point x="31" y="0" type="line" smooth="yes"/>
      <point x="51" y="0" type="line" smooth="yes"/>
      <point x="120" y="530" type="line" smooth="yes"/>
      <point x="100" y="530" type="line" smooth="yes"/>
    </contour>
  </outline>
</glyph>
<glyph name="eth" format="1">
  <advance width="526"/>
  <unicode hex="00F0"/>
  <outline>
    <contour>
      <point x="423" y="806" type="line" smooth="yes"/>
      <point x="294" y="736" type="line" smooth="yes"/>
      <point x="235" y="771" type="line" smooth="yes"/>
      <point x="174" y="793" type="line" smooth="yes"/>
      <point x="113" y="806" type="line" smooth="yes"/>
      <point x="110" y="786" type="line" smooth="yes"/>
      <point x="160" y="775" type="line" smooth="yes"/>
      <point x="216" y="755" type="line" smooth="yes"/>
      <point x="273" y="724" type="line" smooth="yes"/>
      <point x="131" y="646" type="line" smooth="yes"/>
      <point x="127" y="622" type="line" smooth="yes"/>
      <point x="291" y="711" type="line" smooth="yes"/>
      <point x="322" y="686" type="line" smooth="yes"/>
      <point x="352" y="657" type="line" smooth="yes"/>
      <point x="379" y="623" type="line" smooth="yes"/>
      <point x="413" y="562" type="line" smooth="yes"/>
      <point x="434" y="495" type="line" smooth="yes"/>
      <point x="445" y="425" type="line" smooth="yes"/>
      <point x="410" y="485" type="line" smooth="yes"/>
      <point x="354" y="523" type="line" smooth="yes"/>
      <point x="278" y="536" type="line" smooth="yes"/>
      <point x="162" y="505" type="line" smooth="yes"/>
      <point x="82" y="416" type="line" smooth="yes"/>
      <point x="42" y="277" type="line" smooth="yes"/>
      <point x="39" y="253" type="line" smooth="yes"/>
      <point x="47" y="114" type="line" smooth="yes"/>
      <point x="109" y="25" type="line" smooth="yes"/>
      <point x="220" y="-6" type="line" smooth="yes"/>
      <point x="336" y="25" type="line" smooth="yes"/>
      <point x="416" y="114" type="line" smooth="yes"/>
      <point x="456" y="253" type="line" smooth="yes"/>
      <point x="459" y="277" type="line" smooth="yes"/>
      <point x="466" y="399" type="line" smooth="yes"/>
      <point x="448" y="523" type="line" smooth="yes"/>
      <point x="393" y="637" type="line" smooth="yes"/>
      <point x="367" y="669" type="line" smooth="yes"/>
      <point x="340" y="698" type="line" smooth="yes"/>
      <point x="312" y="723" type="line" smooth="yes"/>
      <point x="419" y="782" type="line" smooth="yes"/>
    </contour>
    <contour>
      <point x="220" y="14" type="line" smooth="yes"/>
      <point x="120" y="43" type="line" smooth="yes"/>
      <point x="65" y="125" type="line" smooth="yes"/>
      <point x="59" y="253" type="line" smooth="yes"/>
      <point x="62" y="277" type="line" smooth="yes"/>
      <point x="99" y="405" type="line" smooth="yes"/>
      <point x="172" y="487" type="line" smooth="yes"/>
      <point x="278" y="516" type="line" smooth="yes"/>
      <point x="378" y="487" type="line" smooth="yes"/>
      <point x="433" y="405" type="line" smooth="yes"/>
      <point x="439" y="277" type="line" smooth="yes"/>
      <point x="436" y="253" type="line" smooth="yes"/>
      <point x="399" y="125" type="line" smooth="yes"/>
      <point x="326" y="43" type="line" smooth="yes"/>
    </contour>
  </outline>
</glyph>
<glyph name="ntilde" format="1">
  <advance width="489"/>
  <unicode hex="00F1"/>
  <outline>
    <contour>
      <point x="414" y="732" type="line" smooth="yes"/>
      <point x="402" y="699" type="line" smooth="yes"/>
      <point x="383" y="683" type="line" smooth="yes"/>
      <point x="360" y="680" type="line" smooth="yes"/>
      <point x="316" y="695" type="line" smooth="yes"/>
      <point x="273" y="723" type="line" smooth="yes"/>
      <point x="225" y="738" type="line" smooth="yes"/>
      <point x="195" y="732" type="line" smooth="yes"/>
      <point x="168" y="711" type="line" smooth="yes"/>
      <point x="153" y="668" type="line" smooth="yes"/>
      <point x="171" y="668" type="line" smooth="yes"/>
      <point x="183" y="701" type="line" smooth="yes"/>
      <point x="202" y="717" type="line" smooth="yes"/>
      <point x="225" y="720" type="line" smooth="yes"/>
      <point x="269" y="705" type="line" smooth="yes"/>
      <point x="312" y="677" type="line" smooth="yes"/>
      <point x="360" y="662" type="line" smooth="yes"/>
      <point x="390" y="668" type="line" smooth="yes"/>
      <point x="417" y="689" type="line" smooth="yes"/>
      <point x="432" y="732" type="line" smooth="yes"/>
    </contour>
    <contour>
      <point x="381" y="0" type="line" smooth="yes"/>
      <point x="431" y="381" type="line" smooth="yes"/>
      <point x="421" y="470" type="line" smooth="yes"/>
      <point x="369" y="520" type="line" smooth="yes"/>
      <point x="283" y="536" type="line" smooth="yes"/>
      <point x="198" y="521" type="line" smooth="yes"/>
      <point x="137" y="487" type="line" smooth="yes"/>
      <point x="96" y="444" type="line" smooth="yes"/>
      <point x="101" y="530" type="line" smooth="yes"/>
      <point x="85" y="530" type="line" smooth="yes"/>
      <point x="75" y="412" type="line" smooth="yes"/>
      <point x="21" y="0" type="line" smooth="yes"/>
      <point x="41" y="0" type="line" smooth="yes"/>
      <point x="96" y="419" type="line" smooth="yes"/>
      <point x="138" y="463" type="line" smooth="yes"/>
      <point x="199" y="500" type="line" smooth="yes"/>
      <point x="283" y="516" type="line" smooth="yes"/>
      <point x="357" y="503" type="line" smooth="yes"/>
      <point x="402" y="457" type="line" smooth="yes"/>
      <point x="410" y="374" type="line" smooth="yes"/>
      <point x="361" y="0" type="line" smooth="yes"/>
    </contour>
  </outline>
</glyph>
<glyph name="ocircumflex" format="1">
  <advance width="522"/>
  <unicode hex="00F4"/>
  <outline>
    <contour>
      <point x="430" y="620" type="line" smooth="yes"/>
      <point x="326" y="780" type="line" smooth="yes"/>
      <point x="306" y="780" type="line" smooth="yes"/>
      <point x="160" y="620" type="line" smooth="yes"/>
      <point x="186" y="620" type="line" smooth="yes"/>
      <point x="315" y="762" type="line" smooth="yes"/>
      <point x="406" y="620" type="line" smooth="yes"/>
    </contour>
    <contour>
      <point x="220" y="14" type="line" smooth="yes"/>
      <point x="120" y="43" type="line" smooth="yes"/>
      <point x="65" y="125" type="line" smooth="yes"/>
      <point x="59" y="253" type="line" smooth="yes"/>
      <point x="62" y="277" type="line" smooth="yes"/>
      <point x="99" y="405" type="line" smooth="yes"/>
      <point x="172" y="487" type="line" smooth="yes"/>
      <point x="278" y="516" type="line" smooth="yes"/>
      <point x="378" y="487" type="line" smooth="yes"/>
      <point x="433" y="405" type="line" smooth="yes"/>
      <point x="439" y="277" type="line" smooth="yes"/>
      <point x="436" y="253" type="line" smooth="yes"/>
      <point x="399" y="125" type="line" smooth="yes"/>
      <point x="326" y="43" type="line" smooth="yes"/>
    </contour>
    <contour>
      <point x="220" y="-6" type="line" smooth="yes"/>
      <point x="336" y="25" type="line" smooth="yes"/>
      <point x="416" y="114" type="line" smooth="yes"/>
      <point x="456" y="253" type="line" smooth="yes"/>
      <point x="459" y="277" type="line" smooth="yes"/>
      <point x="451" y="416" type="line" smooth="yes"/>
      <point x="389" y="505" type="line" smooth="yes"/>
      <point x="278" y="536" type="line" smooth="yes"/>
      <point x="162" y="505" type="line" smooth="yes"/>
      <point x="82" y="416" type="line" smooth="yes"/>
      <point x="42" y="277" type="line" smooth="yes"/>
      <point x="39" y="253" type="line" smooth="yes"/>
      <point x="47" y="114" type="line" smooth="yes"/>
      <point x="109" y="25" type="line" smooth="yes"/>
    </contour>
  </outline>
</glyph>
<glyph name="otilde" format="1">
  <advance width="522"/>
  <unicode hex="00F5"/>
  <outline>
    <contour>
      <point x="427" y="732" type="line" smooth="yes"/>
      <point x="415" y="699" type="line" smooth="yes"/>
      <point x="396" y="683" type="line" smooth="yes"/>
      <point x="373" y="680" type="line" smooth="yes"/>
      <point x="329" y="695" type="line" smooth="yes"/>
      <point x="286" y="723" type="line" smooth="yes"/>
      <point x="238" y="738" type="line" smooth="yes"/>
      <point x="208" y="732" type="line" smooth="yes"/>
      <point x="181" y="711" type="line" smooth="yes"/>
      <point x="166" y="668" type="line" smooth="yes"/>
      <point x="184" y="668" type="line" smooth="yes"/>
      <point x="196" y="701" type="line" smooth="yes"/>
      <point x="215" y="717" type="line" smooth="yes"/>
      <point x="238" y="720" type="line" smooth="yes"/>
      <point x="282" y="705" type="line" smooth="yes"/>
      <point x="325" y="677" type="line" smooth="yes"/>
      <point x="373" y="662" type="line" smooth="yes"/>
      <point x="403" y="668" type="line" smooth="yes"/>
      <point x="430" y="689" type="line" smooth="yes"/>
      <point x="445" y="732" type="line" smooth="yes"/>
    </contour>
    <contour>
      <point x="220" y="14" type="line" smooth="yes"/>
      <point x="120" y="43" type="line" smooth="yes"/>
      <point x="65" y="125" type="line" smooth="yes"/>
      <point x="59" y="253" type="line" smooth="yes"/>
      <point x="62" y="277" type="line" smooth="yes"/>
      <point x="99" y="405" type="line" smooth="yes"/>
      <point x="172" y="487" type="line" smooth="yes"/>
      <point x="278" y="516" type="line" smooth="yes"/>
      <point x="378" y="487" type="line" smooth="yes"/>
      <point x="433" y="405" type="line" smooth="yes"/>
      <point x="439" y="277" type="line" smooth="yes"/>
      <point x="436" y="253" type="line" smooth="yes"/>
      <point x="399" y="125" type="line" smooth="yes"/>
      <point x="326" y="43" type="line" smooth="yes"/>
    </contour>
    <contour>
      <point x="220" y="-6" type="line" smooth="yes"/>
      <point x="336" y="25" type="line" smooth="yes"/>
      <point x="416" y="114" type="line" smooth="yes"/>
      <point x="456" y="253" type="line" smooth="yes"/>
      <point x="459" y="277" type="line" smooth="yes"/>
      <point x="451" y="416" type="line" smooth="yes"/>
      <point x="389" y="505" type="line" smooth="yes"/>
      <point x="278" y="536" type="line" smooth="yes"/>
      <point x="162" y="505" type="line" smooth="yes"/>
      <point x="82" y="416" type="line" smooth="yes"/>
      <point x="42" y="277" type="line" smooth="yes"/>
      <point x="39" y="253" type="line" smooth="yes"/>
      <point x="47" y="114" type="line" smooth="yes"/>
      <point x="109" y="25" type="line" smooth="yes"/>
    </contour>
  </outline>
</glyph>
<glyph name="oslash" format="1">
  <advance width="526"/>
  <unicode hex="00F8"/>
  <outline>
    <contour>
      <point x="436" y="253" type="line" smooth="yes"/>
      <point x="399" y="125" type="line" smooth="yes"/>
      <point x="326" y="43" type="line" smooth="yes"/>
      <point x="220" y="14" type="line" smooth="yes"/>
      <point x="168" y="20" type="line" smooth="yes"/>
      <point x="125" y="39" type="line" smooth="yes"/>
      <point x="92" y="70" type="line" smooth="yes"/>
      <point x="417" y="444" type="line" smooth="yes"/>
      <point x="435" y="398" type="line" smooth="yes"/>
      <point x="442" y="342" type="line" smooth="yes"/>
      <point x="439" y="277" type="line" smooth="yes"/>
    </contour>
    <contour>
      <point x="31" y="0" type="line" smooth="yes"/>
      <point x="78" y="54" type="line" smooth="yes"/>
      <point x="115" y="21" type="line" smooth="yes"/>
      <point x="163" y="1" type="line" smooth="yes"/>
      <point x="220" y="-6" type="line" smooth="yes"/>
      <point x="336" y="25" type="line" smooth="yes"/>
      <point x="416" y="114" type="line" smooth="yes"/>
      <point x="456" y="253" type="line" smooth="yes"/>
      <point x="459" y="277" type="line" smooth="yes"/>
      <point x="462" y="349" type="line" smooth="yes"/>
      <point x="453" y="410" type="line" smooth="yes"/>
      <point x="431" y="460" type="line" smooth="yes"/>
      <point x="492" y="530" type="line" smooth="yes"/>
      <point x="467" y="530" type="line" smooth="yes"/>
      <point x="420" y="476" type="line" smooth="yes"/>
      <point x="383" y="509" type="line" smooth="yes"/>
      <point x="335" y="529" type="line" smooth="yes"/>
      <point x="278" y="536" type="line" smooth="yes"/>
      <point x="162" y="505" type="line" smooth="yes"/>
      <point x="82" y="416" type="line" smooth="yes"/>
      <point x="42" y="277" type="line" smooth="yes"/>
      <point x="39" y="253" type="line" smooth="yes"/>
      <point x="36" y="181" type="line" smooth="yes"/>
      <point x="45" y="120" type="line" smooth="yes"/>
      <point x="67" y="70" type="line" smooth="yes"/>
      <point x="6" y="0" type="line" smooth="yes"/>
    </contour>
    <contour>
      <point x="59" y="253" type="line" smooth="yes"/>
      <point x="62" y="277" type="line" smooth="yes"/>
      <point x="99" y="405" type="line" smooth="yes"/>
      <point x="172" y="487" type="line" smooth="yes"/>
      <point x="278" y="516" type="line" smooth="yes"/>
      <point x="330" y="510" type="line" smooth="yes"/>
      <point x="373" y="491" type="line" smooth="yes"/>
      <point x="406" y="460" type="line" smooth="yes"/>
      <point x="81" y="86" type="line" smooth="yes"/>
      <point x="63" y="132" type="line" smooth="yes"/>
      <point x="56" y="188" type="line" smooth="yes"/>
    </contour>
  </outline>
</glyph>
<glyph name="uacute" format="1">
  <advance width="490"/>
  <unicode hex="00FA"/>
  <outline>
    <contour>
      <point x="372" y="780" type="line" smooth="yes"/>
      <point x="261" y="620" type="line" smooth="yes"/>
      <point x="283" y="620" type="line" smooth="yes"/>
      <point x="394" y="780" type="line" smooth="yes"/>
    </contour>
    <contour>
      <point x="80" y="530" type="line" smooth="yes"/>
      <point x="30" y="149" type="line" smooth="yes"/>
      <point x="40" y="60" type="line" smooth="yes"/>
      <point x="92" y="10" type="line" smooth="yes"/>
      <point x="178" y="-6" type="line" smooth="yes"/>
      <point x="263" y="9" type="line" smooth="yes"/>
      <point x="324" y="43" type="line" smooth="yes"/>
      <point x="365" y="86" type="line" smooth="yes"/>
      <point x="360" y="0" type="line" smooth="yes"/>
      <point x="376" y="0" type="line" smooth="yes"/>
      <point x="386" y="118" type="line" smooth="yes"/>
      <point x="440" y="530" type="line" smooth="yes"/>
      <point x="420" y="530" type="line" smooth="yes"/>
      <point x="365" y="111" type="line" smooth="yes"/>
      <point x="323" y="67" type="line" smooth="yes"/>
      <point x="262" y="30" type="line" smooth="yes"/>
      <point x="178" y="14" type="line" smooth="yes"/>
      <point x="104" y="27" type="line" smooth="yes"/>
      <point x="59" y="73" type="line" smooth="yes"/>
      <point x="51" y="156" type="line" smooth="yes"/>
      <point x="100" y="530" type="line" smooth="yes"/>
    </contour>
  </outline>
</glyph>
<glyph name="yacute" format="1">
  <advance width="460"/>
  <unicode hex="00FD"/>
  <outline>
    <contour>
      <point x="362" y="780" type="line" smooth="yes"/>
      <point x="251" y="620" type="line" smooth="yes"/>
      <point x="273" y="620" type="line" smooth="yes"/>
      <point x="384" y="780" type="line" smooth="yes"/>
    </contour>
    <contour>
      <point x="186" y="44" type="line" smooth="yes"/>
      <point x="68" y="530" type="line" smooth="yes"/>
      <point x="47" y="530" type="line" smooth="yes"/>
      <point x="174" y="17" type="line" smooth="yes"/>
      <point x="63" y="-200" type="line" smooth="yes"/>
      <point x="85" y="-200" type="line" smooth="yes"/>
      <point x="192" y="17" type="line" smooth="yes"/>
      <point x="453" y="530" type="line" smooth="yes"/>
      <point x="430" y="530" type="line" smooth="yes"/>
    </contour>
  </outline>
</glyph>
<glyph name="thorn" format="1">
  <advance width="506"/>
  <unicode hex="00FE"/>
  <outline>
    <contour>
      <point x="95" y="419" type="line" smooth="yes"/>
      <point x="138" y="467" type="line" smooth="yes"/>
      <point x="195" y="502" type="line" smooth="yes"/>
      <point x="268" y="516" type="line" smooth="yes"/>
      <point x="366" y="487" type="line" smooth="yes"/>
      <point x="417" y="405" type="line" smooth="yes"/>
      <point x="421" y="277" type="line" smooth="yes"/>
      <point x="418" y="253" type="line" smooth="yes"/>
      <point x="382" y="125" type="line" smooth="yes"/>
      <point x="312" y="43" type="line" smooth="yes"/>
      <point x="207" y="14" type="line" smooth="yes"/>
      <point x="134" y="29" type="line" smooth="yes"/>
      <point x="84" y="65" type="line" smooth="yes"/>
      <point x="54" y="107" type="line" smooth="yes"/>
    </contour>
    <contour>
      <point x="125" y="800" type="line" smooth="yes"/>
      <point x="-6" y="-200" type="line" smooth="yes"/>
      <point x="14" y="-200" type="line" smooth="yes"/>
      <point x="51" y="78" type="line" smooth="yes"/>
      <point x="81" y="40" type="line" smooth="yes"/>
      <point x="132" y="8" type="line" smooth="yes"/>
      <point x="207" y="-6" type="line" smooth="yes"/>
      <point x="322" y="25" type="line" smooth="yes"/>
      <point x="399" y="114" type="line" smooth="yes"/>
      <point x="438" y="253" type="line" smooth="yes"/>
      <point x="441" y="277" type="line" smooth="yes"/>
      <point x="435" y="416" type="line" smooth="yes"/>
      <point x="377" y="505" type="line" smooth="yes"/>
      <point x="268" y="536" type="line" smooth="yes"/>
      <point x="193" y="523" type="line" smooth="yes"/>
      <point x="137" y="490" type="line" smooth="yes"/>
      <point x="99" y="450" type="line" smooth="yes"/>
      <point x="145" y="800" type="line" smooth="yes"/>
    </contour>
  </outline>
</glyph>
<glyph name="ydieresis" format="1">
  <advance width="460"/>
  <unicode hex="00FF"/>
  <outline>
    <contour>
      <point x="365" y="720" type="line" smooth="yes"/>
      <point x="325" y="720" type="line" smooth="yes"/>
      <point x="320" y="680" type="line" smooth="yes"/>
      <point x="360" y="680" type="line" smooth="yes"/>
    </contour>
    <contour>
      <point x="225" y="720" type="line" smooth="yes"/>
      <point x="185" y="720" type="line" smooth="yes"/>
      <point x="180" y="680" type="line" smooth="yes"/>
      <point x="220" y="680" type="line" smooth="yes"/>
    </contour>
    <contour>
      <point x="186" y="44" type="line" smooth="yes"/>
      <point x="68" y="530" type="line" smooth="yes"/>
      <point x="47" y="530" type="line" smooth="yes"/>
      <point x="174" y="17" type="line" smooth="yes"/>
      <point x="63" y="-200" type="line" smooth="yes"/>
      <point x="85" y="-200" type="line" smooth="yes"/>
      <point x="192" y="17" type="line" smooth="yes"/>
      <point x="453" y="530" type="line" smooth="yes"/>
      <point x="430" y="530" type="line" smooth="yes"/>
    </contour>
  </outline>
</glyph>
<glyph name="Amacron" format="1">
  <advance width="590"/>
  <unicode hex="0100"/>
  <outline>
    <contour>
      <point x="262" y="885" type="line" smooth="yes"/>
      <point x="462" y="885" type="line" smooth="yes"/>
      <point x="465" y="905" type="line" smooth="yes"/>
      <point x="265" y="905" type="line" smooth="yes"/>
    </contour>
    <contour>
      <point x="347" y="760" type="line" smooth="yes"/>
      <point x="440" y="250" type="line" smooth="yes"/>
      <point x="119" y="250" type="line" smooth="yes"/>
    </contour>
    <contour>
      <point x="340" y="790" type="line" smooth="yes"/>
      <point x="-14" y="0" type="line" smooth="yes"/>
      <point x="8" y="0" type="line" smooth="yes"/>
      <point x="110" y="230" type="line" smooth="yes"/>
      <point x="444" y="230" type="line" smooth="yes"/>
      <point x="486" y="0" type="line" smooth="yes"/>
      <point x="506" y="0" type="line" smooth="yes"/>
      <point x="360" y="790" type="line" smooth="yes"/>
    </contour>
  </outline>
</glyph>
<glyph name="Abreve" format="1">
  <advance width="590"/>
  <unicode hex="0102"/>
  <outline>
    <contour>
      <point x="355" y="852" type="line" smooth="yes"/>
      <point x="296" y="864" type="line" smooth="yes"/>
      <point x="264" y="898" type="line" smooth="yes"/>
      <point x="258" y="950" type="line" smooth="yes"/>
      <point x="241" y="950" type="line" smooth="yes"/>
      <point x="248" y="889" type="line" smooth="yes"/>
      <point x="287" y="849" type="line" smooth="yes"/>
      <point x="356" y="834" type="line" smooth="yes"/>
      <point x="428" y="849" type="line" smooth="yes"/>
      <point x="477" y="889" type="line" smooth="yes"/>
      <point x="501" y="950" type="line" smooth="yes"/>
      <point x="482" y="950" type="line" smooth="yes"/>
      <point x="461" y="898" type="line" smooth="yes"/>
      <point x="418" y="864" type="line" smooth="yes"/>
    </contour>
    <contour>
      <point x="347" y="760" type="line" smooth="yes"/>
      <point x="440" y="250" type="line" smooth="yes"/>
      <point x="119" y="250" type="line" smooth="yes"/>
    </contour>
    <contour>
      <point x="340" y="790" type="line" smooth="yes"/>
      <point x="-14" y="0" type="line" smooth="yes"/>
      <point x="8" y="0" type="line" smooth="yes"/>
      <point x="110" y="230" type="line" smooth="yes"/>
      <point x="444" y="230" type="line" smooth="yes"/>
      <point x="486" y="0" type="line" smooth="yes"/>
      <point x="506" y="0" type="line" smooth="yes"/>
      <point x="360" y="790" type="line" smooth="yes"/>
    </contour>
  </outline>
</glyph>
<glyph name="abreve" format="1">
  <advance width="485"/>
  <unicode hex="0103"/>
  <outline>
    <contour>
      <point x="277" y="614" type="line" smooth="yes"/>
      <point x="364" y="637" type="line" smooth="yes"/>
      <point x="421" y="697" type="line" smooth="yes"/>
      <point x="448" y="780" type="line" smooth="yes"/>
      <point x="429" y="780" type="line" smooth="yes"/>
      <point x="406" y="706" type="line" smooth="yes"/>
      <point x="356" y="653" type="line" smooth="yes"/>
      <point x="277" y="632" type="line" smooth="yes"/>
      <point x="205" y="653" type="line" smooth="yes"/>
      <point x="169" y="706" type="line" smooth="yes"/>
      <point x="165" y="780" type="line" smooth="yes"/>
      <point x="148" y="780" type="line" smooth="yes"/>
      <point x="153" y="697" type="line" smooth="yes"/>
      <point x="196" y="637" type="line" smooth="yes"/>
    </contour>
    <contour>
      <point x="158" y="14" type="line" smooth="yes"/>
      <point x="86" y="29" type="line" smooth="yes"/>
      <point x="46" y="70" type="line" smooth="yes"/>
      <point x="38" y="128" type="line" smooth="yes"/>
      <point x="40" y="144" type="line" smooth="yes"/>
      <point x="68" y="215" type="line" smooth="yes"/>
      <point x="122" y="251" type="line" smooth="yes"/>
      <point x="193" y="267" type="line" smooth="yes"/>
      <point x="384" y="296" type="line" smooth="yes"/>
      <point x="360" y="111" type="line" smooth="yes"/>
      <point x="325" y="72" type="line" smooth="yes"/>
      <point x="261" y="32" type="line" smooth="yes"/>
    </contour>
    <contour>
      <point x="18" y="128" type="line" smooth="yes"/>
      <point x="31" y="53" type="line" smooth="yes"/>
      <point x="81" y="9" type="line" smooth="yes"/>
      <point x="158" y="-6" type="line" smooth="yes"/>
      <point x="254" y="9" type="line" smooth="yes"/>
      <point x="319" y="44" type="line" smooth="yes"/>
      <point x="360" y="86" type="line" smooth="yes"/>
      <point x="355" y="0" type="line" smooth="yes"/>
      <point x="371" y="0" type="line" smooth="yes"/>
      <point x="381" y="118" type="line" smooth="yes"/>
      <point x="413" y="364" type="line" smooth="yes"/>
      <point x="410" y="450" type="line" smooth="yes"/>
      <point x="366" y="512" type="line" smooth="yes"/>
      <point x="263" y="536" type="line" smooth="yes"/>
      <point x="153" y="511" type="line" smooth="yes"/>
      <point x="96" y="449" type="line" smooth="yes"/>
      <point x="74" y="366" type="line" smooth="yes"/>
      <point x="72" y="350" type="line" smooth="yes"/>
      <point x="92" y="350" type="line" smooth="yes"/>
      <point x="113" y="435" type="line" smooth="yes"/>
      <point x="164" y="494" type="line" smooth="yes"/>
      <point x="263" y="516" type="line" smooth="yes"/>
      <point x="356" y="494" type="line" smooth="yes"/>
      <point x="392" y="436" type="line" smooth="yes"/>
      <point x="392" y="354" type="line" smooth="yes"/>
      <point x="387" y="316" type="line" smooth="yes"/>
      <point x="203" y="288" type="line" smooth="yes"/>
      <point x="119" y="269" type="line" smooth="yes"/>
      <point x="54" y="227" type="line" smooth="yes"/>
      <point x="20" y="144" type="line" smooth="yes"/>
    </contour>
  </outline>
</glyph>
<glyph name="Aogonek" format="1">
  <advance width="590"/>
  <unicode hex="0104"/>
  <outline>
    <contour>
      <point x="521" y="-170" type="line" smooth="yes"/>
      <point x="502" y="-178" type="line" smooth="yes"/>
      <point x="477" y="-185" type="line" smooth="yes"/>
      <point x="446" y="-188" type="line" smooth="yes"/>
      <point x="414" y="-182" type="line" smooth="yes"/>
      <point x="391" y="-164" type="line" smooth="yes"/>
      <point x="382" y="-129" type="line" smooth="yes"/>
      <point x="403" y="-63" type="line" smooth="yes"/>
      <point x="452" y="-23" type="line" smooth="yes"/>
      <point x="506" y="0" type="line" smooth="yes"/>
      <point x="360" y="790" type="line" smooth="yes"/>
      <point x="340" y="790" type="line" smooth="yes"/>
      <point x="-14" y="0" type="line" smooth="yes"/>
      <point x="8" y="0" type="line" smooth="yes"/>
      <point x="110" y="230" type="line" smooth="yes"/>
      <point x="444" y="230" type="line" smooth="yes"/>
      <point x="484" y="10" type="line" smooth="yes"/>
      <point x="426" y="-17" type="line" smooth="yes"/>
      <point x="382" y="-61" type="line" smooth="yes"/>
      <point x="364" y="-129" type="line" smooth="yes"/>
      <point x="375" y="-173" type="line" smooth="yes"/>
      <point x="405" y="-198" type="line" smooth="yes"/>
      <point x="446" y="-206" type="line" smooth="yes"/>
      <point x="480" y="-203" type="line" smooth="yes"/>
      <point x="505" y="-196" type="line" smooth="yes"/>
      <point x="525" y="-187" type="line" smooth="yes"/>
    </contour>
    <contour>
      <point x="347" y="760" type="line" smooth="yes"/>
      <point x="440" y="250" type="line" smooth="yes"/>
      <point x="119" y="250" type="line" smooth="yes"/>
    </contour>
  </outline>
</glyph>
<glyph name="aogonek" format="1">
  <advance width="482"/>
  <unicode hex="0105"/>
  <outline>
    <contour>
      <point x="386" y="-170" type="line" smooth="yes"/>
      <point x="367" y="-178" type="line" smooth="yes"/>
      <point x="342" y="-185" type="line" smooth="yes"/>
      <point x="311" y="-188" type="line" smooth="yes"/>
      <point x="279" y="-182" type="line" smooth="yes"/>
      <point x="256" y="-164" type="line" smooth="yes"/>
      <point x="247" y="-129" type="line" smooth="yes"/>
      <point x="268" y="-63" type="line" smooth="yes"/>
      <point x="317" y="-23" type="line" smooth="yes"/>
      <point x="371" y="0" type="line" smooth="yes"/>
      <point x="381" y="118" type="line" smooth="yes"/>
      <point x="413" y="364" type="line" smooth="yes"/>
      <point x="410" y="450" type="line" smooth="yes"/>
      <point x="366" y="512" type="line" smooth="yes"/>
      <point x="263" y="536" type="line" smooth="yes"/>
      <point x="153" y="511" type="line" smooth="yes"/>
      <point x="96" y="449" type="line" smooth="yes"/>
      <point x="74" y="366" type="line" smooth="yes"/>
      <point x="72" y="350" type="line" smooth="yes"/>
      <point x="92" y="350" type="line" smooth="yes"/>
      <point x="113" y="435" type="line" smooth="yes"/>
      <point x="164" y="494" type="line" smooth="yes"/>
      <point x="263" y="516" type="line" smooth="yes"/>
      <point x="356" y="494" type="line" smooth="yes"/>
      <point x="392" y="436" type="line" smooth="yes"/>
      <point x="392" y="354" type="line" smooth="yes"/>
      <point x="387" y="316" type="line" smooth="yes"/>
      <point x="203" y="288" type="line" smooth="yes"/>
      <point x="119" y="269" type="line" smooth="yes"/>
      <point x="54" y="227" type="line" smooth="yes"/>
      <point x="20" y="144" type="line" smooth="yes"/>
      <point x="18" y="128" type="line" smooth="yes"/>
      <point x="31" y="53" type="line" smooth="yes"/>
      <point x="81" y="9" type="line" smooth="yes"/>
      <point x="158" y="-6" type="line" smooth="yes"/>
      <point x="254" y="9" type="line" smooth="yes"/>
      <point x="319" y="44" type="line" smooth="yes"/>
      <point x="360" y="86" type="line" smooth="yes"/>
      <point x="355" y="12" type="line" smooth="yes"/>
      <point x="295" y="-15" type="line" smooth="yes"/>
      <point x="248" y="-60" type="line" smooth="yes"/>
      <point x="229" y="-129" type="line" smooth="yes"/>
      <point x="240" y="-173" type="line" smooth="yes"/>
      <point x="270" y="-198" type="line" smooth="yes"/>
      <point x="311" y="-206" type="line" smooth="yes"/>
      <point x="345" y="-203" type="line" smooth="yes"/>
      <point x="370" y="-196" type="line" smooth="yes"/>
      <point x="390" y="-187" type="line" smooth="yes"/>
    </contour>
    <contour>
      <point x="158" y="14" type="line" smooth="yes"/>
      <point x="86" y="29" type="line" smooth="yes"/>
      <point x="46" y="70" type="line" smooth="yes"/>
      <point x="38" y="128" type="line" smooth="yes"/>
      <point x="40" y="144" type="line" smooth="yes"/>
      <point x="68" y="215" type="line" smooth="yes"/>
      <point x="122" y="251" type="line" smooth="yes"/>
      <point x="193" y="267" type="line" smooth="yes"/>
      <point x="384" y="296" type="line" smooth="yes"/>
      <point x="360" y="111" type="line" smooth="yes"/>
      <point x="325" y="72" type="line" smooth="yes"/>
      <point x="261" y="32" type="line" smooth="yes"/>
    </contour>
  </outline>
</glyph>
<glyph name="Ccircumflex" format="1">
  <advance width="587"/>
  <unicode hex="0108"/>
  <outline>
    <contour>
      <point x="291" y="840" type="line" smooth="yes"/>
      <point x="390" y="935" type="line" smooth="yes"/>
      <point x="463" y="840" type="line" smooth="yes"/>
      <point x="486" y="840" type="line" smooth="yes"/>
      <point x="401" y="950" type="line" smooth="yes"/>
      <point x="381" y="950" type="line" smooth="yes"/>
      <point x="266" y="840" type="line" smooth="yes"/>
    </contour>
    <contour>
      <point x="65" y="378" type="line" smooth="yes"/>
      <point x="65" y="158" type="line" smooth="yes"/>
      <point x="133" y="34" type="line" smooth="yes"/>
      <point x="267" y="-6" type="line" smooth="yes"/>
      <point x="396" y="22" type="line" smooth="yes"/>
      <point x="478" y="101" type="line" smooth="yes"/>
      <point x="516" y="226" type="line" smooth="yes"/>
      <point x="519" y="250" type="line" smooth="yes"/>
      <point x="499" y="250" type="line" smooth="yes"/>
      <point x="457" y="110" type="line" smooth="yes"/>
      <point x="379" y="36" type="line" smooth="yes"/>
      <point x="270" y="14" type="line" smooth="yes"/>
      <point x="264" y="14" type="line" smooth="yes"/>
      <point x="143" y="51" type="line" smooth="yes"/>
      <point x="84" y="168" type="line" smooth="yes"/>
      <point x="86" y="378" type="line" smooth="yes"/>
      <point x="89" y="402" type="line" smooth="yes"/>
      <point x="141" y="614" type="line" smooth="yes"/>
      <point x="232" y="730" type="line" smooth="yes"/>
      <point x="363" y="766" type="line" smooth="yes"/>
      <point x="369" y="766" type="line" smooth="yes"/>
      <point x="478" y="743" type="line" smooth="yes"/>
      <point x="532" y="660" type="line" smooth="yes"/>
      <point x="531" y="500" type="line" smooth="yes"/>
      <point x="551" y="500" type="line" smooth="yes"/>
      <point x="554" y="524" type="line" smooth="yes"/>
      <point x="549" y="676" type="line" smooth="yes"/>
      <point x="487" y="760" type="line" smooth="yes"/>
      <point x="366" y="786" type="line" smooth="yes"/>
      <point x="223" y="748" type="line" smooth="yes"/>
      <point x="124" y="625" type="line" smooth="yes"/>
      <point x="68" y="402" type="line" smooth="yes"/>
    </contour>
  </outline>
</glyph>
<glyph name="ccaron" format="1">
  <advance width="505"/>
  <unicode hex="010D"/>
  <outline>
    <contour>
      <point x="186" y="780" type="line" smooth="yes"/>
      <point x="290" y="620" type="line" smooth="yes"/>
      <point x="310" y="620" type="line" smooth="yes"/>
      <point x="456" y="780" type="line" smooth="yes"/>
      <point x="430" y="780" type="line" smooth="yes"/>
      <point x="301" y="638" type="line" smooth="yes"/>
      <point x="210" y="780" type="line" smooth="yes"/>
    </contour>
    <contour>
      <point x="39" y="253" type="line" smooth="yes"/>
      <point x="47" y="114" type="line" smooth="yes"/>
      <point x="109" y="25" type="line" smooth="yes"/>
      <point x="220" y="-6" type="line" smooth="yes"/>
      <point x="331" y="20" type="line" smooth="yes"/>
      <point x="396" y="82" type="line" smooth="yes"/>
      <point x="422" y="159" type="line" smooth="yes"/>
      <point x="424" y="175" type="line" smooth="yes"/>
      <point x="404" y="175" type="line" smooth="yes"/>
      <point x="377" y="91" type="line" smooth="yes"/>
      <point x="317" y="35" type="line" smooth="yes"/>
      <point x="220" y="14" type="line" smooth="yes"/>
      <point x="120" y="43" type="line" smooth="yes"/>
      <point x="65" y="125" type="line" smooth="yes"/>
      <point x="59" y="253" type="line" smooth="yes"/>
      <point x="62" y="277" type="line" smooth="yes"/>
      <point x="99" y="405" type="line" smooth="yes"/>
      <point x="172" y="487" type="line" smooth="yes"/>
      <point x="278" y="516" type="line" smooth="yes"/>
      <point x="376" y="494" type="line" smooth="yes"/>
      <point x="423" y="433" type="line" smooth="yes"/>
      <point x="426" y="345" type="line" smooth="yes"/>
      <point x="446" y="345" type="line" smooth="yes"/>
      <point x="448" y="361" type="line" smooth="yes"/>
      <point x="442" y="444" type="line" smooth="yes"/>
      <point x="391" y="510" type="line" smooth="yes"/>
      <point x="278" y="536" type="line" smooth="yes"/>
      <point x="162" y="505" type="line" smooth="yes"/>
      <point x="82" y="416" type="line" smooth="yes"/>
      <point x="42" y="277" type="line" smooth="yes"/>
    </contour>
  </outline>
</glyph>
<glyph name="Emacron" format="1">
  <advance width="540"/>
  <unicode hex="0112"/>
  <outline>
    <contour>
      <point x="257" y="885" type="line" smooth="yes"/>
      <point x="457" y="885" type="line" smooth="yes"/>
      <point x="460" y="905" type="line" smooth="yes"/>
      <point x="260" y="905" type="line" smooth="yes"/>
    </contour>
    <contour>
      <point x="133" y="780" type="line" smooth="yes"/>
      <point x="31" y="0" type="line" smooth="yes"/>
      <point x="441" y="0" type="line" smooth="yes"/>
      <point x="444" y="20" type="line" smooth="yes"/>
      <point x="54" y="20" type="line" smooth="yes"/>
      <point x="102" y="388" type="line" smooth="yes"/>
      <point x="441" y="388" type="line" smooth="yes"/>
      <point x="444" y="408" type="line" smooth="yes"/>
      <point x="105" y="408" type="line" smooth="yes"/>
      <point x="151" y="760" type="line" smooth="yes"/>
      <point x="540" y="760" type="line" smooth="yes"/>
      <point x="543" y="780" type="line" smooth="yes"/>
    </contour>
  </outline>
</glyph>
<glyph name="Ebreve" format="1">
  <advance width="540"/>
  <unicode hex="0114"/>
  <outline>
    <contour>
      <point x="350" y="852" type="line" smooth="yes"/>
      <point x="291" y="864" type="line" smooth="yes"/>
      <point x="259" y="898" type="line" smooth="yes"/>
      <point x="253" y="950" type="line" smooth="yes"/>
      <point x="236" y="950" type="line" smooth="yes"/>
      <point x="243" y="889" type="line" smooth="yes"/>
      <point x="282" y="849" type="line" smooth="yes"/>
      <point x="351" y="834" type="line" smooth="yes"/>
      <point x="423" y="849" type="line" smooth="yes"/>
      <point x="472" y="889" type="line" smooth="yes"/>
      <point x="496" y="950" type="line" smooth="yes"/>
      <point x="477" y="950" type="line" smooth="yes"/>
      <point x="456" y="898" type="line" smooth="yes"/>
      <point x="413" y="864" type="line" smooth="yes"/>
    </contour>
    <contour>
      <point x="133" y="780" type="line" smooth="yes"/>
      <point x="31" y="0" type="line" smooth="yes"/>
      <point x="441" y="0" type="line" smooth="yes"/>
      <point x="444" y="20" type="line" smooth="yes"/>
      <point x="54" y="20" type="line" smooth="yes"/>
      <point x="102" y="388" type="line" smooth="yes"/>
      <point x="441" y="388" type="line" smooth="yes"/>
      <point x="444" y="408" type="line" smooth="yes"/>
      <point x="105" y="408" type="line" smooth="yes"/>
      <point x="151" y="760" type="line" smooth="yes"/>
      <point x="540" y="760" type="line" smooth="yes"/>
      <point x="543" y="780" type="line" smooth="yes"/>
    </contour>
  </outline>
</glyph>
<glyph name="ebreve" format="1">
  <advance width="530"/>
  <unicode hex="0115"/>
  <outline>
    <contour>
      <point x="297" y="614" type="line" smooth="yes"/>
      <point x="384" y="637" type="line" smooth="yes"/>
      <point x="441" y="697" type="line" smooth="yes"/>
      <point x="468" y="780" type="line" smooth="yes"/>
      <point x="449" y="780" type="line" smooth="yes"/>
      <point x="426" y="706" type="line" smooth="yes"/>
      <point x="376" y="653" type="line" smooth="yes"/>
      <point x="297" y="632" type="line" smooth="yes"/>
      <point x="225" y="653" type="line" smooth="yes"/>
      <point x="189" y="706" type="line" smooth="yes"/>
      <point x="185" y="780" type="line" smooth="yes"/>
      <point x="168" y="780" type="line" smooth="yes"/>
      <point x="173" y="697" type="line" smooth="yes"/>
      <point x="216" y="637" type="line" smooth="yes"/>
    </contour>
    <contour>
      <point x="282" y="516" type="line" smooth="yes"/>
      <point x="387" y="485" type="line" smooth="yes"/>
      <point x="438" y="400" type="line" smooth="yes"/>
      <point x="442" y="275" type="line" smooth="yes"/>
      <point x="62" y="275" type="line" smooth="yes"/>
      <point x="100" y="404" type="line" smooth="yes"/>
      <point x="175" y="487" type="line" smooth="yes"/>
    </contour>
    <contour>
      <point x="459" y="255" type="line" smooth="yes"/>
      <point x="461" y="271" type="line" smooth="yes"/>
      <point x="458" y="408" type="line" smooth="yes"/>
      <point x="402" y="501" type="line" smooth="yes"/>
      <point x="282" y="536" type="line" smooth="yes"/>
      <point x="165" y="505" type="line" smooth="yes"/>
      <point x="83" y="416" type="line" smooth="yes"/>
      <point x="42" y="277" type="line" smooth="yes"/>
      <point x="39" y="253" type="line" smooth="yes"/>
      <point x="51" y="114" type="line" smooth="yes"/>
      <point x="119" y="25" type="line" smooth="yes"/>
      <point x="233" y="-6" type="line" smooth="yes"/>
      <point x="353" y="19" type="line" smooth="yes"/>
      <point x="420" y="79" type="line" smooth="yes"/>
      <point x="446" y="154" type="line" smooth="yes"/>
      <point x="448" y="170" type="line" smooth="yes"/>
      <point x="428" y="170" type="line" smooth="yes"/>
      <point x="405" y="93" type="line" smooth="yes"/>
      <point x="343" y="36" type="line" smooth="yes"/>
      <point x="233" y="14" type="line" smooth="yes"/>
      <point x="129" y="43" type="line" smooth="yes"/>
      <point x="69" y="126" type="line" smooth="yes"/>
      <point x="59" y="255" type="line" smooth="yes"/>
    </contour>
  </outline>
</glyph>
<glyph name="Edotaccent" format="1">
  <advance width="540"/>
  <unicode hex="0116"/>
  <outline>
    <contour>
      <point x="381" y="915" type="line" smooth="yes"/>
      <point x="341" y="915" type="line" smooth="yes"/>
      <point x="336" y="875" type="line" smooth="yes"/>
      <point x="376" y="875" type="line" smooth="yes"/>
    </contour>
    <contour>
      <point x="133" y="780" type="line" smooth="yes"/>
      <point x="31" y="0" type="line" smooth="yes"/>
      <point x="441" y="0" type="line" smooth="yes"/>
      <point x="444" y="20" type="line" smooth="yes"/>
      <point x="54" y="20" type="line" smooth="yes"/>
      <point x="102" y="388" type="line" smooth="yes"/>
      <point x="441" y="388" type="line" smooth="yes"/>
      <point x="444" y="408" type="line" smooth="yes"/>
      <point x="105" y="408" type="line" smooth="yes"/>
      <point x="151" y="760" type="line" smooth="yes"/>
      <point x="540" y="760" type="line" smooth="yes"/>
      <point x="543" y="780" type="line" smooth="yes"/>
    </contour>
  </outline>
</glyph>
<glyph name="Eogonek" format="1">
  <advance width="540"/>
  <unicode hex="0118"/>
  <outline>
    <contour>
      <point x="456" y="-170" type="line" smooth="yes"/>
      <point x="437" y="-178" type="line" smooth="yes"/>
      <point x="412" y="-185" type="line" smooth="yes"/>
      <point x="381" y="-188" type="line" smooth="yes"/>
      <point x="349" y="-182" type="line" smooth="yes"/>
      <point x="326" y="-164" type="line" smooth="yes"/>
      <point x="317" y="-129" type="line" smooth="yes"/>
      <point x="338" y="-63" type="line" smooth="yes"/>
      <point x="387" y="-23" type="line" smooth="yes"/>
      <point x="441" y="0" type="line" smooth="yes"/>
      <point x="444" y="20" type="line" smooth="yes"/>
      <point x="54" y="20" type="line" smooth="yes"/>
      <point x="102" y="388" type="line" smooth="yes"/>
      <point x="441" y="388" type="line" smooth="yes"/>
      <point x="444" y="408" type="line" smooth="yes"/>
      <point x="105" y="408" type="line" smooth="yes"/>
      <point x="151" y="760" type="line" smooth="yes"/>
      <point x="540" y="760" type="line" smooth="yes"/>
      <point x="543" y="780" type="line" smooth="yes"/>
      <point x="133" y="780" type="line" smooth="yes"/>
      <point x="31" y="0" type="line" smooth="yes"/>
      <point x="393" y="0" type="line" smooth="yes"/>
      <point x="346" y="-28" type="line" smooth="yes"/>
      <point x="312" y="-70" type="line" smooth="yes"/>
      <point x="299" y="-129" type="line" smooth="yes"/>
      <point x="310" y="-173" type="line" smooth="yes"/>
      <point x="340" y="-198" type="line" smooth="yes"/>
      <point x="381" y="-206" type="line" smooth="yes"/>
      <point x="415" y="-203" type="line" smooth="yes"/>
      <point x="440" y="-196" type="line" smooth="yes"/>
      <point x="460" y="-187" type="line" smooth="yes"/>
    </contour>
  </outline>
</glyph>
<glyph name="eogonek" format="1">
  <advance width="525"/>
  <unicode hex="0119"/>
  <outline>
    <contour>
      <point x="282" y="516" type="line" smooth="yes"/>
      <point x="387" y="485" type="line" smooth="yes"/>
      <point x="438" y="400" type="line" smooth="yes"/>
      <point x="442" y="275" type="line" smooth="yes"/>
      <point x="62" y="275" type="line" smooth="yes"/>
      <point x="100" y="404" type="line" smooth="yes"/>
      <point x="175" y="487" type="line" smooth="yes"/>
    </contour>
    <contour>
      <point x="312" y="-170" type="line" smooth="yes"/>
      <point x="293" y="-178" type="line" smooth="yes"/>
      <point x="268" y="-185" type="line" smooth="yes"/>
      <point x="237" y="-188" type="line" smooth="yes"/>
      <point x="205" y="-182" type="line" smooth="yes"/>
      <point x="182" y="-164" type="line" smooth="yes"/>
      <point x="173" y="-129" type="line" smooth="yes"/>
      <point x="194" y="-62" type="line" smooth="yes"/>
      <point x="244" y="-19" type="line" smooth="yes"/>
      <point x="297" y="0" type="line" smooth="yes"/>
      <point x="379" y="34" type="line" smooth="yes"/>
      <point x="426" y="90" type="line" smooth="yes"/>
      <point x="446" y="154" type="line" smooth="yes"/>
      <point x="448" y="170" type="line" smooth="yes"/>
      <point x="428" y="170" type="line" smooth="yes"/>
      <point x="405" y="93" type="line" smooth="yes"/>
      <point x="343" y="36" type="line" smooth="yes"/>
      <point x="233" y="14" type="line" smooth="yes"/>
      <point x="129" y="43" type="line" smooth="yes"/>
      <point x="69" y="126" type="line" smooth="yes"/>
      <point x="59" y="255" type="line" smooth="yes"/>
      <point x="459" y="255" type="line" smooth="yes"/>
      <point x="461" y="271" type="line" smooth="yes"/>
      <point x="458" y="408" type="line" smooth="yes"/>
      <point x="402" y="501" type="line" smooth="yes"/>
      <point x="282" y="536" type="line" smooth="yes"/>
      <point x="165" y="505" type="line" smooth="yes"/>
      <point x="83" y="416" type="line" smooth="yes"/>
      <point x="42" y="277" type="line" smooth="yes"/>
      <point x="39" y="253" type="line" smooth="yes"/>
      <point x="51" y="114" type="line" smooth="yes"/>
      <point x="119" y="25" type="line" smooth="yes"/>
      <point x="233" y="-6" type="line" smooth="yes"/>
      <point x="237" y="-6" type="line" smooth="yes"/>
      <point x="196" y="-34" type="line" smooth="yes"/>
      <point x="166" y="-74" type="line" smooth="yes"/>
      <point x="155" y="-129" type="line" smooth="yes"/>
      <point x="166" y="-173" type="line" smooth="yes"/>
      <point x="196" y="-198" type="line" smooth="yes"/>
      <point x="237" y="-206" type="line" smooth="yes"/>
      <point x="271" y="-203" type="line" smooth="yes"/>
      <point x="296" y="-196" type="line" smooth="yes"/>
      <point x="316" y="-187" type="line" smooth="yes"/>
    </contour>
  </outline>
</glyph>
<glyph name="gbreve" format="1">
  <advance width="510"/>
  <unicode hex="011F"/>
  <outline>
    <contour>
      <point x="289" y="614" type="line" smooth="yes"/>
      <point x="376" y="637" type="line" smooth="yes"/>
      <point x="433" y="697" type="line" smooth="yes"/>
      <point x="460" y="780" type="line" smooth="yes"/>
      <point x="441" y="780" type="line" smooth="yes"/>
      <point x="418" y="706" type="line" smooth="yes"/>
      <point x="368" y="653" type="line" smooth="yes"/>
      <point x="289" y="632" type="line" smooth="yes"/>
      <point x="217" y="653" type="line" smooth="yes"/>
      <point x="181" y="706" type="line" smooth="yes"/>
      <point x="177" y="780" type="line" smooth="yes"/>
      <point x="160" y="780" type="line" smooth="yes"/>
      <point x="165" y="697" type="line" smooth="yes"/>
      <point x="208" y="637" type="line" smooth="yes"/>
    </contour>
    <contour>
      <point x="390" y="151" type="line" smooth="yes"/>
      <point x="347" y="103" type="line" smooth="yes"/>
      <point x="291" y="68" type="line" smooth="yes"/>
      <point x="219" y="54" type="line" smooth="yes"/>
      <point x="124" y="78" type="line" smooth="yes"/>
      <point x="69" y="150" type="line" smooth="yes"/>
      <point x="61" y="273" type="line" smooth="yes"/>
      <point x="64" y="297" type="line" smooth="yes"/>
      <point x="101" y="420" type="line" smooth="yes"/>
      <point x="172" y="492" type="line" smooth="yes"/>
      <point x="271" y="516" type="line" smooth="yes"/>
      <point x="345" y="501" type="line" smooth="yes"/>
      <point x="396" y="465" type="line" smooth="yes"/>
      <point x="426" y="423" type="line" smooth="yes"/>
    </contour>
    <contour>
      <point x="180" y="-206" type="line" smooth="yes"/>
      <point x="290" y="-181" type="line" smooth="yes"/>
      <point x="358" y="-114" type="line" smooth="yes"/>
      <point x="389" y="-13" type="line" smooth="yes"/>
      <point x="444" y="408" type="line" smooth="yes"/>
      <point x="465" y="530" type="line" smooth="yes"/>
      <point x="450" y="530" type="line" smooth="yes"/>
      <point x="432" y="447" type="line" smooth="yes"/>
      <point x="400" y="489" type="line" smooth="yes"/>
      <point x="347" y="522" type="line" smooth="yes"/>
      <point x="271" y="536" type="line" smooth="yes"/>
      <point x="161" y="510" type="line" smooth="yes"/>
      <point x="84" y="431" type="line" smooth="yes"/>
      <point x="44" y="297" type="line" smooth="yes"/>
      <point x="41" y="273" type="line" smooth="yes"/>
      <point x="51" y="139" type="line" smooth="yes"/>
      <point x="113" y="60" type="line" smooth="yes"/>
      <point x="219" y="34" type="line" smooth="yes"/>
      <point x="293" y="47" type="line" smooth="yes"/>
      <point x="349" y="80" type="line" smooth="yes"/>
      <point x="386" y="120" type="line" smooth="yes"/>
      <point x="371" y="0" type="line" smooth="yes"/>
      <point x="343" y="-99" type="line" smooth="yes"/>
      <point x="281" y="-163" type="line" smooth="yes"/>
      <point x="180" y="-186" type="line" smooth="yes"/>
      <point x="78" y="-165" type="line" smooth="yes"/>
      <point x="29" y="-103" type="line" smooth="yes"/>
      <point x="26" y="0" type="line" smooth="yes"/>
      <point x="6" y="0" type="line" smooth="yes"/>
      <point x="4" y="-16" type="line" smooth="yes"/>
      <point x="12" y="-117" type="line" smooth="yes"/>
      <point x="69" y="-183" type="line" smooth="yes"/>
    </contour>
  </outline>
</glyph>
